<?xml version="1.0" encoding="UTF-8" standalone="no"?><svg xmlns="http://www.w3.org/2000/svg" xmlns:xlink="http://www.w3.org/1999/xlink" clip-rule="evenodd" stroke-miterlimit="10" viewBox="0 0 857 144"><desc>SVG generated by Keynote</desc><defs></defs><g transform="matrix(1.00, 0.00, -0.00, -1.00, 0.0, 144.0)"><text xml:space="preserve" font-family="Helvetica-Light,Helvetica" font-size="66.4" fill="#FEFFFF" transform="matrix(1.00, 0.00, -0.00, -1.00, -5.7, 94.2)">I</text><text xml:space="preserve" font-family="Helvetica-Light,Helvetica" font-size="66.4" fill="#FEFFFF" transform="matrix(1.00, 0.00, -0.00, -1.00, 12.7, 94.2)">d</text><text xml:space="preserve" font-family="Helvetica-Light,Helvetica" font-size="66.4" fill="#FEFFFF" transform="matrix(1.00, 0.00, -0.00, -1.00, 53.3, 94.2)">e</text><text xml:space="preserve" font-family="Helvetica-Light,Helvetica" font-size="66.4" fill="#FEFFFF" transform="matrix(1.00, 0.00, -0.00, -1.00, 90.2, 94.2)">a</text><text xml:space="preserve" font-family="Helvetica-Light,Helvetica" font-size="66.4" fill="#FEFFFF" transform="matrix(1.00, 0.00, -0.00, -1.00, 127.1, 94.2)">l</text><text xml:space="preserve" font-family="Helvetica-Light,Helvetica" font-size="66.4" fill="#FEFFFF" transform="matrix(1.00, 0.00, -0.00, -1.00, 141.9, 94.2)">l</text><text xml:space="preserve" font-family="Helvetica-Light,Helvetica" font-size="66.4" fill="#FEFFFF" transform="matrix(1.00, 0.00, -0.00, -1.00, 156.6, 94.2)">y</text><text xml:space="preserve" font-family="Helvetica-Light,Helvetica" font-size="66.4" fill="#FEFFFF" transform="matrix(1.00, 0.00, -0.00, -1.00, 189.8, 94.2)"> </text><text xml:space="preserve" font-family="Helvetica-Light,Helvetica" font-size="66.4" fill="#FEFFFF" transform="matrix(1.00, 0.00, -0.00, -1.00, 208.3, 94.2)">o</text><text xml:space="preserve" font-family="Helvetica-Light,Helvetica" font-size="66.4" fill="#FEFFFF" transform="matrix(1.00, 0.00, -0.00, -1.00, 245.2, 94.2)">n</text><text xml:space="preserve" font-family="Helvetica-Light,Helvetica" font-size="66.4" fill="#FEFFFF" transform="matrix(1.00, 0.00, -0.00, -1.00, 282.1, 94.2)"> </text><text xml:space="preserve" font-family="Helvetica-Light,Helvetica" font-size="66.4" fill="#FEFFFF" transform="matrix(1.00, 0.00, -0.00, -1.00, 300.6, 94.2)">d</text><text xml:space="preserve" font-family="Helvetica-Light,Helvetica" font-size="66.4" fill="#FEFFFF" transform="matrix(1.00, 0.00, -0.00, -1.00, 341.1, 94.2)">i</text><text xml:space="preserve" font-family="Helvetica-Light,Helvetica" font-size="66.4" fill="#FEFFFF" transform="matrix(1.00, 0.00, -0.00, -1.00, 355.9, 94.2)">s</text><text xml:space="preserve" font-family="Helvetica-Light,Helvetica" font-size="66.4" fill="#FEFFFF" transform="matrix(1.00, 0.00, -0.00, -1.00, 389.1, 94.2)">p</text><text xml:space="preserve" font-family="Helvetica-Light,Helvetica" font-size="66.4" fill="#FEFFFF" transform="matrix(1.00, 0.00, -0.00, -1.00, 429.7, 94.2)">o</text><text xml:space="preserve" font-family="Helvetica-Light,Helvetica" font-size="66.4" fill="#FEFFFF" transform="matrix(1.00, 0.00, -0.00, -1.00, 466.6, 94.2)">s</text><text xml:space="preserve" font-family="Helvetica-Light,Helvetica" font-size="66.4" fill="#FEFFFF" transform="matrix(1.00, 0.00, -0.00, -1.00, 499.8, 94.2)">a</text><text xml:space="preserve" font-family="Helvetica-Light,Helvetica" font-size="66.4" fill="#FEFFFF" transform="matrix(1.00, 0.00, -0.00, -1.00, 536.7, 94.2)">b</text><text xml:space="preserve" font-family="Helvetica-Light,Helvetica" font-size="66.4" fill="#FEFFFF" transform="matrix(1.00, 0.00, -0.00, -1.00, 577.3, 94.2)">l</text><text xml:space="preserve" font-family="Helvetica-Light,Helvetica" font-size="66.4" fill="#FEFFFF" transform="matrix(1.00, 0.00, -0.00, -1.00, 592.0, 94.2)">e</text><text xml:space="preserve" font-family="Helvetica-Light,Helvetica" font-size="66.4" fill="#FEFFFF" transform="matrix(1.00, 0.00, -0.00, -1.00, 628.9, 94.2)"> </text><text xml:space="preserve" font-family="Helvetica-Light,Helvetica" font-size="66.4" fill="#FEFFFF" transform="matrix(1.00, 0.00, -0.00, -1.00, 647.4, 94.2)">o</text><text xml:space="preserve" font-family="Helvetica-Light,Helvetica" font-size="66.4" fill="#FEFFFF" transform="matrix(1.00, 0.00, -0.00, -1.00, 684.3, 94.2)">r</text><text xml:space="preserve" font-family="Helvetica-Light,Helvetica" font-size="66.4" fill="#FEFFFF" transform="matrix(1.00, 0.00, -0.00, -1.00, 706.4, 94.2)"> </text><text xml:space="preserve" font-family="Helvetica-Light,Helvetica" font-size="66.4" fill="#FEFFFF" transform="matrix(1.00, 0.00, -0.00, -1.00, 724.9, 94.2)">n</text><text xml:space="preserve" font-family="Helvetica-Light,Helvetica" font-size="66.4" fill="#FEFFFF" transform="matrix(1.00, 0.00, -0.00, -1.00, 761.8, 94.2)">o</text><text xml:space="preserve" font-family="Helvetica-Light,Helvetica" font-size="66.4" fill="#FEFFFF" transform="matrix(1.00, 0.00, -0.00, -1.00, 798.7, 94.2)">n</text><text xml:space="preserve" font-family="Helvetica-Light,Helvetica" font-size="66.4" fill="#FEFFFF" transform="matrix(1.00, 0.00, -0.00, -1.00, 835.6, 94.2)">-</text><text xml:space="preserve" font-family="Helvetica-Light,Helvetica" font-size="66.4" fill="#FEFFFF" transform="matrix(1.00, 0.00, -0.00, -1.00, 40.3, 15.2)">c</text><text xml:space="preserve" font-family="Helvetica-Light,Helvetica" font-size="66.4" fill="#FEFFFF" transform="matrix(1.00, 0.00, -0.00, -1.00, 77.3, 15.2)">o</text><text xml:space="preserve" font-family="Helvetica-Light,Helvetica" font-size="66.4" fill="#FEFFFF" transform="matrix(1.00, 0.00, -0.00, -1.00, 114.2, 15.2)">r</text><text xml:space="preserve" font-family="Helvetica-Light,Helvetica" font-size="66.4" fill="#FEFFFF" transform="matrix(1.00, 0.00, -0.00, -1.00, 135.1, 15.2)">e</text><text xml:space="preserve" font-family="Helvetica-Light,Helvetica" font-size="66.4" fill="#FEFFFF" transform="matrix(1.00, 0.00, -0.00, -1.00, 172.0, 15.2)"> </text><text xml:space="preserve" font-family="Helvetica-Light,Helvetica" font-size="66.4" fill="#FEFFFF" transform="matrix(1.00, 0.00, -0.00, -1.00, 190.5, 15.2)">p</text><text xml:space="preserve" font-family="Helvetica-Light,Helvetica" font-size="66.4" fill="#FEFFFF" transform="matrix(1.00, 0.00, -0.00, -1.00, 231.0, 15.2)">a</text><text xml:space="preserve" font-family="Helvetica-Light,Helvetica" font-size="66.4" fill="#FEFFFF" transform="matrix(1.00, 0.00, -0.00, -1.00, 268.0, 15.2)">r</text><text xml:space="preserve" font-family="Helvetica-Light,Helvetica" font-size="66.4" fill="#FEFFFF" transform="matrix(1.00, 0.00, -0.00, -1.00, 291.3, 15.2)">t</text><text xml:space="preserve" font-family="Helvetica-Light,Helvetica" font-size="66.4" fill="#FEFFFF" transform="matrix(1.00, 0.00, -0.00, -1.00, 309.7, 15.2)">s</text><text xml:space="preserve" font-family="Helvetica-Light,Helvetica" font-size="66.4" fill="#FEFFFF" transform="matrix(1.00, 0.00, -0.00, -1.00, 342.9, 15.2)"> </text><text xml:space="preserve" font-family="Helvetica-Light,Helvetica" font-size="66.4" fill="#FEFFFF" transform="matrix(1.00, 0.00, -0.00, -1.00, 361.4, 15.2)">o</text><text xml:space="preserve" font-family="Helvetica-Light,Helvetica" font-size="66.4" fill="#FEFFFF" transform="matrix(1.00, 0.00, -0.00, -1.00, 398.3, 15.2)">f</text><text xml:space="preserve" font-family="Helvetica-Light,Helvetica" font-size="66.4" fill="#FEFFFF" transform="matrix(1.00, 0.00, -0.00, -1.00, 416.8, 15.2)"> </text><text xml:space="preserve" font-family="Helvetica-Light,Helvetica" font-size="66.4" fill="#FEFFFF" transform="matrix(1.00, 0.00, -0.00, -1.00, 435.2, 15.2)">t</text><text xml:space="preserve" font-family="Helvetica-Light,Helvetica" font-size="66.4" fill="#FEFFFF" transform="matrix(1.00, 0.00, -0.00, -1.00, 453.7, 15.2)">h</text><text xml:space="preserve" font-family="Helvetica-Light,Helvetica" font-size="66.4" fill="#FEFFFF" transform="matrix(1.00, 0.00, -0.00, -1.00, 490.6, 15.2)">e</text><text xml:space="preserve" font-family="Helvetica-Light,Helvetica" font-size="66.4" fill="#FEFFFF" transform="matrix(1.00, 0.00, -0.00, -1.00, 527.5, 15.2)"> </text><text xml:space="preserve" font-family="Helvetica-Light,Helvetica" font-size="66.4" fill="#FEFFFF" transform="matrix(1.00, 0.00, -0.00, -1.00, 546.0, 15.2)">b</text><text xml:space="preserve" font-family="Helvetica-Light,Helvetica" font-size="66.4" fill="#FEFFFF" transform="matrix(1.00, 0.00, -0.00, -1.00, 586.6, 15.2)">u</text><text xml:space="preserve" font-family="Helvetica-Light,Helvetica" font-size="66.4" fill="#FEFFFF" transform="matrix(1.00, 0.00, -0.00, -1.00, 623.5, 15.2)">s</text><text xml:space="preserve" font-family="Helvetica-Light,Helvetica" font-size="66.4" fill="#FEFFFF" transform="matrix(1.00, 0.00, -0.00, -1.00, 656.7, 15.2)">i</text><text xml:space="preserve" font-family="Helvetica-Light,Helvetica" font-size="66.4" fill="#FEFFFF" transform="matrix(1.00, 0.00, -0.00, -1.00, 671.4, 15.2)">n</text><text xml:space="preserve" font-family="Helvetica-Light,Helvetica" font-size="66.4" fill="#FEFFFF" transform="matrix(1.00, 0.00, -0.00, -1.00, 708.3, 15.2)">e</text><text xml:space="preserve" font-family="Helvetica-Light,Helvetica" font-size="66.4" fill="#FEFFFF" transform="matrix(1.00, 0.00, -0.00, -1.00, 745.3, 15.2)">s</text><text xml:space="preserve" font-family="Helvetica-Light,Helvetica" font-size="66.4" fill="#FEFFFF" transform="matrix(1.00, 0.00, -0.00, -1.00, 778.5, 15.2)">s</text></g></svg>