<?xml version="1.0" encoding="UTF-8" standalone="no"?><svg xmlns="http://www.w3.org/2000/svg" xmlns:xlink="http://www.w3.org/1999/xlink" clip-rule="evenodd" stroke-miterlimit="10" viewBox="0 0 1024 768"><desc>SVG generated by Keynote</desc><defs></defs><g transform="matrix(1.00, 0.00, -0.00, -1.00, 0.0, 768.0)"><path d="M 0.0 768.0 L 1024.0 768.0 L 1024.0 0.0 L 0.0 0.0 Z M 0.0 768.0 " fill="#000000"></path><text xml:space="preserve" font-family="Helvetica-Light,Helvetica" font-size="68.8" fill="#FEFFFF" transform="matrix(1.00, 0.00, -0.00, -1.00, 80.6, 636.8)">W</text><text xml:space="preserve" font-family="Helvetica-Light,Helvetica" font-size="68.8" fill="#FEFFFF" transform="matrix(1.00, 0.00, -0.00, -1.00, 141.7, 636.8)">h</text><text xml:space="preserve" font-family="Helvetica-Light,Helvetica" font-size="68.8" fill="#FEFFFF" transform="matrix(1.00, 0.00, -0.00, -1.00, 180.0, 636.8)">a</text><text xml:space="preserve" font-family="Helvetica-Light,Helvetica" font-size="68.8" fill="#FEFFFF" transform="matrix(1.00, 0.00, -0.00, -1.00, 218.2, 636.8)">t</text><text xml:space="preserve" font-family="Helvetica-Light,Helvetica" font-size="68.8" fill="#FEFFFF" transform="matrix(1.00, 0.00, -0.00, -1.00, 237.4, 636.8)"> </text><text xml:space="preserve" font-family="Helvetica-Light,Helvetica" font-size="68.8" fill="#FEFFFF" transform="matrix(1.00, 0.00, -0.00, -1.00, 256.5, 636.8)">i</text><text xml:space="preserve" font-family="Helvetica-Light,Helvetica" font-size="68.8" fill="#FEFFFF" transform="matrix(1.00, 0.00, -0.00, -1.00, 271.8, 636.8)">s</text><text xml:space="preserve" font-family="Helvetica-Light,Helvetica" font-size="68.8" fill="#FEFFFF" transform="matrix(1.00, 0.00, -0.00, -1.00, 306.2, 636.8)"> </text><text xml:space="preserve" font-family="Helvetica-Light,Helvetica" font-size="68.8" fill="#FEFFFF" transform="matrix(1.00, 0.00, -0.00, -1.00, 325.3, 636.8)">y</text><text xml:space="preserve" font-family="Helvetica-Light,Helvetica" font-size="68.8" fill="#FEFFFF" transform="matrix(1.00, 0.00, -0.00, -1.00, 359.7, 636.8)">o</text><text xml:space="preserve" font-family="Helvetica-Light,Helvetica" font-size="68.8" fill="#FEFFFF" transform="matrix(1.00, 0.00, -0.00, -1.00, 397.9, 636.8)">u</text><text xml:space="preserve" font-family="Helvetica-Light,Helvetica" font-size="68.8" fill="#FEFFFF" transform="matrix(1.00, 0.00, -0.00, -1.00, 436.2, 636.8)">r</text><text xml:space="preserve" font-family="Helvetica-Light,Helvetica" font-size="68.8" fill="#FEFFFF" transform="matrix(1.00, 0.00, -0.00, -1.00, 459.1, 636.8)"> </text><text xml:space="preserve" font-family="Helvetica-Light,Helvetica" font-size="68.8" fill="#FEFFFF" transform="matrix(1.00, 0.00, -0.00, -1.00, 478.2, 636.8)">c</text><text xml:space="preserve" font-family="Helvetica-Light,Helvetica" font-size="68.8" fill="#FEFFFF" transform="matrix(1.00, 0.00, -0.00, -1.00, 516.5, 636.8)">o</text><text xml:space="preserve" font-family="Helvetica-Light,Helvetica" font-size="68.8" fill="#FEFFFF" transform="matrix(1.00, 0.00, -0.00, -1.00, 554.7, 636.8)">r</text><text xml:space="preserve" font-family="Helvetica-Light,Helvetica" font-size="68.8" fill="#FEFFFF" transform="matrix(1.00, 0.00, -0.00, -1.00, 576.4, 636.8)">e</text><text xml:space="preserve" font-family="Helvetica-Light,Helvetica" font-size="68.8" fill="#FEFFFF" transform="matrix(1.00, 0.00, -0.00, -1.00, 614.6, 636.8)"> </text><text xml:space="preserve" font-family="Helvetica-Light,Helvetica" font-size="68.8" fill="#FEFFFF" transform="matrix(1.00, 0.00, -0.00, -1.00, 633.8, 636.8)">b</text><text xml:space="preserve" font-family="Helvetica-Light,Helvetica" font-size="68.8" fill="#FEFFFF" transform="matrix(1.00, 0.00, -0.00, -1.00, 675.8, 636.8)">u</text><text xml:space="preserve" font-family="Helvetica-Light,Helvetica" font-size="68.8" fill="#FEFFFF" transform="matrix(1.00, 0.00, -0.00, -1.00, 714.1, 636.8)">s</text><text xml:space="preserve" font-family="Helvetica-Light,Helvetica" font-size="68.8" fill="#FEFFFF" transform="matrix(1.00, 0.00, -0.00, -1.00, 748.5, 636.8)">i</text><text xml:space="preserve" font-family="Helvetica-Light,Helvetica" font-size="68.8" fill="#FEFFFF" transform="matrix(1.00, 0.00, -0.00, -1.00, 763.7, 636.8)">n</text><text xml:space="preserve" font-family="Helvetica-Light,Helvetica" font-size="68.8" fill="#FEFFFF" transform="matrix(1.00, 0.00, -0.00, -1.00, 802.0, 636.8)">e</text><text xml:space="preserve" font-family="Helvetica-Light,Helvetica" font-size="68.8" fill="#FEFFFF" transform="matrix(1.00, 0.00, -0.00, -1.00, 840.2, 636.8)">s</text><text xml:space="preserve" font-family="Helvetica-Light,Helvetica" font-size="68.8" fill="#FEFFFF" transform="matrix(1.00, 0.00, -0.00, -1.00, 874.6, 636.8)">s</text><text xml:space="preserve" font-family="Helvetica-Light,Helvetica" font-size="68.8" fill="#FEFFFF" transform="matrix(1.00, 0.00, -0.00, -1.00, 909.0, 636.8)">?</text><image xlink:href="../../4DE9A2D0-A5C3-4F5A-85B2-9CBF42014E64/assets/0CE60E5AF4755F06F8F17DD8BD1EA4C9.png" width="392.00" height="122.00" transform="matrix(1.00, 0.00, -0.00, -1.00, 56.0, 577.0)"></image><image xlink:href="../../4DE9A2D0-A5C3-4F5A-85B2-9CBF42014E64/assets/719A807A9EC6DD6098DFF37525D85012.png" width="1202.00" height="455.00" transform="matrix(0.33, 0.00, -0.00, -0.33, 560.0, 539.0)"></image><image xlink:href="../../4DE9A2D0-A5C3-4F5A-85B2-9CBF42014E64/assets/03E07C4675C9060B11AEE5D16703022F.png" width="1240.00" height="562.00" transform="matrix(0.38, 0.00, -0.00, -0.38, 48.0, 366.0)"></image><text xml:space="preserve" font-family="Helvetica-Light,Helvetica" font-size="30.0" fill="#FEFFFF" transform="matrix(1.00, 0.00, -0.00, -1.00, 229.2, 51.4)">h</text><text xml:space="preserve" font-family="Helvetica-Light,Helvetica" font-size="30.0" fill="#FEFFFF" transform="matrix(1.00, 0.00, -0.00, -1.00, 245.9, 51.4)">t</text><text xml:space="preserve" font-family="Helvetica-Light,Helvetica" font-size="30.0" fill="#FEFFFF" transform="matrix(1.00, 0.00, -0.00, -1.00, 254.3, 51.4)">t</text><text xml:space="preserve" font-family="Helvetica-Light,Helvetica" font-size="30.0" fill="#FEFFFF" transform="matrix(1.00, 0.00, -0.00, -1.00, 262.6, 51.4)">p</text><text xml:space="preserve" font-family="Helvetica-Light,Helvetica" font-size="30.0" fill="#FEFFFF" transform="matrix(1.00, 0.00, -0.00, -1.00, 280.9, 51.4)">:</text><text xml:space="preserve" font-family="Helvetica-Light,Helvetica" font-size="30.0" fill="#FEFFFF" transform="matrix(1.00, 0.00, -0.00, -1.00, 289.3, 51.4)">/</text><text xml:space="preserve" font-family="Helvetica-Light,Helvetica" font-size="30.0" fill="#FEFFFF" transform="matrix(1.00, 0.00, -0.00, -1.00, 297.6, 51.4)">/</text><text xml:space="preserve" font-family="Helvetica-Light,Helvetica" font-size="30.0" fill="#FEFFFF" transform="matrix(1.00, 0.00, -0.00, -1.00, 305.9, 51.4)">t</text><text xml:space="preserve" font-family="Helvetica-Light,Helvetica" font-size="30.0" fill="#FEFFFF" transform="matrix(1.00, 0.00, -0.00, -1.00, 314.3, 51.4)">e</text><text xml:space="preserve" font-family="Helvetica-Light,Helvetica" font-size="30.0" fill="#FEFFFF" transform="matrix(1.00, 0.00, -0.00, -1.00, 331.0, 51.4)">c</text><text xml:space="preserve" font-family="Helvetica-Light,Helvetica" font-size="30.0" fill="#FEFFFF" transform="matrix(1.00, 0.00, -0.00, -1.00, 347.6, 51.4)">h</text><text xml:space="preserve" font-family="Helvetica-Light,Helvetica" font-size="30.0" fill="#FEFFFF" transform="matrix(1.00, 0.00, -0.00, -1.00, 364.3, 51.4)">c</text><text xml:space="preserve" font-family="Helvetica-Light,Helvetica" font-size="30.0" fill="#FEFFFF" transform="matrix(1.00, 0.00, -0.00, -1.00, 381.0, 51.4)">r</text><text xml:space="preserve" font-family="Helvetica-Light,Helvetica" font-size="30.0" fill="#FEFFFF" transform="matrix(1.00, 0.00, -0.00, -1.00, 391.0, 51.4)">u</text><text xml:space="preserve" font-family="Helvetica-Light,Helvetica" font-size="30.0" fill="#FEFFFF" transform="matrix(1.00, 0.00, -0.00, -1.00, 407.7, 51.4)">n</text><text xml:space="preserve" font-family="Helvetica-Light,Helvetica" font-size="30.0" fill="#FEFFFF" transform="matrix(1.00, 0.00, -0.00, -1.00, 424.4, 51.4)">c</text><text xml:space="preserve" font-family="Helvetica-Light,Helvetica" font-size="30.0" fill="#FEFFFF" transform="matrix(1.00, 0.00, -0.00, -1.00, 441.0, 51.4)">h</text><text xml:space="preserve" font-family="Helvetica-Light,Helvetica" font-size="30.0" fill="#FEFFFF" transform="matrix(1.00, 0.00, -0.00, -1.00, 457.7, 51.4)">.</text><text xml:space="preserve" font-family="Helvetica-Light,Helvetica" font-size="30.0" fill="#FEFFFF" transform="matrix(1.00, 0.00, -0.00, -1.00, 466.1, 51.4)">c</text><text xml:space="preserve" font-family="Helvetica-Light,Helvetica" font-size="30.0" fill="#FEFFFF" transform="matrix(1.00, 0.00, -0.00, -1.00, 482.7, 51.4)">o</text><text xml:space="preserve" font-family="Helvetica-Light,Helvetica" font-size="30.0" fill="#FEFFFF" transform="matrix(1.00, 0.00, -0.00, -1.00, 499.4, 51.4)">m</text><text xml:space="preserve" font-family="Helvetica-Light,Helvetica" font-size="30.0" fill="#FEFFFF" transform="matrix(1.00, 0.00, -0.00, -1.00, 524.4, 51.4)">/</text><text xml:space="preserve" font-family="Helvetica-Light,Helvetica" font-size="30.0" fill="#FEFFFF" transform="matrix(1.00, 0.00, -0.00, -1.00, 532.7, 51.4)">2</text><text xml:space="preserve" font-family="Helvetica-Light,Helvetica" font-size="30.0" fill="#FEFFFF" transform="matrix(1.00, 0.00, -0.00, -1.00, 549.4, 51.4)">0</text><text xml:space="preserve" font-family="Helvetica-Light,Helvetica" font-size="30.0" fill="#FEFFFF" transform="matrix(1.00, 0.00, -0.00, -1.00, 566.1, 51.4)">1</text><text xml:space="preserve" font-family="Helvetica-Light,Helvetica" font-size="30.0" fill="#FEFFFF" transform="matrix(1.00, 0.00, -0.00, -1.00, 582.8, 51.4)">5</text><text xml:space="preserve" font-family="Helvetica-Light,Helvetica" font-size="30.0" fill="#FEFFFF" transform="matrix(1.00, 0.00, -0.00, -1.00, 599.5, 51.4)">/</text><text xml:space="preserve" font-family="Helvetica-Light,Helvetica" font-size="30.0" fill="#FEFFFF" transform="matrix(1.00, 0.00, -0.00, -1.00, 607.8, 51.4)">0</text><text xml:space="preserve" font-family="Helvetica-Light,Helvetica" font-size="30.0" fill="#FEFFFF" transform="matrix(1.00, 0.00, -0.00, -1.00, 624.5, 51.4)">9</text><text xml:space="preserve" font-family="Helvetica-Light,Helvetica" font-size="30.0" fill="#FEFFFF" transform="matrix(1.00, 0.00, -0.00, -1.00, 641.2, 51.4)">/</text><text xml:space="preserve" font-family="Helvetica-Light,Helvetica" font-size="30.0" fill="#FEFFFF" transform="matrix(1.00, 0.00, -0.00, -1.00, 649.5, 51.4)">0</text><text xml:space="preserve" font-family="Helvetica-Light,Helvetica" font-size="30.0" fill="#FEFFFF" transform="matrix(1.00, 0.00, -0.00, -1.00, 666.2, 51.4)">6</text><text xml:space="preserve" font-family="Helvetica-Light,Helvetica" font-size="30.0" fill="#FEFFFF" transform="matrix(1.00, 0.00, -0.00, -1.00, 682.9, 51.4)">/</text><text xml:space="preserve" font-family="Helvetica-Light,Helvetica" font-size="30.0" fill="#FEFFFF" transform="matrix(1.00, 0.00, -0.00, -1.00, 691.2, 51.4)">a</text><text xml:space="preserve" font-family="Helvetica-Light,Helvetica" font-size="30.0" fill="#FEFFFF" transform="matrix(1.00, 0.00, -0.00, -1.00, 707.9, 51.4)">p</text><text xml:space="preserve" font-family="Helvetica-Light,Helvetica" font-size="30.0" fill="#FEFFFF" transform="matrix(1.00, 0.00, -0.00, -1.00, 726.2, 51.4)">i</text><text xml:space="preserve" font-family="Helvetica-Light,Helvetica" font-size="30.0" fill="#FEFFFF" transform="matrix(1.00, 0.00, -0.00, -1.00, 732.9, 51.4)">s</text><text xml:space="preserve" font-family="Helvetica-Light,Helvetica" font-size="30.0" fill="#FEFFFF" transform="matrix(1.00, 0.00, -0.00, -1.00, 747.9, 51.4)">-</text><text xml:space="preserve" font-family="Helvetica-Light,Helvetica" font-size="30.0" fill="#FEFFFF" transform="matrix(1.00, 0.00, -0.00, -1.00, 757.9, 51.4)">a</text><text xml:space="preserve" font-family="Helvetica-Light,Helvetica" font-size="30.0" fill="#FEFFFF" transform="matrix(1.00, 0.00, -0.00, -1.00, 774.5, 51.4)">r</text><text xml:space="preserve" font-family="Helvetica-Light,Helvetica" font-size="30.0" fill="#FEFFFF" transform="matrix(1.00, 0.00, -0.00, -1.00, 784.0, 51.4)">e</text><text xml:space="preserve" font-family="Helvetica-Light,Helvetica" font-size="30.0" fill="#FEFFFF" transform="matrix(1.00, 0.00, -0.00, -1.00, 800.7, 51.4)">-</text><text xml:space="preserve" font-family="Helvetica-Light,Helvetica" font-size="30.0" fill="#FEFFFF" transform="matrix(1.00, 0.00, -0.00, -1.00, 810.7, 51.4)">t</text><text xml:space="preserve" font-family="Helvetica-Light,Helvetica" font-size="30.0" fill="#FEFFFF" transform="matrix(1.00, 0.00, -0.00, -1.00, 819.0, 51.4)">h</text><text xml:space="preserve" font-family="Helvetica-Light,Helvetica" font-size="30.0" fill="#FEFFFF" transform="matrix(1.00, 0.00, -0.00, -1.00, 835.7, 51.4)">e</text><text xml:space="preserve" font-family="Helvetica-Light,Helvetica" font-size="30.0" fill="#FEFFFF" transform="matrix(1.00, 0.00, -0.00, -1.00, 852.4, 51.4)">-</text><text xml:space="preserve" font-family="Helvetica-Light,Helvetica" font-size="30.0" fill="#FEFFFF" transform="matrix(1.00, 0.00, -0.00, -1.00, 862.4, 51.4)">n</text><text xml:space="preserve" font-family="Helvetica-Light,Helvetica" font-size="30.0" fill="#FEFFFF" transform="matrix(1.00, 0.00, -0.00, -1.00, 879.0, 51.4)">e</text><text xml:space="preserve" font-family="Helvetica-Light,Helvetica" font-size="30.0" fill="#FEFFFF" transform="matrix(1.00, 0.00, -0.00, -1.00, 895.7, 51.4)">w</text><text xml:space="preserve" font-family="Helvetica-Light,Helvetica" font-size="30.0" fill="#FEFFFF" transform="matrix(1.00, 0.00, -0.00, -1.00, 917.4, 51.4)">-</text><text xml:space="preserve" font-family="Helvetica-Light,Helvetica" font-size="30.0" fill="#FEFFFF" transform="matrix(1.00, 0.00, -0.00, -1.00, 927.4, 51.4)">f</text><text xml:space="preserve" font-family="Helvetica-Light,Helvetica" font-size="30.0" fill="#FEFFFF" transform="matrix(1.00, 0.00, -0.00, -1.00, 935.7, 51.4)">t</text><text xml:space="preserve" font-family="Helvetica-Light,Helvetica" font-size="30.0" fill="#FEFFFF" transform="matrix(1.00, 0.00, -0.00, -1.00, 944.0, 51.4)">e</text><text xml:space="preserve" font-family="Helvetica-Light,Helvetica" font-size="30.0" fill="#FEFFFF" transform="matrix(1.00, 0.00, -0.00, -1.00, 960.7, 51.4)">s</text><text xml:space="preserve" font-family="Helvetica-Light,Helvetica" font-size="30.0" fill="#FEFFFF" transform="matrix(1.00, 0.00, -0.00, -1.00, 975.7, 51.4)">/</text><g><clipPath id="clip0x610003abce00"><path d="M 228.2 47.4 L 984.1 47.4 L 984.1 50.9 L 228.2 50.9 Z M 228.2 47.4 "></path></clipPath><g clip-path="url(#clip0x610003abce00)"><path d="M 5.0 35.4 L 759.8 35.4 " fill="none" stroke="#FEFFFF" stroke-width="1.50" transform="matrix(1.00, 0.00, 0.00, -1.00, 224.2, 84.5)"></path></g></g></g></svg>