<?xml version="1.0" encoding="UTF-8" standalone="no"?><svg xmlns="http://www.w3.org/2000/svg" xmlns:xlink="http://www.w3.org/1999/xlink" clip-rule="evenodd" stroke-miterlimit="10" viewBox="0 0 863 68"><desc>SVG generated by Keynote</desc><defs></defs><g transform="matrix(1.00, 0.00, -0.00, -1.00, 0.0, 68.0)"><text xml:space="preserve" font-family="Helvetica-Light,Helvetica" font-size="68.8" fill="#FEFFFF" transform="matrix(1.00, 0.00, -0.00, -1.00, 0.6, 15.8)">W</text><text xml:space="preserve" font-family="Helvetica-Light,Helvetica" font-size="68.8" fill="#FEFFFF" transform="matrix(1.00, 0.00, -0.00, -1.00, 61.7, 15.8)">h</text><text xml:space="preserve" font-family="Helvetica-Light,Helvetica" font-size="68.8" fill="#FEFFFF" transform="matrix(1.00, 0.00, -0.00, -1.00, 100.0, 15.8)">a</text><text xml:space="preserve" font-family="Helvetica-Light,Helvetica" font-size="68.8" fill="#FEFFFF" transform="matrix(1.00, 0.00, -0.00, -1.00, 138.2, 15.8)">t</text><text xml:space="preserve" font-family="Helvetica-Light,Helvetica" font-size="68.8" fill="#FEFFFF" transform="matrix(1.00, 0.00, -0.00, -1.00, 157.4, 15.8)"> </text><text xml:space="preserve" font-family="Helvetica-Light,Helvetica" font-size="68.8" fill="#FEFFFF" transform="matrix(1.00, 0.00, -0.00, -1.00, 176.5, 15.8)">i</text><text xml:space="preserve" font-family="Helvetica-Light,Helvetica" font-size="68.8" fill="#FEFFFF" transform="matrix(1.00, 0.00, -0.00, -1.00, 191.8, 15.8)">s</text><text xml:space="preserve" font-family="Helvetica-Light,Helvetica" font-size="68.8" fill="#FEFFFF" transform="matrix(1.00, 0.00, -0.00, -1.00, 226.2, 15.8)"> </text><text xml:space="preserve" font-family="Helvetica-Light,Helvetica" font-size="68.8" fill="#FEFFFF" transform="matrix(1.00, 0.00, -0.00, -1.00, 245.3, 15.8)">y</text><text xml:space="preserve" font-family="Helvetica-Light,Helvetica" font-size="68.8" fill="#FEFFFF" transform="matrix(1.00, 0.00, -0.00, -1.00, 279.7, 15.8)">o</text><text xml:space="preserve" font-family="Helvetica-Light,Helvetica" font-size="68.8" fill="#FEFFFF" transform="matrix(1.00, 0.00, -0.00, -1.00, 317.9, 15.8)">u</text><text xml:space="preserve" font-family="Helvetica-Light,Helvetica" font-size="68.8" fill="#FEFFFF" transform="matrix(1.00, 0.00, -0.00, -1.00, 356.2, 15.8)">r</text><text xml:space="preserve" font-family="Helvetica-Light,Helvetica" font-size="68.8" fill="#FEFFFF" transform="matrix(1.00, 0.00, -0.00, -1.00, 379.1, 15.8)"> </text><text xml:space="preserve" font-family="Helvetica-Light,Helvetica" font-size="68.8" fill="#FEFFFF" transform="matrix(1.00, 0.00, -0.00, -1.00, 398.2, 15.8)">c</text><text xml:space="preserve" font-family="Helvetica-Light,Helvetica" font-size="68.8" fill="#FEFFFF" transform="matrix(1.00, 0.00, -0.00, -1.00, 436.5, 15.8)">o</text><text xml:space="preserve" font-family="Helvetica-Light,Helvetica" font-size="68.8" fill="#FEFFFF" transform="matrix(1.00, 0.00, -0.00, -1.00, 474.7, 15.8)">r</text><text xml:space="preserve" font-family="Helvetica-Light,Helvetica" font-size="68.8" fill="#FEFFFF" transform="matrix(1.00, 0.00, -0.00, -1.00, 496.4, 15.8)">e</text><text xml:space="preserve" font-family="Helvetica-Light,Helvetica" font-size="68.8" fill="#FEFFFF" transform="matrix(1.00, 0.00, -0.00, -1.00, 534.6, 15.8)"> </text><text xml:space="preserve" font-family="Helvetica-Light,Helvetica" font-size="68.8" fill="#FEFFFF" transform="matrix(1.00, 0.00, -0.00, -1.00, 553.8, 15.8)">b</text><text xml:space="preserve" font-family="Helvetica-Light,Helvetica" font-size="68.8" fill="#FEFFFF" transform="matrix(1.00, 0.00, -0.00, -1.00, 595.8, 15.8)">u</text><text xml:space="preserve" font-family="Helvetica-Light,Helvetica" font-size="68.8" fill="#FEFFFF" transform="matrix(1.00, 0.00, -0.00, -1.00, 634.1, 15.8)">s</text><text xml:space="preserve" font-family="Helvetica-Light,Helvetica" font-size="68.8" fill="#FEFFFF" transform="matrix(1.00, 0.00, -0.00, -1.00, 668.5, 15.8)">i</text><text xml:space="preserve" font-family="Helvetica-Light,Helvetica" font-size="68.8" fill="#FEFFFF" transform="matrix(1.00, 0.00, -0.00, -1.00, 683.7, 15.8)">n</text><text xml:space="preserve" font-family="Helvetica-Light,Helvetica" font-size="68.8" fill="#FEFFFF" transform="matrix(1.00, 0.00, -0.00, -1.00, 722.0, 15.8)">e</text><text xml:space="preserve" font-family="Helvetica-Light,Helvetica" font-size="68.8" fill="#FEFFFF" transform="matrix(1.00, 0.00, -0.00, -1.00, 760.2, 15.8)">s</text><text xml:space="preserve" font-family="Helvetica-Light,Helvetica" font-size="68.8" fill="#FEFFFF" transform="matrix(1.00, 0.00, -0.00, -1.00, 794.6, 15.8)">s</text><text xml:space="preserve" font-family="Helvetica-Light,Helvetica" font-size="68.8" fill="#FEFFFF" transform="matrix(1.00, 0.00, -0.00, -1.00, 829.0, 15.8)">?</text></g></svg>