<?xml version="1.0" encoding="UTF-8" standalone="no"?><svg xmlns="http://www.w3.org/2000/svg" xmlns:xlink="http://www.w3.org/1999/xlink" clip-rule="evenodd" stroke-miterlimit="10" viewBox="0 0 1024 768"><desc>SVG generated by Keynote</desc><defs></defs><g transform="matrix(1.00, 0.00, -0.00, -1.00, 0.0, 768.0)"><path d="M 0.0 768.0 L 1024.0 768.0 L 1024.0 0.0 L 0.0 0.0 Z M 0.0 768.0 " fill="#000000"></path><text xml:space="preserve" font-family="Helvetica-Light,Helvetica" font-size="68.8" fill="#FEFFFF" transform="matrix(1.00, 0.00, -0.00, -1.00, 158.9, 597.4)">B</text><text xml:space="preserve" font-family="Helvetica-Light,Helvetica" font-size="68.8" fill="#FEFFFF" transform="matrix(1.00, 0.00, -0.00, -1.00, 204.8, 597.4)">e</text><text xml:space="preserve" font-family="Helvetica-Light,Helvetica" font-size="68.8" fill="#FEFFFF" transform="matrix(1.00, 0.00, -0.00, -1.00, 243.1, 597.4)">w</text><text xml:space="preserve" font-family="Helvetica-Light,Helvetica" font-size="68.8" fill="#FEFFFF" transform="matrix(1.00, 0.00, -0.00, -1.00, 292.7, 597.4)">a</text><text xml:space="preserve" font-family="Helvetica-Light,Helvetica" font-size="68.8" fill="#FEFFFF" transform="matrix(1.00, 0.00, -0.00, -1.00, 331.0, 597.4)">r</text><text xml:space="preserve" font-family="Helvetica-Light,Helvetica" font-size="68.8" fill="#FEFFFF" transform="matrix(1.00, 0.00, -0.00, -1.00, 352.7, 597.4)">e</text><text xml:space="preserve" font-family="Helvetica-Light,Helvetica" font-size="68.8" fill="#FEFFFF" transform="matrix(1.00, 0.00, -0.00, -1.00, 390.9, 597.4)"> </text><text xml:space="preserve" font-family="Helvetica-Light,Helvetica" font-size="68.8" fill="#FEFFFF" transform="matrix(1.00, 0.00, -0.00, -1.00, 410.0, 597.4)">o</text><text xml:space="preserve" font-family="Helvetica-Light,Helvetica" font-size="68.8" fill="#FEFFFF" transform="matrix(1.00, 0.00, -0.00, -1.00, 448.3, 597.4)">f</text><text xml:space="preserve" font-family="Helvetica-Light,Helvetica" font-size="68.8" fill="#FEFFFF" transform="matrix(1.00, 0.00, -0.00, -1.00, 467.4, 597.4)"> </text><text xml:space="preserve" font-family="Helvetica-Light,Helvetica" font-size="68.8" fill="#FEFFFF" transform="matrix(1.00, 0.00, -0.00, -1.00, 486.5, 597.4)">C</text><text xml:space="preserve" font-family="Helvetica-Light,Helvetica" font-size="68.8" fill="#FEFFFF" transform="matrix(1.00, 0.00, -0.00, -1.00, 536.2, 597.4)">o</text><text xml:space="preserve" font-family="Helvetica-Light,Helvetica" font-size="68.8" fill="#FEFFFF" transform="matrix(1.00, 0.00, -0.00, -1.00, 574.5, 597.4)">n</text><text xml:space="preserve" font-family="Helvetica-Light,Helvetica" font-size="68.8" fill="#FEFFFF" transform="matrix(1.00, 0.00, -0.00, -1.00, 612.7, 597.4)">s</text><text xml:space="preserve" font-family="Helvetica-Light,Helvetica" font-size="68.8" fill="#FEFFFF" transform="matrix(1.00, 0.00, -0.00, -1.00, 647.1, 597.4)">i</text><text xml:space="preserve" font-family="Helvetica-Light,Helvetica" font-size="68.8" fill="#FEFFFF" transform="matrix(1.00, 0.00, -0.00, -1.00, 662.4, 597.4)">s</text><text xml:space="preserve" font-family="Helvetica-Light,Helvetica" font-size="68.8" fill="#FEFFFF" transform="matrix(1.00, 0.00, -0.00, -1.00, 696.8, 597.4)">t</text><text xml:space="preserve" font-family="Helvetica-Light,Helvetica" font-size="68.8" fill="#FEFFFF" transform="matrix(1.00, 0.00, -0.00, -1.00, 715.9, 597.4)">e</text><text xml:space="preserve" font-family="Helvetica-Light,Helvetica" font-size="68.8" fill="#FEFFFF" transform="matrix(1.00, 0.00, -0.00, -1.00, 754.2, 597.4)">n</text><text xml:space="preserve" font-family="Helvetica-Light,Helvetica" font-size="68.8" fill="#FEFFFF" transform="matrix(1.00, 0.00, -0.00, -1.00, 792.4, 597.4)">c</text><text xml:space="preserve" font-family="Helvetica-Light,Helvetica" font-size="68.8" fill="#FEFFFF" transform="matrix(1.00, 0.00, -0.00, -1.00, 830.7, 597.4)">y</text><text xml:space="preserve" font-family="Helvetica-Light,Helvetica" font-size="68.8" fill="#FEFFFF" transform="matrix(1.00, 0.00, -0.00, -1.00, 865.1, 597.4)"> </text><text xml:space="preserve" font-family="Helvetica-Light,Helvetica" font-size="68.8" fill="#FEFFFF" transform="matrix(1.00, 0.00, -0.00, -1.00, 171.7, 457.7)">A</text><text xml:space="preserve" font-family="Helvetica-Light,Helvetica" font-size="68.8" fill="#FEFFFF" transform="matrix(1.00, 0.00, -0.00, -1.00, 217.6, 457.7)">i</text><text xml:space="preserve" font-family="Helvetica-Light,Helvetica" font-size="68.8" fill="#FEFFFF" transform="matrix(1.00, 0.00, -0.00, -1.00, 232.9, 457.7)">m</text><text xml:space="preserve" font-family="Helvetica-Light,Helvetica" font-size="68.8" fill="#FEFFFF" transform="matrix(1.00, 0.00, -0.00, -1.00, 290.2, 457.7)"> </text><text xml:space="preserve" font-family="Helvetica-Light,Helvetica" font-size="68.8" fill="#FEFFFF" transform="matrix(1.00, 0.00, -0.00, -1.00, 309.3, 457.7)">f</text><text xml:space="preserve" font-family="Helvetica-Light,Helvetica" font-size="68.8" fill="#FEFFFF" transform="matrix(1.00, 0.00, -0.00, -1.00, 328.4, 457.7)">o</text><text xml:space="preserve" font-family="Helvetica-Light,Helvetica" font-size="68.8" fill="#FEFFFF" transform="matrix(1.00, 0.00, -0.00, -1.00, 366.7, 457.7)">r</text><text xml:space="preserve" font-family="Helvetica-Light,Helvetica" font-size="68.8" fill="#FEFFFF" transform="matrix(1.00, 0.00, -0.00, -1.00, 389.6, 457.7)"> </text><text xml:space="preserve" font-family="Helvetica-Light,Helvetica" font-size="68.8" fill="#FEFFFF" transform="matrix(1.00, 0.00, -0.00, -1.00, 408.7, 457.7)">I</text><text xml:space="preserve" font-family="Helvetica-Light,Helvetica" font-size="68.8" fill="#FEFFFF" transform="matrix(1.00, 0.00, -0.00, -1.00, 427.9, 457.7)">n</text><text xml:space="preserve" font-family="Helvetica-Light,Helvetica" font-size="68.8" fill="#FEFFFF" transform="matrix(1.00, 0.00, -0.00, -1.00, 466.1, 457.7)">d</text><text xml:space="preserve" font-family="Helvetica-Light,Helvetica" font-size="68.8" fill="#FEFFFF" transform="matrix(1.00, 0.00, -0.00, -1.00, 508.1, 457.7)">e</text><text xml:space="preserve" font-family="Helvetica-Light,Helvetica" font-size="68.8" fill="#FEFFFF" transform="matrix(1.00, 0.00, -0.00, -1.00, 546.4, 457.7)">p</text><text xml:space="preserve" font-family="Helvetica-Light,Helvetica" font-size="68.8" fill="#FEFFFF" transform="matrix(1.00, 0.00, -0.00, -1.00, 588.4, 457.7)">e</text><text xml:space="preserve" font-family="Helvetica-Light,Helvetica" font-size="68.8" fill="#FEFFFF" transform="matrix(1.00, 0.00, -0.00, -1.00, 626.7, 457.7)">n</text><text xml:space="preserve" font-family="Helvetica-Light,Helvetica" font-size="68.8" fill="#FEFFFF" transform="matrix(1.00, 0.00, -0.00, -1.00, 664.9, 457.7)">d</text><text xml:space="preserve" font-family="Helvetica-Light,Helvetica" font-size="68.8" fill="#FEFFFF" transform="matrix(1.00, 0.00, -0.00, -1.00, 707.0, 457.7)">e</text><text xml:space="preserve" font-family="Helvetica-Light,Helvetica" font-size="68.8" fill="#FEFFFF" transform="matrix(1.00, 0.00, -0.00, -1.00, 745.2, 457.7)">n</text><text xml:space="preserve" font-family="Helvetica-Light,Helvetica" font-size="68.8" fill="#FEFFFF" transform="matrix(1.00, 0.00, -0.00, -1.00, 783.5, 457.7)">t</text><text xml:space="preserve" font-family="Helvetica-Light,Helvetica" font-size="68.8" fill="#FEFFFF" transform="matrix(1.00, 0.00, -0.00, -1.00, 802.6, 457.7)">l</text><text xml:space="preserve" font-family="Helvetica-Light,Helvetica" font-size="68.8" fill="#FEFFFF" transform="matrix(1.00, 0.00, -0.00, -1.00, 817.9, 457.7)">y</text><text xml:space="preserve" font-family="Helvetica-Light,Helvetica" font-size="68.8" fill="#FEFFFF" transform="matrix(1.00, 0.00, -0.00, -1.00, 852.3, 457.7)"> </text><text xml:space="preserve" font-family="Helvetica-Light,Helvetica" font-size="68.8" fill="#FEFFFF" transform="matrix(1.00, 0.00, -0.00, -1.00, 293.5, 374.7)">E</text><text xml:space="preserve" font-family="Helvetica-Light,Helvetica" font-size="68.8" fill="#FEFFFF" transform="matrix(1.00, 0.00, -0.00, -1.00, 335.5, 374.7)">v</text><text xml:space="preserve" font-family="Helvetica-Light,Helvetica" font-size="68.8" fill="#FEFFFF" transform="matrix(1.00, 0.00, -0.00, -1.00, 369.9, 374.7)">o</text><text xml:space="preserve" font-family="Helvetica-Light,Helvetica" font-size="68.8" fill="#FEFFFF" transform="matrix(1.00, 0.00, -0.00, -1.00, 408.2, 374.7)">l</text><text xml:space="preserve" font-family="Helvetica-Light,Helvetica" font-size="68.8" fill="#FEFFFF" transform="matrix(1.00, 0.00, -0.00, -1.00, 423.5, 374.7)">v</text><text xml:space="preserve" font-family="Helvetica-Light,Helvetica" font-size="68.8" fill="#FEFFFF" transform="matrix(1.00, 0.00, -0.00, -1.00, 457.9, 374.7)">i</text><text xml:space="preserve" font-family="Helvetica-Light,Helvetica" font-size="68.8" fill="#FEFFFF" transform="matrix(1.00, 0.00, -0.00, -1.00, 473.1, 374.7)">n</text><text xml:space="preserve" font-family="Helvetica-Light,Helvetica" font-size="68.8" fill="#FEFFFF" transform="matrix(1.00, 0.00, -0.00, -1.00, 511.4, 374.7)">g</text><text xml:space="preserve" font-family="Helvetica-Light,Helvetica" font-size="68.8" fill="#FEFFFF" transform="matrix(1.00, 0.00, -0.00, -1.00, 553.4, 374.7)"> </text><text xml:space="preserve" font-family="Helvetica-Light,Helvetica" font-size="68.8" fill="#FEFFFF" transform="matrix(1.00, 0.00, -0.00, -1.00, 572.5, 374.7)">P</text><text xml:space="preserve" font-family="Helvetica-Light,Helvetica" font-size="68.8" fill="#FEFFFF" transform="matrix(1.00, 0.00, -0.00, -1.00, 614.6, 374.7)">a</text><text xml:space="preserve" font-family="Helvetica-Light,Helvetica" font-size="68.8" fill="#FEFFFF" transform="matrix(1.00, 0.00, -0.00, -1.00, 652.8, 374.7)">r</text><text xml:space="preserve" font-family="Helvetica-Light,Helvetica" font-size="68.8" fill="#FEFFFF" transform="matrix(1.00, 0.00, -0.00, -1.00, 677.0, 374.7)">t</text><text xml:space="preserve" font-family="Helvetica-Light,Helvetica" font-size="68.8" fill="#FEFFFF" transform="matrix(1.00, 0.00, -0.00, -1.00, 696.1, 374.7)">s</text><text xml:space="preserve" font-family="Helvetica-Light,Helvetica" font-size="68.8" fill="#FEFFFF" transform="matrix(1.00, 0.00, -0.00, -1.00, 730.5, 374.7)"> </text><text xml:space="preserve" font-family="Helvetica-Light,Helvetica" font-size="68.8" fill="#FEFFFF" transform="matrix(1.00, 0.00, -0.00, -1.00, 229.7, 234.9)">S</text><text xml:space="preserve" font-family="Helvetica-Light,Helvetica" font-size="68.8" fill="#FEFFFF" transform="matrix(1.00, 0.00, -0.00, -1.00, 271.7, 234.9)">h</text><text xml:space="preserve" font-family="Helvetica-Light,Helvetica" font-size="68.8" fill="#FEFFFF" transform="matrix(1.00, 0.00, -0.00, -1.00, 310.0, 234.9)">a</text><text xml:space="preserve" font-family="Helvetica-Light,Helvetica" font-size="68.8" fill="#FEFFFF" transform="matrix(1.00, 0.00, -0.00, -1.00, 348.2, 234.9)">r</text><text xml:space="preserve" font-family="Helvetica-Light,Helvetica" font-size="68.8" fill="#FEFFFF" transform="matrix(1.00, 0.00, -0.00, -1.00, 369.9, 234.9)">e</text><text xml:space="preserve" font-family="Helvetica-Light,Helvetica" font-size="68.8" fill="#FEFFFF" transform="matrix(1.00, 0.00, -0.00, -1.00, 408.1, 234.9)"> </text><text xml:space="preserve" font-family="Helvetica-Light,Helvetica" font-size="68.8" fill="#FEFFFF" transform="matrix(1.00, 0.00, -0.00, -1.00, 427.3, 234.9)">K</text><text xml:space="preserve" font-family="Helvetica-Light,Helvetica" font-size="68.8" fill="#FEFFFF" transform="matrix(1.00, 0.00, -0.00, -1.00, 473.2, 234.9)">n</text><text xml:space="preserve" font-family="Helvetica-Light,Helvetica" font-size="68.8" fill="#FEFFFF" transform="matrix(1.00, 0.00, -0.00, -1.00, 511.4, 234.9)">o</text><text xml:space="preserve" font-family="Helvetica-Light,Helvetica" font-size="68.8" fill="#FEFFFF" transform="matrix(1.00, 0.00, -0.00, -1.00, 549.7, 234.9)">w</text><text xml:space="preserve" font-family="Helvetica-Light,Helvetica" font-size="68.8" fill="#FEFFFF" transform="matrix(1.00, 0.00, -0.00, -1.00, 599.3, 234.9)">l</text><text xml:space="preserve" font-family="Helvetica-Light,Helvetica" font-size="68.8" fill="#FEFFFF" transform="matrix(1.00, 0.00, -0.00, -1.00, 614.6, 234.9)">e</text><text xml:space="preserve" font-family="Helvetica-Light,Helvetica" font-size="68.8" fill="#FEFFFF" transform="matrix(1.00, 0.00, -0.00, -1.00, 652.9, 234.9)">d</text><text xml:space="preserve" font-family="Helvetica-Light,Helvetica" font-size="68.8" fill="#FEFFFF" transform="matrix(1.00, 0.00, -0.00, -1.00, 694.9, 234.9)">g</text><text xml:space="preserve" font-family="Helvetica-Light,Helvetica" font-size="68.8" fill="#FEFFFF" transform="matrix(1.00, 0.00, -0.00, -1.00, 736.9, 234.9)">e</text><text xml:space="preserve" font-family="Helvetica-Light,Helvetica" font-size="68.8" fill="#FEFFFF" transform="matrix(1.00, 0.00, -0.00, -1.00, 775.2, 234.9)">,</text><text xml:space="preserve" font-family="Helvetica-Light,Helvetica" font-size="68.8" fill="#FEFFFF" transform="matrix(1.00, 0.00, -0.00, -1.00, 794.3, 234.9)"> </text><text xml:space="preserve" font-family="Helvetica-Light,Helvetica" font-size="68.8" fill="#FEFFFF" transform="matrix(1.00, 0.00, -0.00, -1.00, 240.5, 151.9)">P</text><text xml:space="preserve" font-family="Helvetica-Light,Helvetica" font-size="68.8" fill="#FEFFFF" transform="matrix(1.00, 0.00, -0.00, -1.00, 282.6, 151.9)">r</text><text xml:space="preserve" font-family="Helvetica-Light,Helvetica" font-size="68.8" fill="#FEFFFF" transform="matrix(1.00, 0.00, -0.00, -1.00, 305.5, 151.9)">a</text><text xml:space="preserve" font-family="Helvetica-Light,Helvetica" font-size="68.8" fill="#FEFFFF" transform="matrix(1.00, 0.00, -0.00, -1.00, 343.7, 151.9)">c</text><text xml:space="preserve" font-family="Helvetica-Light,Helvetica" font-size="68.8" fill="#FEFFFF" transform="matrix(1.00, 0.00, -0.00, -1.00, 382.0, 151.9)">t</text><text xml:space="preserve" font-family="Helvetica-Light,Helvetica" font-size="68.8" fill="#FEFFFF" transform="matrix(1.00, 0.00, -0.00, -1.00, 401.1, 151.9)">i</text><text xml:space="preserve" font-family="Helvetica-Light,Helvetica" font-size="68.8" fill="#FEFFFF" transform="matrix(1.00, 0.00, -0.00, -1.00, 416.4, 151.9)">c</text><text xml:space="preserve" font-family="Helvetica-Light,Helvetica" font-size="68.8" fill="#FEFFFF" transform="matrix(1.00, 0.00, -0.00, -1.00, 454.6, 151.9)">e</text><text xml:space="preserve" font-family="Helvetica-Light,Helvetica" font-size="68.8" fill="#FEFFFF" transform="matrix(1.00, 0.00, -0.00, -1.00, 492.9, 151.9)">s</text><text xml:space="preserve" font-family="Helvetica-Light,Helvetica" font-size="68.8" fill="#FEFFFF" transform="matrix(1.00, 0.00, -0.00, -1.00, 527.3, 151.9)"> </text><text xml:space="preserve" font-family="Helvetica-Light,Helvetica" font-size="68.8" fill="#FEFFFF" transform="matrix(1.00, 0.00, -0.00, -1.00, 546.4, 151.9)">&amp;</text><text xml:space="preserve" font-family="Helvetica-Light,Helvetica" font-size="68.8" fill="#FEFFFF" transform="matrix(1.00, 0.00, -0.00, -1.00, 592.3, 151.9)"> </text><text xml:space="preserve" font-family="Helvetica-Light,Helvetica" font-size="68.8" fill="#FEFFFF" transform="matrix(1.00, 0.00, -0.00, -1.00, 611.4, 151.9)">I</text><text xml:space="preserve" font-family="Helvetica-Light,Helvetica" font-size="68.8" fill="#FEFFFF" transform="matrix(1.00, 0.00, -0.00, -1.00, 630.5, 151.9)">d</text><text xml:space="preserve" font-family="Helvetica-Light,Helvetica" font-size="68.8" fill="#FEFFFF" transform="matrix(1.00, 0.00, -0.00, -1.00, 672.6, 151.9)">e</text><text xml:space="preserve" font-family="Helvetica-Light,Helvetica" font-size="68.8" fill="#FEFFFF" transform="matrix(1.00, 0.00, -0.00, -1.00, 710.8, 151.9)">a</text><text xml:space="preserve" font-family="Helvetica-Light,Helvetica" font-size="68.8" fill="#FEFFFF" transform="matrix(1.00, 0.00, -0.00, -1.00, 749.1, 151.9)">s</text></g></svg>