<?xml version="1.0" encoding="UTF-8" standalone="no"?><svg xmlns="http://www.w3.org/2000/svg" xmlns:xlink="http://www.w3.org/1999/xlink" clip-rule="evenodd" stroke-miterlimit="10" viewBox="0 0 1024 768"><desc>SVG generated by Keynote</desc><defs><linearGradient id="gradSh1.4" x1="0.0" y1="0.0" x2="100.0" y2="0.0" gradientUnits="userSpaceOnUse" gradientTransform="matrix(0.00, -1.02, -1.02, 0.00, 263.6, 612.5)"><stop offset="0.00000" stop-color="#189B1A"></stop><stop offset="0.00660" stop-color="#189A1A"></stop><stop offset="0.69355" stop-color="#207010"></stop><stop offset="0.70015" stop-color="#206F10"></stop><stop offset="0.70308" stop-color="#206F0F"></stop><stop offset="0.71628" stop-color="#206E0F"></stop><stop offset="1.00000" stop-color="#235D0B"></stop></linearGradient><linearGradient id="gradSh1.5" x1="0.0" y1="0.0" x2="100.0" y2="0.0" gradientUnits="userSpaceOnUse" gradientTransform="matrix(0.00, -1.02, -1.02, 0.00, 760.4, 612.5)"><stop offset="0.00000" stop-color="#189B1A"></stop><stop offset="0.00660" stop-color="#189A1A"></stop><stop offset="0.69355" stop-color="#207010"></stop><stop offset="0.70015" stop-color="#206F10"></stop><stop offset="0.70308" stop-color="#206F0F"></stop><stop offset="0.71628" stop-color="#206E0F"></stop><stop offset="1.00000" stop-color="#235D0B"></stop></linearGradient></defs><g transform="matrix(1.00, 0.00, -0.00, -1.00, 0.0, 768.0)"><path d="M 0.0 768.0 L 1024.0 768.0 L 1024.0 0.0 L 0.0 0.0 Z M 0.0 768.0 " fill="#000000"></path><g><clipPath id="clip0x6180022bb3c0"><path d="M 298.9 596.9 C 318.4 577.4 318.4 545.7 298.9 526.2 C 279.4 506.7 247.7 506.7 228.2 526.2 C 208.7 545.7 208.7 577.4 228.2 596.9 C 247.7 616.4 279.4 616.4 298.9 596.9 Z M 298.9 596.9 "></path></clipPath><g clip-path="url(#clip0x6180022bb3c0)"><path d="M 298.9 596.9 C 318.4 577.4 318.4 545.7 298.9 526.2 C 279.4 506.7 247.7 506.7 228.2 526.2 C 208.7 545.7 208.7 577.4 228.2 596.9 C 247.7 616.4 279.4 616.4 298.9 596.9 Z M 298.9 596.9 " fill="url(#gradSh1.4)"></path></g></g><g><clipPath id="clip0x6180024bbc60"><path d="M 795.8 596.9 C 815.3 577.4 815.3 545.7 795.8 526.2 C 776.3 506.7 744.6 506.7 725.1 526.2 C 705.6 545.7 705.6 577.4 725.1 596.9 C 744.6 616.4 776.3 616.4 795.8 596.9 Z M 795.8 596.9 "></path></clipPath><g clip-path="url(#clip0x6180024bbc60)"><path d="M 795.8 596.9 C 815.3 577.4 815.3 545.7 795.8 526.2 C 776.3 506.7 744.6 506.7 725.1 526.2 C 705.6 545.7 705.6 577.4 725.1 596.9 C 744.6 616.4 776.3 616.4 795.8 596.9 Z M 795.8 596.9 " fill="url(#gradSh1.5)"></path></g></g><path d="M 0.0 27.7 C 133.8 -9.2 267.6 -9.2 401.3 27.7 " fill="none" stroke="#FEFFFE" stroke-width="2.00" transform="matrix(1.00, 0.00, 0.00, -1.00, 311.3, 604.0)"></path><text xml:space="preserve" font-family="Helvetica-Light,Helvetica" font-size="60.0" fill="#FEFFFF" transform="matrix(1.00, 0.00, -0.00, -1.00, 298.6, 679.2)">2</text><text xml:space="preserve" font-family="Helvetica-Light,Helvetica" font-size="60.0" fill="#FEFFFF" transform="matrix(1.00, 0.00, -0.00, -1.00, 331.9, 679.2)"> </text><text xml:space="preserve" font-family="Helvetica-Light,Helvetica" font-size="60.0" fill="#FEFFFF" transform="matrix(1.00, 0.00, -0.00, -1.00, 348.6, 679.2)">p</text><text xml:space="preserve" font-family="Helvetica-Light,Helvetica" font-size="60.0" fill="#FEFFFF" transform="matrix(1.00, 0.00, -0.00, -1.00, 385.3, 679.2)">e</text><text xml:space="preserve" font-family="Helvetica-Light,Helvetica" font-size="60.0" fill="#FEFFFF" transform="matrix(1.00, 0.00, -0.00, -1.00, 418.6, 679.2)">o</text><text xml:space="preserve" font-family="Helvetica-Light,Helvetica" font-size="60.0" fill="#FEFFFF" transform="matrix(1.00, 0.00, -0.00, -1.00, 452.0, 679.2)">p</text><text xml:space="preserve" font-family="Helvetica-Light,Helvetica" font-size="60.0" fill="#FEFFFF" transform="matrix(1.00, 0.00, -0.00, -1.00, 488.7, 679.2)">l</text><text xml:space="preserve" font-family="Helvetica-Light,Helvetica" font-size="60.0" fill="#FEFFFF" transform="matrix(1.00, 0.00, -0.00, -1.00, 502.0, 679.2)">e</text><text xml:space="preserve" font-family="Helvetica-Light,Helvetica" font-size="60.0" fill="#FEFFFF" transform="matrix(1.00, 0.00, -0.00, -1.00, 535.3, 679.2)"> </text><text xml:space="preserve" font-family="Helvetica-Light,Helvetica" font-size="60.0" fill="#FEFFFF" transform="matrix(1.00, 0.00, -0.00, -1.00, 552.0, 679.2)">:</text><text xml:space="preserve" font-family="Helvetica-Light,Helvetica" font-size="60.0" fill="#FEFFFF" transform="matrix(1.00, 0.00, -0.00, -1.00, 568.7, 679.2)"> </text><text xml:space="preserve" font-family="Helvetica-Light,Helvetica" font-size="60.0" fill="#FEFFFF" transform="matrix(1.00, 0.00, -0.00, -1.00, 585.4, 679.2)">1</text><text xml:space="preserve" font-family="Helvetica-Light,Helvetica" font-size="60.0" fill="#FEFFFF" transform="matrix(1.00, 0.00, -0.00, -1.00, 618.7, 679.2)"> </text><text xml:space="preserve" font-family="Helvetica-Light,Helvetica" font-size="60.0" fill="#FEFFFF" transform="matrix(1.00, 0.00, -0.00, -1.00, 635.4, 679.2)">l</text><text xml:space="preserve" font-family="Helvetica-Light,Helvetica" font-size="60.0" fill="#FEFFFF" transform="matrix(1.00, 0.00, -0.00, -1.00, 648.7, 679.2)">i</text><text xml:space="preserve" font-family="Helvetica-Light,Helvetica" font-size="60.0" fill="#FEFFFF" transform="matrix(1.00, 0.00, -0.00, -1.00, 662.1, 679.2)">n</text><text xml:space="preserve" font-family="Helvetica-Light,Helvetica" font-size="60.0" fill="#FEFFFF" transform="matrix(1.00, 0.00, -0.00, -1.00, 695.4, 679.2)">k</text></g></svg>