<?xml version="1.0" encoding="UTF-8" standalone="no"?><svg xmlns="http://www.w3.org/2000/svg" xmlns:xlink="http://www.w3.org/1999/xlink" clip-rule="evenodd" stroke-miterlimit="10" viewBox="0 0 1024 768"><desc>SVG generated by Keynote</desc><defs><linearGradient id="gradSh1.9" x1="0.0" y1="0.0" x2="100.0" y2="0.0" gradientUnits="userSpaceOnUse" gradientTransform="matrix(0.00, -1.02, -1.02, 0.00, 263.6, 612.5)"><stop offset="0.00000" stop-color="#189B1A"></stop><stop offset="0.00660" stop-color="#189A1A"></stop><stop offset="0.69355" stop-color="#207010"></stop><stop offset="0.70015" stop-color="#206F10"></stop><stop offset="0.70308" stop-color="#206F0F"></stop><stop offset="0.71628" stop-color="#206E0F"></stop><stop offset="1.00000" stop-color="#235D0B"></stop></linearGradient><linearGradient id="gradSh1.10" x1="0.0" y1="0.0" x2="100.0" y2="0.0" gradientUnits="userSpaceOnUse" gradientTransform="matrix(0.00, -1.02, -1.02, 0.00, 760.4, 612.5)"><stop offset="0.00000" stop-color="#189B1A"></stop><stop offset="0.00660" stop-color="#189A1A"></stop><stop offset="0.69355" stop-color="#207010"></stop><stop offset="0.70015" stop-color="#206F10"></stop><stop offset="0.70308" stop-color="#206F0F"></stop><stop offset="0.71628" stop-color="#206E0F"></stop><stop offset="1.00000" stop-color="#235D0B"></stop></linearGradient><linearGradient id="gradSh1.11" x1="0.0" y1="0.0" x2="100.0" y2="0.0" gradientUnits="userSpaceOnUse" gradientTransform="matrix(0.00, -1.02, -1.02, 0.00, 512.0, 277.0)"><stop offset="0.00000" stop-color="#189B1A"></stop><stop offset="0.00660" stop-color="#189A1A"></stop><stop offset="0.69355" stop-color="#207010"></stop><stop offset="0.70015" stop-color="#206F10"></stop><stop offset="0.70308" stop-color="#206F0F"></stop><stop offset="0.71628" stop-color="#206E0F"></stop><stop offset="1.00000" stop-color="#235D0B"></stop></linearGradient></defs><g transform="matrix(1.00, 0.00, -0.00, -1.00, 0.0, 768.0)"><path d="M 0.0 768.0 L 1024.0 768.0 L 1024.0 0.0 L 0.0 0.0 Z M 0.0 768.0 " fill="#000000"></path><g><clipPath id="clip0x6180026bd7c0"><path d="M 298.9 596.9 C 318.4 577.4 318.4 545.7 298.9 526.2 C 279.4 506.7 247.7 506.7 228.2 526.2 C 208.7 545.7 208.7 577.4 228.2 596.9 C 247.7 616.4 279.4 616.4 298.9 596.9 Z M 298.9 596.9 "></path></clipPath><g clip-path="url(#clip0x6180026bd7c0)"><path d="M 298.9 596.9 C 318.4 577.4 318.4 545.7 298.9 526.2 C 279.4 506.7 247.7 506.7 228.2 526.2 C 208.7 545.7 208.7 577.4 228.2 596.9 C 247.7 616.4 279.4 616.4 298.9 596.9 Z M 298.9 596.9 " fill="url(#gradSh1.9)"></path></g></g><g><clipPath id="clip0x6180028bdee0"><path d="M 795.8 596.9 C 815.3 577.4 815.3 545.7 795.8 526.2 C 776.3 506.7 744.6 506.7 725.1 526.2 C 705.6 545.7 705.6 577.4 725.1 596.9 C 744.6 616.4 776.3 616.4 795.8 596.9 Z M 795.8 596.9 "></path></clipPath><g clip-path="url(#clip0x6180028bdee0)"><path d="M 795.8 596.9 C 815.3 577.4 815.3 545.7 795.8 526.2 C 776.3 506.7 744.6 506.7 725.1 526.2 C 705.6 545.7 705.6 577.4 725.1 596.9 C 744.6 616.4 776.3 616.4 795.8 596.9 Z M 795.8 596.9 " fill="url(#gradSh1.10)"></path></g></g><path d="M 0.0 27.7 C 133.8 -9.2 267.6 -9.2 401.3 27.7 " fill="none" stroke="#FEFFFE" stroke-width="2.00" transform="matrix(1.00, 0.00, 0.00, -1.00, 311.3, 604.0)"></path><g><clipPath id="clip0x618002abe1e0"><path d="M 547.4 261.4 C 566.9 241.9 566.9 210.2 547.4 190.7 C 527.8 171.2 496.2 171.2 476.6 190.7 C 457.1 210.2 457.1 241.9 476.6 261.4 C 496.2 280.9 527.8 280.9 547.4 261.4 Z M 547.4 261.4 "></path></clipPath><g clip-path="url(#clip0x618002abe1e0)"><path d="M 547.4 261.4 C 566.9 241.9 566.9 210.2 547.4 190.7 C 527.8 171.2 496.2 171.2 476.6 190.7 C 457.1 210.2 457.1 241.9 476.6 261.4 C 496.2 280.9 527.8 280.9 547.4 261.4 Z M 547.4 261.4 " fill="url(#gradSh1.11)"></path></g></g><path d="M 0.0 0.0 C 91.4 66.4 155.6 153.1 192.5 259.9 " fill="none" stroke="#FEFFFE" stroke-width="2.00" transform="matrix(1.00, 0.00, 0.00, -1.00, 305.2, 533.8)"></path><path d="M 0.0 259.9 C 36.9 153.1 101.0 66.4 192.5 0.0 " fill="none" stroke="#FEFFFE" stroke-width="2.00" transform="matrix(1.00, 0.00, 0.00, -1.00, 526.4, 533.8)"></path><text xml:space="preserve" font-family="Helvetica-Light,Helvetica" font-size="60.0" fill="#FEFFFF" transform="matrix(1.00, 0.00, -0.00, -1.00, 283.6, 679.2)">3</text><text xml:space="preserve" font-family="Helvetica-Light,Helvetica" font-size="60.0" fill="#FEFFFF" transform="matrix(1.00, 0.00, -0.00, -1.00, 316.9, 679.2)"> </text><text xml:space="preserve" font-family="Helvetica-Light,Helvetica" font-size="60.0" fill="#FEFFFF" transform="matrix(1.00, 0.00, -0.00, -1.00, 333.6, 679.2)">p</text><text xml:space="preserve" font-family="Helvetica-Light,Helvetica" font-size="60.0" fill="#FEFFFF" transform="matrix(1.00, 0.00, -0.00, -1.00, 370.3, 679.2)">e</text><text xml:space="preserve" font-family="Helvetica-Light,Helvetica" font-size="60.0" fill="#FEFFFF" transform="matrix(1.00, 0.00, -0.00, -1.00, 403.6, 679.2)">o</text><text xml:space="preserve" font-family="Helvetica-Light,Helvetica" font-size="60.0" fill="#FEFFFF" transform="matrix(1.00, 0.00, -0.00, -1.00, 437.0, 679.2)">p</text><text xml:space="preserve" font-family="Helvetica-Light,Helvetica" font-size="60.0" fill="#FEFFFF" transform="matrix(1.00, 0.00, -0.00, -1.00, 473.7, 679.2)">l</text><text xml:space="preserve" font-family="Helvetica-Light,Helvetica" font-size="60.0" fill="#FEFFFF" transform="matrix(1.00, 0.00, -0.00, -1.00, 487.0, 679.2)">e</text><text xml:space="preserve" font-family="Helvetica-Light,Helvetica" font-size="60.0" fill="#FEFFFF" transform="matrix(1.00, 0.00, -0.00, -1.00, 520.3, 679.2)"> </text><text xml:space="preserve" font-family="Helvetica-Light,Helvetica" font-size="60.0" fill="#FEFFFF" transform="matrix(1.00, 0.00, -0.00, -1.00, 537.0, 679.2)">:</text><text xml:space="preserve" font-family="Helvetica-Light,Helvetica" font-size="60.0" fill="#FEFFFF" transform="matrix(1.00, 0.00, -0.00, -1.00, 553.7, 679.2)"> </text><text xml:space="preserve" font-family="Helvetica-Light,Helvetica" font-size="60.0" fill="#FEFFFF" transform="matrix(1.00, 0.00, -0.00, -1.00, 570.4, 679.2)">3</text><text xml:space="preserve" font-family="Helvetica-Light,Helvetica" font-size="60.0" fill="#FEFFFF" transform="matrix(1.00, 0.00, -0.00, -1.00, 603.7, 679.2)"> </text><text xml:space="preserve" font-family="Helvetica-Light,Helvetica" font-size="60.0" fill="#FEFFFF" transform="matrix(1.00, 0.00, -0.00, -1.00, 620.4, 679.2)">l</text><text xml:space="preserve" font-family="Helvetica-Light,Helvetica" font-size="60.0" fill="#FEFFFF" transform="matrix(1.00, 0.00, -0.00, -1.00, 633.7, 679.2)">i</text><text xml:space="preserve" font-family="Helvetica-Light,Helvetica" font-size="60.0" fill="#FEFFFF" transform="matrix(1.00, 0.00, -0.00, -1.00, 647.1, 679.2)">n</text><text xml:space="preserve" font-family="Helvetica-Light,Helvetica" font-size="60.0" fill="#FEFFFF" transform="matrix(1.00, 0.00, -0.00, -1.00, 680.4, 679.2)">k</text><text xml:space="preserve" font-family="Helvetica-Light,Helvetica" font-size="60.0" fill="#FEFFFF" transform="matrix(1.00, 0.00, -0.00, -1.00, 710.4, 679.2)">s</text></g></svg>