<?xml version="1.0" encoding="UTF-8" standalone="no"?><svg xmlns="http://www.w3.org/2000/svg" xmlns:xlink="http://www.w3.org/1999/xlink" clip-rule="evenodd" stroke-miterlimit="10" viewBox="0 0 1024 768"><desc>SVG generated by Keynote</desc><defs></defs><g transform="matrix(1.00, 0.00, -0.00, -1.00, 0.0, 768.0)"><path d="M 0.0 768.0 L 1024.0 768.0 L 1024.0 0.0 L 0.0 0.0 Z M 0.0 768.0 " fill="#000000"></path><g><clipPath id="clip0x608004cbaa00"><path d="M 0.0 768.0 L 1024.0 768.0 L 1024.0 0.0 L 0.0 0.0 Z M -0.2 768.0 "></path></clipPath><g clip-path="url(#clip0x608004cbaa00)"><image xlink:href="29A442D6EEBD29F957649BD3DD3834A8.jpeg" width="2448.00" height="3264.00" transform="matrix(0.44, 0.00, -0.00, -0.44, -29.0, 1173.0)"></image></g></g><image xlink:href="A9D036DD42DAE750727A46D1E8BAE5C7.png" width="236.00" height="103.00" transform="matrix(1.00, 0.00, -0.00, -1.00, 400.0, 429.0)"></image><text xml:space="preserve" font-family="Helvetica-Light,Helvetica" font-size="128.0" fill="#FEFFFF" transform="matrix(1.00, 0.00, -0.00, -1.00, 391.0, 336.4)">F</text><text xml:space="preserve" font-family="Helvetica-Light,Helvetica" font-size="128.0" fill="#FEFFFF" transform="matrix(1.00, 0.00, -0.00, -1.00, 462.2, 336.4)">i</text><text xml:space="preserve" font-family="Helvetica-Light,Helvetica" font-size="128.0" fill="#FEFFFF" transform="matrix(1.00, 0.00, -0.00, -1.00, 490.6, 336.4)">n</text><text xml:space="preserve" font-family="Helvetica-Light,Helvetica" font-size="128.0" fill="#FEFFFF" transform="matrix(1.00, 0.00, -0.00, -1.00, 561.8, 336.4)">e</text></g></svg>