<?xml version="1.0" encoding="UTF-8" standalone="no"?><svg xmlns="http://www.w3.org/2000/svg" xmlns:xlink="http://www.w3.org/1999/xlink" clip-rule="evenodd" stroke-miterlimit="10" viewBox="0 0 1024 768"><desc>SVG generated by Keynote</desc><defs></defs><g transform="matrix(1.00, 0.00, -0.00, -1.00, 0.0, 768.0)"><path d="M 0.0 768.0 L 1024.0 768.0 L 1024.0 0.0 L 0.0 0.0 Z M 0.0 768.0 " fill="#000000"></path><text xml:space="preserve" font-family="Helvetica-Light,Helvetica" font-size="68.8" fill="#FEFFFF" transform="matrix(1.00, 0.00, -0.00, -1.00, 80.6, 636.8)">W</text><text xml:space="preserve" font-family="Helvetica-Light,Helvetica" font-size="68.8" fill="#FEFFFF" transform="matrix(1.00, 0.00, -0.00, -1.00, 141.7, 636.8)">h</text><text xml:space="preserve" font-family="Helvetica-Light,Helvetica" font-size="68.8" fill="#FEFFFF" transform="matrix(1.00, 0.00, -0.00, -1.00, 180.0, 636.8)">a</text><text xml:space="preserve" font-family="Helvetica-Light,Helvetica" font-size="68.8" fill="#FEFFFF" transform="matrix(1.00, 0.00, -0.00, -1.00, 218.2, 636.8)">t</text><text xml:space="preserve" font-family="Helvetica-Light,Helvetica" font-size="68.8" fill="#FEFFFF" transform="matrix(1.00, 0.00, -0.00, -1.00, 237.4, 636.8)"> </text><text xml:space="preserve" font-family="Helvetica-Light,Helvetica" font-size="68.8" fill="#FEFFFF" transform="matrix(1.00, 0.00, -0.00, -1.00, 256.5, 636.8)">i</text><text xml:space="preserve" font-family="Helvetica-Light,Helvetica" font-size="68.8" fill="#FEFFFF" transform="matrix(1.00, 0.00, -0.00, -1.00, 271.8, 636.8)">s</text><text xml:space="preserve" font-family="Helvetica-Light,Helvetica" font-size="68.8" fill="#FEFFFF" transform="matrix(1.00, 0.00, -0.00, -1.00, 306.2, 636.8)"> </text><text xml:space="preserve" font-family="Helvetica-Light,Helvetica" font-size="68.8" fill="#FEFFFF" transform="matrix(1.00, 0.00, -0.00, -1.00, 325.3, 636.8)">y</text><text xml:space="preserve" font-family="Helvetica-Light,Helvetica" font-size="68.8" fill="#FEFFFF" transform="matrix(1.00, 0.00, -0.00, -1.00, 359.7, 636.8)">o</text><text xml:space="preserve" font-family="Helvetica-Light,Helvetica" font-size="68.8" fill="#FEFFFF" transform="matrix(1.00, 0.00, -0.00, -1.00, 397.9, 636.8)">u</text><text xml:space="preserve" font-family="Helvetica-Light,Helvetica" font-size="68.8" fill="#FEFFFF" transform="matrix(1.00, 0.00, -0.00, -1.00, 436.2, 636.8)">r</text><text xml:space="preserve" font-family="Helvetica-Light,Helvetica" font-size="68.8" fill="#FEFFFF" transform="matrix(1.00, 0.00, -0.00, -1.00, 459.1, 636.8)"> </text><text xml:space="preserve" font-family="Helvetica-Light,Helvetica" font-size="68.8" fill="#FEFFFF" transform="matrix(1.00, 0.00, -0.00, -1.00, 478.2, 636.8)">c</text><text xml:space="preserve" font-family="Helvetica-Light,Helvetica" font-size="68.8" fill="#FEFFFF" transform="matrix(1.00, 0.00, -0.00, -1.00, 516.5, 636.8)">o</text><text xml:space="preserve" font-family="Helvetica-Light,Helvetica" font-size="68.8" fill="#FEFFFF" transform="matrix(1.00, 0.00, -0.00, -1.00, 554.7, 636.8)">r</text><text xml:space="preserve" font-family="Helvetica-Light,Helvetica" font-size="68.8" fill="#FEFFFF" transform="matrix(1.00, 0.00, -0.00, -1.00, 576.4, 636.8)">e</text><text xml:space="preserve" font-family="Helvetica-Light,Helvetica" font-size="68.8" fill="#FEFFFF" transform="matrix(1.00, 0.00, -0.00, -1.00, 614.6, 636.8)"> </text><text xml:space="preserve" font-family="Helvetica-Light,Helvetica" font-size="68.8" fill="#FEFFFF" transform="matrix(1.00, 0.00, -0.00, -1.00, 633.8, 636.8)">b</text><text xml:space="preserve" font-family="Helvetica-Light,Helvetica" font-size="68.8" fill="#FEFFFF" transform="matrix(1.00, 0.00, -0.00, -1.00, 675.8, 636.8)">u</text><text xml:space="preserve" font-family="Helvetica-Light,Helvetica" font-size="68.8" fill="#FEFFFF" transform="matrix(1.00, 0.00, -0.00, -1.00, 714.1, 636.8)">s</text><text xml:space="preserve" font-family="Helvetica-Light,Helvetica" font-size="68.8" fill="#FEFFFF" transform="matrix(1.00, 0.00, -0.00, -1.00, 748.5, 636.8)">i</text><text xml:space="preserve" font-family="Helvetica-Light,Helvetica" font-size="68.8" fill="#FEFFFF" transform="matrix(1.00, 0.00, -0.00, -1.00, 763.7, 636.8)">n</text><text xml:space="preserve" font-family="Helvetica-Light,Helvetica" font-size="68.8" fill="#FEFFFF" transform="matrix(1.00, 0.00, -0.00, -1.00, 802.0, 636.8)">e</text><text xml:space="preserve" font-family="Helvetica-Light,Helvetica" font-size="68.8" fill="#FEFFFF" transform="matrix(1.00, 0.00, -0.00, -1.00, 840.2, 636.8)">s</text><text xml:space="preserve" font-family="Helvetica-Light,Helvetica" font-size="68.8" fill="#FEFFFF" transform="matrix(1.00, 0.00, -0.00, -1.00, 874.6, 636.8)">s</text><text xml:space="preserve" font-family="Helvetica-Light,Helvetica" font-size="68.8" fill="#FEFFFF" transform="matrix(1.00, 0.00, -0.00, -1.00, 909.0, 636.8)">?</text></g></svg>