<?xml version="1.0" encoding="UTF-8" standalone="no"?><svg xmlns="http://www.w3.org/2000/svg" xmlns:xlink="http://www.w3.org/1999/xlink" clip-rule="evenodd" stroke-miterlimit="10" viewBox="0 0 203 203"><desc>SVG generated by Keynote</desc><defs><pattern id="6B52AF03-DDE0-4C06-95D1-F086CA43CA37" patternUnits="userSpaceOnUse" width="256" height="256" viewBox="0 0 256 256"><image xlink:href="../../DB9BCFEE-DD22-4852-A417-307305B455DB/assets/9F2955F7E42211BA7B051F7D1B25CF9F.png" width="256.00" height="256.00"></image></pattern></defs><g transform="matrix(1.00, 0.00, -0.00, -1.00, 0.0, 203.0)"><g><clipPath id="clip0x6000032a1b00"><path d="M 171.9 172.5 C 211.0 133.4 211.0 70.1 171.9 31.0 C 132.8 -8.1 69.5 -8.1 30.4 31.0 C -8.7 70.1 -8.7 133.4 30.4 172.5 C 69.5 211.6 132.8 211.6 171.9 172.5 Z M 171.9 172.5 "></path></clipPath><g clip-path="url(#clip0x6000032a1b00)"><path d="M 0.0 0.0 L 203.0 0.0 L 203.0 203.0 L 0.0 203.0 Z M 0.0 0.0 " fill="url(#6B52AF03-DDE0-4C06-95D1-F086CA43CA37)"></path></g></g><g><clipPath id="clip0x618003cb9080"><path d="M -1.2 1.7 L 203.5 1.7 L 203.5 201.8 L -1.2 201.8 Z M -1.2 1.7 "></path></clipPath><g clip-path="url(#clip0x618003cb9080)"><text xml:space="preserve" font-family="Helvetica-Light,Helvetica" font-size="36.0" fill="#FEFFFF" transform="matrix(1.00, 0.00, -0.00, -1.00, 43.1, 88.4)">T</text><text xml:space="preserve" font-family="Helvetica-Light,Helvetica" font-size="36.0" fill="#FEFFFF" transform="matrix(1.00, 0.00, -0.00, -1.00, 59.1, 88.4)">e</text><text xml:space="preserve" font-family="Helvetica-Light,Helvetica" font-size="36.0" fill="#FEFFFF" transform="matrix(1.00, 0.00, -0.00, -1.00, 79.2, 88.4)">a</text><text xml:space="preserve" font-family="Helvetica-Light,Helvetica" font-size="36.0" fill="#FEFFFF" transform="matrix(1.00, 0.00, -0.00, -1.00, 99.2, 88.4)">m</text><text xml:space="preserve" font-family="Helvetica-Light,Helvetica" font-size="36.0" fill="#FEFFFF" transform="matrix(1.00, 0.00, -0.00, -1.00, 129.2, 88.4)"> </text><text xml:space="preserve" font-family="Helvetica-Light,Helvetica" font-size="36.0" fill="#FEFFFF" transform="matrix(1.00, 0.00, -0.00, -1.00, 139.2, 88.4)">1</text></g></g></g></svg>