<?xml version="1.0" encoding="UTF-8" standalone="no"?><svg xmlns="http://www.w3.org/2000/svg" xmlns:xlink="http://www.w3.org/1999/xlink" clip-rule="evenodd" stroke-miterlimit="10" viewBox="0 0 1024 768"><desc>SVG generated by Keynote</desc><defs><linearGradient id="gradSh1.25" x1="0.0" y1="0.0" x2="100.0" y2="0.0" gradientUnits="userSpaceOnUse" gradientTransform="matrix(0.00, -1.02, -1.02, 0.00, 263.6, 612.5)"><stop offset="0.00000" stop-color="#189B1A"></stop><stop offset="0.00660" stop-color="#189A1A"></stop><stop offset="0.69355" stop-color="#207010"></stop><stop offset="0.70015" stop-color="#206F10"></stop><stop offset="0.70308" stop-color="#206F0F"></stop><stop offset="0.71628" stop-color="#206E0F"></stop><stop offset="1.00000" stop-color="#235D0B"></stop></linearGradient><linearGradient id="gradSh1.26" x1="0.0" y1="0.0" x2="100.0" y2="0.0" gradientUnits="userSpaceOnUse" gradientTransform="matrix(0.00, -1.02, -1.02, 0.00, 760.4, 612.5)"><stop offset="0.00000" stop-color="#189B1A"></stop><stop offset="0.00660" stop-color="#189A1A"></stop><stop offset="0.69355" stop-color="#207010"></stop><stop offset="0.70015" stop-color="#206F10"></stop><stop offset="0.70308" stop-color="#206F0F"></stop><stop offset="0.71628" stop-color="#206E0F"></stop><stop offset="1.00000" stop-color="#235D0B"></stop></linearGradient><linearGradient id="gradSh1.27" x1="0.0" y1="0.0" x2="100.0" y2="0.0" gradientUnits="userSpaceOnUse" gradientTransform="matrix(0.00, -1.02, -1.02, 0.00, 512.0, 223.2)"><stop offset="0.00000" stop-color="#189B1A"></stop><stop offset="0.00660" stop-color="#189A1A"></stop><stop offset="0.69355" stop-color="#207010"></stop><stop offset="0.70015" stop-color="#206F10"></stop><stop offset="0.70308" stop-color="#206F0F"></stop><stop offset="0.71628" stop-color="#206E0F"></stop><stop offset="1.00000" stop-color="#235D0B"></stop></linearGradient><linearGradient id="gradSh1.28" x1="0.0" y1="0.0" x2="100.0" y2="0.0" gradientUnits="userSpaceOnUse" gradientTransform="matrix(0.00, -1.02, -1.02, 0.00, 182.7, 334.9)"><stop offset="0.00000" stop-color="#189B1A"></stop><stop offset="0.00660" stop-color="#189A1A"></stop><stop offset="0.69355" stop-color="#207010"></stop><stop offset="0.70015" stop-color="#206F10"></stop><stop offset="0.70308" stop-color="#206F0F"></stop><stop offset="0.71628" stop-color="#206E0F"></stop><stop offset="1.00000" stop-color="#235D0B"></stop></linearGradient><linearGradient id="gradSh1.29" x1="0.0" y1="0.0" x2="100.0" y2="0.0" gradientUnits="userSpaceOnUse" gradientTransform="matrix(0.00, -1.02, -1.02, 0.00, 810.8, 377.9)"><stop offset="0.00000" stop-color="#189B1A"></stop><stop offset="0.00660" stop-color="#189A1A"></stop><stop offset="0.69355" stop-color="#207010"></stop><stop offset="0.70015" stop-color="#206F10"></stop><stop offset="0.70308" stop-color="#206F0F"></stop><stop offset="0.71628" stop-color="#206E0F"></stop><stop offset="1.00000" stop-color="#235D0B"></stop></linearGradient></defs><g transform="matrix(1.00, 0.00, -0.00, -1.00, 0.0, 768.0)"><path d="M 0.0 768.0 L 1024.0 768.0 L 1024.0 0.0 L 0.0 0.0 Z M 0.0 768.0 " fill="#000000"></path><g><clipPath id="clip0x6080030b4820"><path d="M 298.9 596.9 C 318.4 577.4 318.4 545.7 298.9 526.2 C 279.4 506.7 247.7 506.7 228.2 526.2 C 208.7 545.7 208.7 577.4 228.2 596.9 C 247.7 616.4 279.4 616.4 298.9 596.9 Z M 298.9 596.9 "></path></clipPath><g clip-path="url(#clip0x6080030b4820)"><path d="M 298.9 596.9 C 318.4 577.4 318.4 545.7 298.9 526.2 C 279.4 506.7 247.7 506.7 228.2 526.2 C 208.7 545.7 208.7 577.4 228.2 596.9 C 247.7 616.4 279.4 616.4 298.9 596.9 Z M 298.9 596.9 " fill="url(#gradSh1.25)"></path></g></g><g><clipPath id="clip0x6080032b4b20"><path d="M 795.8 596.9 C 815.3 577.4 815.3 545.7 795.8 526.2 C 776.3 506.7 744.6 506.7 725.1 526.2 C 705.6 545.7 705.6 577.4 725.1 596.9 C 744.6 616.4 776.3 616.4 795.8 596.9 Z M 795.8 596.9 "></path></clipPath><g clip-path="url(#clip0x6080032b4b20)"><path d="M 795.8 596.9 C 815.3 577.4 815.3 545.7 795.8 526.2 C 776.3 506.7 744.6 506.7 725.1 526.2 C 705.6 545.7 705.6 577.4 725.1 596.9 C 744.6 616.4 776.3 616.4 795.8 596.9 Z M 795.8 596.9 " fill="url(#gradSh1.26)"></path></g></g><path d="M 0.0 27.7 C 133.8 -9.2 267.6 -9.2 401.3 27.7 " fill="none" stroke="#FEFFFE" stroke-width="2.00" transform="matrix(1.00, 0.00, 0.00, -1.00, 311.3, 604.0)"></path><g><clipPath id="clip0x6080034b4e20"><path d="M 547.4 207.6 C 566.9 188.1 566.9 156.4 547.4 136.9 C 527.8 117.4 496.2 117.4 476.6 136.9 C 457.1 156.4 457.1 188.1 476.6 207.6 C 496.2 227.1 527.8 227.1 547.4 207.6 Z M 547.4 207.6 "></path></clipPath><g clip-path="url(#clip0x6080034b4e20)"><path d="M 547.4 207.6 C 566.9 188.1 566.9 156.4 547.4 136.9 C 527.8 117.4 496.2 117.4 476.6 136.9 C 457.1 156.4 457.1 188.1 476.6 207.6 C 496.2 227.1 527.8 227.1 547.4 207.6 Z M 547.4 207.6 " fill="url(#gradSh1.27)"></path></g></g><path d="M 0.0 0.0 C 95.9 83.9 161.7 187.0 197.4 309.2 " fill="none" stroke="#FEFFFE" stroke-width="2.00" transform="matrix(1.00, 0.00, 0.00, -1.00, 302.3, 529.9)"></path><path d="M 0.0 309.2 C 35.7 187.0 101.5 83.9 197.4 0.0 " fill="none" stroke="#FEFFFE" stroke-width="2.00" transform="matrix(1.00, 0.00, 0.00, -1.00, 524.4, 529.9)"></path><text xml:space="preserve" font-family="Helvetica-Light,Helvetica" font-size="60.0" fill="#FEFFFF" transform="matrix(1.00, 0.00, -0.00, -1.00, 266.9, 679.2)">5</text><text xml:space="preserve" font-family="Helvetica-Light,Helvetica" font-size="60.0" fill="#FEFFFF" transform="matrix(1.00, 0.00, -0.00, -1.00, 300.3, 679.2)"> </text><text xml:space="preserve" font-family="Helvetica-Light,Helvetica" font-size="60.0" fill="#FEFFFF" transform="matrix(1.00, 0.00, -0.00, -1.00, 316.9, 679.2)">p</text><text xml:space="preserve" font-family="Helvetica-Light,Helvetica" font-size="60.0" fill="#FEFFFF" transform="matrix(1.00, 0.00, -0.00, -1.00, 353.6, 679.2)">e</text><text xml:space="preserve" font-family="Helvetica-Light,Helvetica" font-size="60.0" fill="#FEFFFF" transform="matrix(1.00, 0.00, -0.00, -1.00, 387.0, 679.2)">o</text><text xml:space="preserve" font-family="Helvetica-Light,Helvetica" font-size="60.0" fill="#FEFFFF" transform="matrix(1.00, 0.00, -0.00, -1.00, 420.3, 679.2)">p</text><text xml:space="preserve" font-family="Helvetica-Light,Helvetica" font-size="60.0" fill="#FEFFFF" transform="matrix(1.00, 0.00, -0.00, -1.00, 457.0, 679.2)">l</text><text xml:space="preserve" font-family="Helvetica-Light,Helvetica" font-size="60.0" fill="#FEFFFF" transform="matrix(1.00, 0.00, -0.00, -1.00, 470.3, 679.2)">e</text><text xml:space="preserve" font-family="Helvetica-Light,Helvetica" font-size="60.0" fill="#FEFFFF" transform="matrix(1.00, 0.00, -0.00, -1.00, 503.7, 679.2)"> </text><text xml:space="preserve" font-family="Helvetica-Light,Helvetica" font-size="60.0" fill="#FEFFFF" transform="matrix(1.00, 0.00, -0.00, -1.00, 520.3, 679.2)">:</text><text xml:space="preserve" font-family="Helvetica-Light,Helvetica" font-size="60.0" fill="#FEFFFF" transform="matrix(1.00, 0.00, -0.00, -1.00, 537.0, 679.2)"> </text><text xml:space="preserve" font-family="Helvetica-Light,Helvetica" font-size="60.0" fill="#FEFFFF" transform="matrix(1.00, 0.00, -0.00, -1.00, 553.7, 679.2)">1</text><text xml:space="preserve" font-family="Helvetica-Light,Helvetica" font-size="60.0" fill="#FEFFFF" transform="matrix(1.00, 0.00, -0.00, -1.00, 587.1, 679.2)">0</text><text xml:space="preserve" font-family="Helvetica-Light,Helvetica" font-size="60.0" fill="#FEFFFF" transform="matrix(1.00, 0.00, -0.00, -1.00, 620.4, 679.2)"> </text><text xml:space="preserve" font-family="Helvetica-Light,Helvetica" font-size="60.0" fill="#FEFFFF" transform="matrix(1.00, 0.00, -0.00, -1.00, 637.1, 679.2)">l</text><text xml:space="preserve" font-family="Helvetica-Light,Helvetica" font-size="60.0" fill="#FEFFFF" transform="matrix(1.00, 0.00, -0.00, -1.00, 650.4, 679.2)">i</text><text xml:space="preserve" font-family="Helvetica-Light,Helvetica" font-size="60.0" fill="#FEFFFF" transform="matrix(1.00, 0.00, -0.00, -1.00, 663.7, 679.2)">n</text><text xml:space="preserve" font-family="Helvetica-Light,Helvetica" font-size="60.0" fill="#FEFFFF" transform="matrix(1.00, 0.00, -0.00, -1.00, 697.1, 679.2)">k</text><text xml:space="preserve" font-family="Helvetica-Light,Helvetica" font-size="60.0" fill="#FEFFFF" transform="matrix(1.00, 0.00, -0.00, -1.00, 727.1, 679.2)">s</text><g><clipPath id="clip0x6080036b5900"><path d="M 218.0 319.2 C 237.6 299.7 237.6 268.1 218.0 248.5 C 198.5 229.0 166.8 229.0 147.3 248.5 C 127.8 268.1 127.8 299.7 147.3 319.2 C 166.8 338.8 198.5 338.8 218.0 319.2 Z M 218.0 319.2 "></path></clipPath><g clip-path="url(#clip0x6080036b5900)"><path d="M 218.0 319.2 C 237.6 299.7 237.6 268.1 218.0 248.5 C 198.5 229.0 166.8 229.0 147.3 248.5 C 127.8 268.1 127.8 299.7 147.3 319.2 C 166.8 338.8 198.5 338.8 218.0 319.2 Z M 218.0 319.2 " fill="url(#gradSh1.28)"></path></g></g><path d="M 1.5 191.7 C -5.7 120.2 12.9 56.3 57.4 0.0 " fill="none" stroke="#FEFFFE" stroke-width="2.00" transform="matrix(1.00, 0.00, 0.00, -1.00, 172.3, 524.8)"></path><path d="M 0.0 235.6 C 145.8 120.4 309.2 41.8 490.2 0.0 " fill="none" stroke="#FEFFFE" stroke-width="2.00" transform="matrix(1.00, 0.00, 0.00, -1.00, 221.3, 551.2)"></path><path d="M 0.0 0.1 C 90.5 -1.5 171.2 25.8 242.1 82.1 " fill="none" stroke="#FEFFFE" stroke-width="2.00" transform="matrix(1.00, 0.00, 0.00, -1.00, 232.5, 287.6)"></path><g><clipPath id="clip0x6080038b5cc0"><path d="M 846.2 362.3 C 865.7 342.8 865.7 311.1 846.2 291.6 C 826.6 272.0 795.0 272.0 775.4 291.6 C 755.9 311.1 755.9 342.8 775.4 362.3 C 795.0 381.8 826.6 381.8 846.2 362.3 Z M 846.2 362.3 "></path></clipPath><g clip-path="url(#clip0x6080038b5cc0)"><path d="M 846.2 362.3 C 865.7 342.8 865.7 311.1 846.2 291.6 C 826.6 272.0 795.0 272.0 775.4 291.6 C 755.9 311.1 755.9 342.8 775.4 362.3 C 795.0 381.8 826.6 381.8 846.2 362.3 Z M 846.2 362.3 " fill="url(#gradSh1.29)"></path></g></g><path d="M 0.0 112.5 C 58.7 48.4 131.2 10.9 217.4 0.0 " fill="none" stroke="#FEFFFE" stroke-width="2.00" transform="matrix(1.00, 0.00, 0.00, -1.00, 543.5, 323.6)"></path><path d="M 0.0 51.2 C 174.3 -1.3 351.4 -13.4 531.3 14.8 " fill="none" stroke="#FEFFFE" stroke-width="2.00" transform="matrix(1.00, 0.00, 0.00, -1.00, 230.3, 350.5)"></path><path d="M 0.0 0.0 C 168.4 29.0 321.2 94.5 458.3 196.5 " fill="none" stroke="#FEFFFE" stroke-width="2.00" transform="matrix(1.00, 0.00, 0.00, -1.00, 313.0, 554.1)"></path><path d="M 0.0 0.0 C 33.4 45.2 44.1 95.2 32.2 150.0 " fill="none" stroke="#FEFFFE" stroke-width="2.00" transform="matrix(1.00, 0.00, 0.00, -1.00, 794.0, 524.5)"></path></g></svg>