<?xml version="1.0" encoding="UTF-8" standalone="no"?><svg xmlns="http://www.w3.org/2000/svg" xmlns:xlink="http://www.w3.org/1999/xlink" clip-rule="evenodd" stroke-miterlimit="10" viewBox="0 0 107 340"><desc>SVG generated by Keynote</desc><defs></defs><g transform="matrix(1.00, 0.00, -0.00, -1.00, 0.0, 340.0)"><g><clipPath id="clip0x600002eab640"><path d="M 67.0 312.1 C 74.5 304.6 74.5 292.6 67.0 285.2 C 59.6 277.8 47.6 277.8 40.2 285.2 C 32.7 292.6 32.7 304.6 40.2 312.1 C 47.6 319.5 59.6 319.5 67.0 312.1 Z M 67.0 312.1 "></path></clipPath><g clip-path="url(#clip0x600002eab640)"><g><clipPath id="clip0x600002eab520"><path d="M 33.6 278.6 L 73.6 278.6 L 73.6 318.6 L 33.6 318.6 Z M 33.6 278.6 "></path></clipPath><g clip-path="url(#clip0x600002eab520)"><image xlink:href="5C5A0FC7E3B4417A6CD6A9787AAA0F4B.png" width="256.00" height="256.00" transform="matrix(0.50, 0.00, -0.00, -0.50, 34.6, 317.6)"></image></g></g></g></g><g><clipPath id="clip0x600002eaa200"><path d="M 67.0 260.5 C 74.5 253.1 74.5 241.1 67.0 233.7 C 59.6 226.2 47.6 226.2 40.2 233.7 C 32.7 241.1 32.7 253.1 40.2 260.5 C 47.6 268.0 59.6 268.0 67.0 260.5 Z M 67.0 260.5 "></path></clipPath><g clip-path="url(#clip0x600002eaa200)"><g><clipPath id="clip0x600002eab8e0"><path d="M 33.6 227.1 L 73.6 227.1 L 73.6 267.1 L 33.6 267.1 Z M 33.6 227.1 "></path></clipPath><g clip-path="url(#clip0x600002eab8e0)"><image xlink:href="2E46DA311AF3B73A4E9A2E7FFBE936DB.png" width="256.00" height="256.00" transform="matrix(0.50, 0.00, -0.00, -0.50, 34.6, 266.1)"></image></g></g></g></g><g><clipPath id="clip0x600002eab940"><path d="M 67.0 209.0 C 74.5 201.6 74.5 189.6 67.0 182.1 C 59.6 174.7 47.6 174.7 40.2 182.1 C 32.7 189.6 32.7 201.6 40.2 209.0 C 47.6 216.4 59.6 216.4 67.0 209.0 Z M 67.0 209.0 "></path></clipPath><g clip-path="url(#clip0x600002eab940)"><g><clipPath id="clip0x600002eabd00"><path d="M 33.6 175.6 L 73.6 175.6 L 73.6 215.6 L 33.6 215.6 Z M 33.6 175.6 "></path></clipPath><g clip-path="url(#clip0x600002eabd00)"><image xlink:href="../../DB9BCFEE-DD22-4852-A417-307305B455DB/assets/2E46DA311AF3B73A4E9A2E7FFBE936DB.png" width="256.00" height="256.00" transform="matrix(0.50, 0.00, -0.00, -0.50, 34.6, 214.6)"></image></g></g></g></g><g><clipPath id="clip0x6080044ac3c0"><path d="M 67.0 157.5 C 74.5 150.1 74.5 138.0 67.0 130.6 C 59.6 123.2 47.6 123.2 40.2 130.6 C 32.7 138.0 32.7 150.1 40.2 157.5 C 47.6 164.9 59.6 164.9 67.0 157.5 Z M 67.0 157.5 "></path></clipPath><g clip-path="url(#clip0x6080044ac3c0)"><g><clipPath id="clip0x6080044ab6a0"><path d="M 33.6 124.1 L 73.6 124.1 L 73.6 164.1 L 33.6 164.1 Z M 33.6 124.1 "></path></clipPath><g clip-path="url(#clip0x6080044ab6a0)"><image xlink:href="../../DB9BCFEE-DD22-4852-A417-307305B455DB/assets/2E46DA311AF3B73A4E9A2E7FFBE936DB.png" width="256.00" height="256.00" transform="matrix(0.50, 0.00, -0.00, -0.50, 34.6, 163.1)"></image></g></g></g></g><g><clipPath id="clip0x618003aab2e0"><path d="M 67.0 106.0 C 74.5 98.6 74.5 86.5 67.0 79.1 C 59.6 71.7 47.6 71.7 40.2 79.1 C 32.7 86.5 32.7 98.6 40.2 106.0 C 47.6 113.4 59.6 113.4 67.0 106.0 Z M 67.0 106.0 "></path></clipPath><g clip-path="url(#clip0x618003aab2e0)"><g><clipPath id="clip0x618003aa8940"><path d="M 33.6 72.5 L 73.6 72.5 L 73.6 112.5 L 33.6 112.5 Z M 33.6 72.5 "></path></clipPath><g clip-path="url(#clip0x618003aa8940)"><image xlink:href="9F2955F7E42211BA7B051F7D1B25CF9F.png" width="256.00" height="256.00" transform="matrix(0.50, 0.00, -0.00, -0.50, 34.6, 111.5)"></image></g></g></g></g><g><clipPath id="clip0x618003aa89a0"><path d="M 67.0 54.5 C 74.5 47.0 74.5 35.0 67.0 27.6 C 59.6 20.2 47.6 20.2 40.2 27.6 C 32.7 35.0 32.7 47.0 40.2 54.5 C 47.6 61.9 59.6 61.9 67.0 54.5 Z M 67.0 54.5 "></path></clipPath><g clip-path="url(#clip0x618003aa89a0)"><g><clipPath id="clip0x618003aa6de0"><path d="M 33.6 21.0 L 73.6 21.0 L 73.6 61.0 L 33.6 61.0 Z M 33.6 21.0 "></path></clipPath><g clip-path="url(#clip0x618003aa6de0)"><image xlink:href="../../DB9BCFEE-DD22-4852-A417-307305B455DB/assets/9F2955F7E42211BA7B051F7D1B25CF9F.png" width="256.00" height="256.00" transform="matrix(0.50, 0.00, -0.00, -0.50, 34.6, 60.0)"></image></g></g></g></g><g><clipPath id="clip0x618003aa6cc0"><path d="M 0.6 0.6 L 106.6 0.6 L 106.6 339.1 L 0.6 339.1 Z M 0.6 0.6 "></path></clipPath><g clip-path="url(#clip0x618003aa6cc0)"><g opacity="0.71"><g><clipPath id="clip0x618003aa79e0"><path d="M 1.0 1.0 L 106.0 1.0 L 106.0 339.0 L 1.0 339.0 Z M 1.0 1.0 "></path></clipPath><g clip-path="url(#clip0x618003aa79e0)"><path d="M 88.6 285.3 C 88.6 285.5 88.1 285.5 87.8 285.9 C 87.6 286.3 87.4 286.9 87.7 286.9 C 88.0 286.9 88.3 286.8 88.6 287.1 C 88.9 287.5 89.5 287.9 89.8 287.7 C 90.2 287.4 91.3 286.4 91.0 285.9 C 90.8 285.3 90.7 285.2 90.5 284.8 C 90.4 284.4 91.1 284.9 91.1 284.9 C 91.1 284.9 91.4 284.2 91.6 283.7 C 91.8 283.2 92.0 282.6 91.9 282.5 C 91.8 282.4 91.5 282.1 91.5 282.1 C 91.5 282.1 92.0 281.9 92.2 281.5 C 92.3 281.2 92.1 281.3 91.9 281.3 C 91.7 281.3 91.1 281.6 91.1 281.4 C 91.2 281.3 92.1 281.0 92.2 280.7 C 92.4 280.5 92.5 279.8 92.5 279.8 C 92.5 279.8 92.0 279.8 91.9 279.7 C 91.9 279.6 92.0 279.0 92.1 279.0 C 92.3 279.0 92.7 279.2 92.9 278.9 C 93.2 277.9 92.3 277.8 92.3 277.7 C 92.3 277.6 93.0 277.8 93.1 277.6 C 93.3 277.4 93.7 275.4 93.5 275.3 C 93.4 275.1 94.1 274.6 93.8 274.2 C 93.5 273.9 93.4 273.7 93.3 273.7 C 93.2 273.6 92.6 273.0 92.9 272.9 C 93.2 272.8 93.8 273.8 94.0 273.6 C 94.3 273.4 94.6 272.2 94.5 271.9 C 94.3 271.5 93.6 271.3 93.7 271.1 C 93.7 271.0 94.7 270.4 94.6 270.4 C 94.5 270.3 93.8 270.0 93.7 270.0 C 93.5 270.0 92.4 269.4 92.2 269.6 C 92.0 269.7 91.3 270.3 91.7 270.3 C 92.1 270.3 92.6 270.2 92.7 270.5 C 92.8 270.8 92.8 270.9 92.6 271.0 C 92.5 271.0 92.3 270.8 92.0 271.2 C 91.7 271.6 91.5 271.3 91.4 271.7 C 91.3 272.1 91.3 272.5 91.6 272.5 C 91.9 272.6 92.1 273.1 92.0 273.4 C 92.0 273.6 91.5 273.0 91.0 273.9 C 90.6 274.7 90.4 275.3 90.5 275.6 C 90.7 275.9 91.4 276.1 91.0 276.5 C 90.6 276.8 90.4 276.5 90.3 277.1 C 90.2 277.7 90.7 278.1 90.6 278.4 C 90.5 278.8 90.5 278.9 90.5 278.9 C 90.5 278.9 89.7 278.5 89.5 279.3 C 89.2 280.1 89.1 280.2 89.7 280.2 C 90.4 280.2 90.2 280.8 89.8 280.8 C 89.4 280.7 89.1 281.1 88.9 281.4 C 88.8 281.6 89.8 282.0 89.8 282.1 C 89.8 282.2 89.6 282.5 89.3 282.3 C 89.1 282.1 88.9 282.4 88.7 282.6 C 88.5 282.8 88.4 283.6 88.6 283.6 C 88.8 283.6 89.5 283.5 89.0 283.9 C 88.6 284.3 88.1 284.3 88.0 284.7 C 87.8 285.2 88.5 285.0 88.6 285.3 C 88.6 285.3 88.6 285.3 88.6 285.3 Z M 91.9 269.2 C 91.8 270.1 94.5 270.1 95.1 269.8 C 95.7 269.6 95.5 268.9 95.7 268.3 C 96.0 267.7 95.1 267.7 94.9 267.3 C 94.8 266.9 95.3 267.2 95.7 267.1 C 96.1 267.0 96.0 266.0 96.1 265.4 C 96.3 264.9 95.6 264.1 95.6 263.6 C 95.6 263.1 95.1 263.9 95.3 263.1 C 95.5 262.3 95.9 262.8 96.0 263.8 C 96.0 264.8 96.5 263.5 96.7 263.0 C 96.9 262.5 96.7 261.5 96.9 261.1 C 97.0 260.7 96.2 261.1 96.4 260.5 C 96.5 259.9 97.1 260.3 97.3 259.7 C 97.6 259.1 96.9 259.1 96.8 258.7 C 96.8 258.4 97.1 258.5 97.2 258.3 C 97.3 258.0 97.6 257.6 97.6 257.0 C 97.5 256.4 97.3 256.5 97.3 256.2 C 97.3 256.0 97.4 255.5 97.4 255.5 C 97.6 255.5 97.8 255.5 98.1 255.5 C 98.1 255.5 98.3 254.4 98.4 254.1 C 98.5 253.8 98.4 253.0 98.2 253.2 C 98.0 253.3 97.7 252.5 97.8 252.4 C 98.0 252.2 98.4 251.8 98.6 251.4 C 98.8 251.0 97.1 250.9 96.9 250.8 C 96.6 250.8 95.7 250.4 95.6 250.7 C 95.4 251.0 95.7 251.4 95.5 251.3 C 95.3 251.2 95.3 252.2 95.3 252.4 C 95.2 252.7 95.8 253.2 95.8 253.2 C 95.8 253.2 96.3 253.5 96.2 253.9 C 96.1 254.4 95.1 254.3 95.1 254.3 C 95.1 254.3 94.8 254.8 94.7 255.4 C 94.7 255.9 95.4 256.7 95.6 256.8 C 95.8 257.0 95.0 256.8 94.8 257.1 C 94.6 257.5 94.3 258.0 94.3 258.2 C 94.3 258.3 94.8 258.7 94.8 258.7 C 94.8 258.7 95.0 259.4 95.0 259.6 C 94.9 259.7 94.2 259.3 94.2 259.3 C 94.2 259.3 93.7 260.7 93.6 261.0 C 93.5 261.3 93.6 261.8 93.6 262.0 C 93.6 262.2 94.5 262.7 94.4 263.0 C 94.2 263.3 93.8 262.6 93.6 262.9 C 93.5 263.1 93.2 263.7 93.1 263.8 C 93.1 264.0 93.4 264.3 93.4 264.5 C 93.4 264.8 94.0 265.3 93.9 265.7 C 93.8 266.1 93.4 266.2 93.2 266.4 C 93.1 266.5 92.5 266.5 92.4 266.8 C 92.3 267.1 92.8 267.0 92.7 267.3 C 92.6 267.6 93.1 267.7 92.9 268.0 C 92.8 268.3 92.0 267.9 92.1 268.3 C 92.1 268.4 92.1 268.3 91.9 269.2 C 91.9 269.2 91.9 269.2 91.9 269.2 Z M 95.8 249.9 C 95.4 250.3 95.8 250.8 96.1 250.8 C 96.5 250.8 97.5 250.8 97.7 251.0 C 98.0 251.3 98.6 251.9 98.8 251.1 C 99.1 250.3 98.9 250.1 98.7 250.1 C 98.4 250.0 97.4 249.7 97.6 249.5 C 97.7 249.3 98.0 249.1 98.2 249.1 C 98.3 249.0 99.3 248.9 99.2 248.4 C 99.2 248.0 99.0 247.6 99.0 247.6 C 99.0 247.4 99.0 247.2 99.0 247.0 C 99.0 247.0 99.7 246.5 99.6 246.0 C 99.6 245.6 99.6 245.1 99.7 244.7 C 99.8 244.4 99.8 244.1 99.6 244.0 C 99.3 243.9 98.6 243.3 98.6 243.3 C 98.6 243.3 98.4 242.8 98.6 242.6 C 98.8 242.4 99.2 242.4 99.4 242.5 C 99.6 242.5 100.1 242.5 100.2 242.2 C 100.3 241.9 101.0 240.5 100.8 240.2 C 100.5 239.9 100.1 240.0 100.1 239.8 C 100.0 239.6 100.1 238.6 100.3 238.5 C 100.6 238.5 101.1 238.6 101.1 238.3 C 101.1 238.0 101.3 237.5 101.1 237.5 C 101.0 237.5 100.9 237.2 100.6 237.2 C 100.3 237.1 100.2 236.5 100.1 236.4 C 99.9 236.3 100.0 235.8 100.0 235.8 C 100.1 235.6 100.3 235.5 100.5 235.3 C 100.5 235.3 100.9 235.7 101.0 235.9 C 101.1 236.1 101.4 235.8 101.5 235.6 C 101.6 235.5 101.6 234.4 101.6 234.4 C 101.3 234.3 100.9 234.2 100.5 234.2 C 100.4 233.9 100.4 233.6 100.4 233.3 C 100.4 233.3 101.7 233.6 101.7 233.1 C 101.8 232.6 101.9 231.9 101.9 231.9 C 101.9 231.9 101.4 231.3 101.4 231.2 C 101.4 231.1 100.2 230.9 100.2 230.9 C 99.7 230.8 99.3 230.8 98.8 230.8 C 98.8 230.8 98.3 231.4 98.4 231.8 C 98.6 232.1 99.1 231.9 99.3 232.0 C 99.5 232.1 99.7 232.6 99.7 232.6 C 99.4 232.8 99.1 233.0 98.8 233.2 C 98.8 233.2 98.6 233.4 98.3 233.6 C 98.1 233.8 97.8 234.6 97.9 234.8 C 97.9 235.1 98.2 235.3 98.4 235.7 C 98.6 236.0 99.0 236.0 98.7 236.3 C 98.3 236.6 97.9 236.7 97.9 236.9 C 97.9 237.0 98.2 237.8 98.2 237.8 C 98.3 238.1 98.4 238.3 98.5 238.5 C 98.5 238.5 98.6 239.1 98.3 239.1 C 98.1 239.2 98.2 240.3 98.2 240.3 C 98.2 240.3 97.4 240.1 97.2 240.4 C 97.1 240.6 96.8 241.0 96.9 241.5 C 97.0 242.0 97.7 242.4 97.7 242.4 C 97.5 242.5 97.2 242.7 97.0 242.8 C 96.9 243.2 96.8 243.6 96.7 244.0 C 96.7 244.0 96.6 244.9 96.7 245.0 C 96.8 245.0 97.5 245.0 97.7 245.1 C 97.9 245.2 98.0 245.7 97.8 245.7 C 97.6 245.7 96.9 246.1 96.9 246.1 C 96.9 246.1 96.4 246.4 96.3 246.7 C 96.2 246.9 96.4 247.4 96.5 247.6 C 96.6 247.7 97.0 248.2 97.0 248.2 C 96.8 248.3 96.6 248.4 96.3 248.5 C 96.3 248.5 96.5 249.3 95.8 249.9 C 95.8 249.9 95.8 249.9 95.8 249.9 Z M 98.4 230.3 C 98.4 231.4 101.1 231.0 101.7 230.7 C 102.2 230.3 102.0 229.6 102.1 228.9 C 102.3 228.2 101.5 228.4 101.3 227.9 C 101.1 227.5 101.6 227.7 102.0 227.6 C 102.4 227.5 102.2 226.4 102.3 225.7 C 102.4 225.1 101.6 224.3 101.6 223.8 C 101.6 223.3 101.1 224.2 101.2 223.3 C 101.4 222.3 101.8 222.9 102.0 223.9 C 102.1 225.0 102.5 223.6 102.7 223.0 C 102.8 222.4 102.5 221.4 102.6 220.9 C 102.7 220.5 102.0 221.0 102.1 220.3 C 102.2 219.7 102.8 220.1 103.0 219.4 C 103.2 218.7 102.5 218.7 102.4 218.4 C 102.3 218.0 102.7 218.1 102.7 217.8 C 102.8 217.5 103.0 217.1 103.0 216.4 C 102.9 215.8 102.7 215.9 102.6 215.6 C 102.6 215.3 102.7 214.8 102.7 214.8 C 102.9 214.8 103.1 214.8 103.3 214.7 C 103.3 214.7 103.5 213.6 103.6 213.2 C 103.6 212.9 103.4 212.0 103.3 212.2 C 103.1 212.4 102.7 211.6 102.8 211.4 C 102.9 211.3 103.3 210.7 103.5 210.3 C 103.7 209.9 102.0 209.9 101.7 209.9 C 101.5 209.9 100.6 209.5 100.4 209.9 C 100.3 210.2 100.6 210.6 100.4 210.5 C 100.2 210.4 100.3 211.5 100.3 211.8 C 100.3 212.1 100.9 212.5 100.9 212.5 C 100.9 212.5 101.4 212.8 101.4 213.3 C 101.3 213.7 100.2 213.8 100.2 213.8 C 100.2 213.8 100.0 214.4 100.0 215.0 C 100.0 215.6 100.8 216.3 101.0 216.4 C 101.2 216.6 100.4 216.5 100.2 216.9 C 100.1 217.3 99.8 217.9 99.8 218.0 C 99.9 218.2 100.4 218.6 100.4 218.6 C 100.4 218.6 100.6 219.3 100.6 219.5 C 100.6 219.7 99.8 219.3 99.8 219.3 C 99.8 219.3 99.5 220.9 99.4 221.2 C 99.3 221.5 99.4 222.0 99.4 222.3 C 99.5 222.5 100.4 223.0 100.3 223.3 C 100.2 223.6 99.7 222.9 99.6 223.2 C 99.4 223.5 99.2 224.2 99.2 224.3 C 99.1 224.5 99.4 224.8 99.5 225.1 C 99.5 225.4 100.2 225.8 100.1 226.3 C 100.1 226.8 99.6 226.9 99.5 227.1 C 99.4 227.3 98.7 227.3 98.7 227.7 C 98.6 228.0 99.1 227.8 99.0 228.2 C 99.0 228.5 99.5 228.6 99.3 228.9 C 99.2 229.2 98.4 228.9 98.5 229.3 C 98.5 229.5 98.5 229.3 98.4 230.3 C 98.4 230.3 98.4 230.3 98.4 230.3 Z M 100.6 209.0 C 100.2 209.5 100.6 210.0 101.0 209.9 C 101.4 209.9 102.3 209.8 102.6 210.0 C 102.9 210.2 103.5 210.9 103.7 210.0 C 103.9 209.1 103.7 208.9 103.4 208.9 C 103.2 208.8 102.2 208.6 102.3 208.4 C 102.4 208.1 102.7 207.9 102.9 207.9 C 103.0 207.8 104.0 207.5 103.9 207.1 C 103.8 206.6 103.5 206.2 103.5 206.2 C 103.5 206.0 103.5 205.8 103.5 205.5 C 103.5 205.5 104.2 205.0 104.1 204.5 C 104.0 204.0 104.0 203.5 104.1 203.1 C 104.1 202.7 104.1 202.4 103.8 202.3 C 103.6 202.2 102.8 201.7 102.8 201.7 C 102.8 201.7 102.6 201.1 102.7 200.9 C 102.9 200.7 103.4 200.6 103.5 200.7 C 103.7 200.8 104.2 200.7 104.3 200.4 C 104.4 200.0 105.0 198.5 104.7 198.2 C 104.4 197.9 104.1 198.0 104.0 197.8 C 103.9 197.6 103.9 196.6 104.1 196.5 C 104.4 196.4 104.9 196.5 104.8 196.2 C 104.8 195.9 105.0 195.3 104.8 195.3 C 104.7 195.3 104.6 195.1 104.3 195.0 C 104.0 195.0 103.8 194.4 103.7 194.3 C 103.6 194.1 103.5 193.6 103.5 193.6 C 103.7 193.4 103.8 193.3 104.0 193.1 C 104.0 193.1 104.5 193.4 104.6 193.6 C 104.7 193.8 105.0 193.5 105.1 193.3 C 105.1 193.2 105.1 192.0 105.1 192.0 C 104.7 192.0 104.3 191.9 103.9 191.9 C 103.9 191.6 103.8 191.3 103.7 191.0 C 103.7 191.0 105.1 191.2 105.1 190.6 C 105.1 190.1 105.1 189.4 105.1 189.4 C 105.1 189.4 104.6 188.8 104.6 188.7 C 104.6 188.5 103.4 188.4 103.4 188.4 C 102.9 188.5 102.4 188.5 102.0 188.5 C 102.0 188.5 101.5 189.2 101.7 189.5 C 101.8 189.9 102.3 189.6 102.6 189.7 C 102.8 189.8 103.0 190.3 103.0 190.3 C 102.7 190.6 102.5 190.8 102.2 191.0 C 102.2 191.0 102.0 191.3 101.7 191.5 C 101.5 191.7 101.3 192.6 101.4 192.8 C 101.5 193.1 101.8 193.3 102.0 193.6 C 102.2 193.9 102.6 193.9 102.3 194.2 C 102.0 194.6 101.6 194.8 101.6 194.9 C 101.6 195.1 102.0 195.9 102.0 195.9 C 102.1 196.2 102.2 196.4 102.3 196.6 C 102.3 196.6 102.5 197.2 102.2 197.3 C 101.9 197.4 102.2 198.6 102.2 198.6 C 102.2 198.6 101.4 198.4 101.2 198.7 C 101.0 199.0 100.8 199.5 100.9 199.9 C 101.1 200.4 101.8 200.8 101.8 200.8 C 101.6 201.0 101.4 201.1 101.2 201.3 C 101.1 201.7 101.0 202.1 100.9 202.6 C 100.9 202.6 100.9 203.6 101.1 203.6 C 101.2 203.6 101.9 203.6 102.1 203.6 C 102.3 203.7 102.5 204.3 102.2 204.3 C 102.0 204.4 101.3 204.8 101.3 204.8 C 101.3 204.8 100.9 205.2 100.8 205.5 C 100.7 205.8 100.9 206.3 101.1 206.4 C 101.2 206.5 101.7 207.1 101.7 207.1 C 101.4 207.2 101.2 207.3 101.0 207.4 C 101.0 207.4 101.3 208.2 100.6 209.0 C 100.6 209.0 100.6 209.0 100.6 209.0 Z M 101.6 188.1 C 101.6 189.1 104.2 188.5 104.8 188.1 C 105.3 187.7 105.0 187.0 105.1 186.2 C 105.3 185.5 104.4 185.7 104.2 185.3 C 104.0 184.9 104.5 185.0 104.9 184.9 C 105.3 184.7 105.0 183.6 105.0 182.9 C 105.1 182.2 104.2 181.5 104.2 181.0 C 104.1 180.4 103.7 181.4 103.8 180.5 C 103.8 179.5 104.3 180.0 104.6 181.1 C 104.8 182.2 105.1 180.7 105.2 180.1 C 105.3 179.5 104.9 178.4 105.0 177.9 C 105.0 177.5 104.3 178.1 104.4 177.4 C 104.4 176.7 105.1 177.0 105.2 176.3 C 105.3 175.6 104.7 175.7 104.5 175.3 C 104.4 175.0 104.8 175.0 104.8 174.7 C 104.9 174.4 105.1 173.9 104.9 173.3 C 104.8 172.6 104.6 172.8 104.5 172.5 C 104.5 172.2 104.5 171.6 104.5 171.6 C 104.7 171.6 105.0 171.6 105.2 171.5 C 105.2 171.5 105.2 170.3 105.3 169.9 C 105.3 169.6 105.0 168.8 104.9 169.0 C 104.8 169.2 104.3 168.4 104.4 168.2 C 104.5 168.0 104.8 167.4 105.0 167.0 C 105.1 166.6 103.4 166.7 103.2 166.7 C 102.9 166.7 102.0 166.4 101.9 166.8 C 101.8 167.2 102.2 167.5 101.9 167.4 C 101.7 167.4 101.9 168.4 101.9 168.7 C 101.9 169.0 102.6 169.4 102.6 169.4 C 102.6 169.4 103.1 169.7 103.1 170.2 C 103.1 170.7 102.0 170.8 102.0 170.8 C 102.0 170.8 101.8 171.5 101.9 172.1 C 101.9 172.7 102.8 173.3 103.0 173.4 C 103.2 173.6 102.4 173.5 102.3 174.0 C 102.2 174.4 101.9 175.0 101.9 175.2 C 102.0 175.4 102.5 175.7 102.5 175.7 C 102.5 175.7 102.8 176.5 102.8 176.6 C 102.8 176.8 102.1 176.5 102.1 176.5 C 102.1 176.5 101.8 178.1 101.7 178.5 C 101.7 178.8 101.9 179.4 101.9 179.6 C 102.0 179.8 102.9 180.2 102.8 180.6 C 102.7 180.9 102.2 180.2 102.1 180.6 C 102.0 180.9 101.8 181.6 101.8 181.8 C 101.8 181.9 102.1 182.2 102.2 182.5 C 102.2 182.8 102.9 183.2 102.9 183.7 C 102.9 184.2 102.5 184.4 102.4 184.6 C 102.2 184.8 101.6 184.9 101.6 185.3 C 101.5 185.6 102.0 185.4 102.0 185.7 C 102.0 186.1 102.5 186.1 102.3 186.5 C 102.2 186.8 101.5 186.6 101.6 187.0 C 101.6 187.2 101.6 187.0 101.6 188.1 C 101.6 188.1 101.6 188.1 101.6 188.1 Z M 102.6 164.5 C 102.7 164.7 102.3 164.9 102.1 165.5 C 101.9 166.1 101.9 166.8 102.2 166.7 C 102.6 166.5 102.8 166.3 103.2 166.6 C 103.6 167.0 104.3 167.3 104.5 166.9 C 104.8 166.5 105.5 164.8 105.1 164.3 C 104.7 163.7 104.6 163.6 104.3 163.2 C 104.1 162.8 104.9 163.1 104.9 163.1 C 104.9 163.1 105.0 162.2 105.0 161.5 C 105.1 160.8 105.1 160.0 105.0 160.0 C 104.8 159.9 104.5 159.7 104.5 159.7 C 104.5 159.7 104.9 159.3 105.0 158.8 C 105.0 158.3 104.8 158.5 104.6 158.6 C 104.4 158.6 103.9 159.3 103.9 159.0 C 103.9 158.8 104.7 158.2 104.8 157.8 C 104.9 157.5 104.8 156.7 104.8 156.7 C 104.8 156.7 104.3 156.8 104.2 156.7 C 104.1 156.6 104.1 155.9 104.2 155.8 C 104.4 155.8 104.9 155.9 104.9 155.5 C 104.9 154.2 104.0 154.4 104.0 154.3 C 104.0 154.2 104.7 154.2 104.8 153.9 C 104.9 153.6 104.7 151.3 104.5 151.2 C 104.3 151.0 104.9 150.2 104.5 149.9 C 104.1 149.6 103.9 149.5 103.8 149.4 C 103.7 149.3 103.0 148.9 103.3 148.7 C 103.5 148.5 104.3 149.3 104.5 149.1 C 104.7 148.8 104.7 147.3 104.5 147.0 C 104.2 146.7 103.5 146.6 103.5 146.4 C 103.5 146.2 104.3 145.3 104.2 145.3 C 104.1 145.2 103.3 145.1 103.2 145.1 C 103.1 145.2 101.8 144.9 101.7 145.1 C 101.5 145.3 101.1 146.2 101.4 146.1 C 101.8 145.9 102.2 145.7 102.4 146.0 C 102.5 146.3 102.6 146.5 102.4 146.6 C 102.3 146.6 102.2 146.5 101.9 147.0 C 101.7 147.5 101.4 147.3 101.5 147.8 C 101.5 148.3 101.6 148.7 101.9 148.6 C 102.2 148.6 102.6 149.1 102.6 149.4 C 102.6 149.8 101.9 149.2 101.7 150.3 C 101.5 151.4 101.5 152.1 101.7 152.4 C 102.0 152.7 102.7 152.8 102.4 153.3 C 102.1 153.9 101.9 153.6 101.9 154.3 C 102.0 155.0 102.6 155.2 102.6 155.7 C 102.6 156.1 102.6 156.3 102.6 156.3 C 102.6 156.3 101.8 156.1 101.8 157.1 C 101.7 158.1 101.7 158.3 102.3 158.1 C 102.9 157.9 102.9 158.6 102.5 158.7 C 102.1 158.7 101.9 159.3 101.8 159.7 C 101.8 160.0 102.8 160.1 102.8 160.3 C 102.9 160.4 102.8 160.8 102.5 160.6 C 102.1 160.5 102.1 160.9 102.0 161.2 C 101.8 161.5 102.0 162.5 102.1 162.4 C 102.3 162.4 103.0 162.0 102.7 162.6 C 102.3 163.2 101.8 163.4 101.9 164.0 C 101.9 164.6 102.5 164.1 102.6 164.5 C 102.6 164.5 102.6 164.5 102.6 164.5 Z M 101.4 144.3 C 101.1 144.8 101.5 145.2 101.9 145.2 C 102.3 145.1 103.2 144.9 103.5 145.0 C 103.8 145.2 104.5 145.8 104.6 144.9 C 104.7 143.9 104.4 143.8 104.2 143.8 C 104.0 143.8 103.0 143.7 103.0 143.4 C 103.1 143.2 103.4 142.9 103.5 142.8 C 103.7 142.8 104.6 142.4 104.5 141.9 C 104.3 141.5 104.0 141.1 104.0 141.1 C 104.0 140.9 103.9 140.7 103.9 140.4 C 103.9 140.4 104.5 139.8 104.3 139.3 C 104.1 138.9 104.1 138.3 104.1 137.9 C 104.2 137.6 104.0 137.2 103.8 137.2 C 103.6 137.1 102.7 136.7 102.7 136.7 C 102.7 136.7 102.5 136.2 102.6 135.9 C 102.7 135.7 103.2 135.6 103.4 135.6 C 103.5 135.7 104.0 135.6 104.1 135.2 C 104.1 134.8 104.5 133.2 104.2 133.0 C 103.9 132.8 103.5 132.9 103.4 132.7 C 103.3 132.5 103.2 131.5 103.4 131.4 C 103.7 131.3 104.2 131.3 104.1 131.0 C 104.0 130.7 104.1 130.1 104.0 130.1 C 103.9 130.1 103.7 130.0 103.4 130.0 C 103.1 130.0 102.9 129.4 102.7 129.3 C 102.6 129.2 102.5 128.7 102.5 128.7 C 102.6 128.5 102.8 128.3 102.9 128.1 C 102.9 128.1 103.4 128.4 103.5 128.5 C 103.7 128.7 104.0 128.4 104.0 128.2 C 104.0 128.0 103.8 126.9 103.8 126.9 C 103.5 126.9 103.1 126.9 102.7 126.9 C 102.6 126.7 102.5 126.4 102.4 126.1 C 102.4 126.1 103.7 126.1 103.7 125.6 C 103.6 125.0 103.6 124.4 103.6 124.4 C 103.6 124.4 103.0 123.9 103.0 123.7 C 102.9 123.6 101.7 123.6 101.7 123.6 C 101.3 123.7 100.8 123.8 100.3 123.9 C 100.3 123.9 99.9 124.6 100.1 124.9 C 100.4 125.3 100.8 124.9 101.1 125.0 C 101.3 125.0 101.6 125.5 101.6 125.5 C 101.4 125.8 101.1 126.0 100.9 126.3 C 100.9 126.3 100.7 126.5 100.4 126.8 C 100.2 127.1 100.2 127.9 100.3 128.1 C 100.4 128.4 100.7 128.6 101.0 128.9 C 101.2 129.1 101.6 129.0 101.3 129.4 C 101.1 129.8 100.7 130.0 100.7 130.2 C 100.7 130.4 101.2 131.1 101.2 131.1 C 101.4 131.3 101.5 131.5 101.6 131.8 C 101.6 131.8 101.9 132.3 101.6 132.4 C 101.3 132.5 101.7 133.7 101.7 133.7 C 101.7 133.7 100.9 133.6 100.8 133.9 C 100.7 134.2 100.5 134.7 100.7 135.2 C 100.8 135.7 101.7 136.0 101.7 136.0 C 101.5 136.1 101.3 136.3 101.1 136.5 C 101.0 136.9 101.0 137.4 101.0 137.8 C 101.0 137.8 101.1 138.8 101.2 138.8 C 101.4 138.8 102.0 138.7 102.2 138.7 C 102.4 138.8 102.7 139.3 102.5 139.4 C 102.2 139.4 101.6 140.0 101.6 140.0 C 101.6 140.0 101.2 140.4 101.2 140.7 C 101.2 141.0 101.4 141.5 101.6 141.6 C 101.7 141.7 102.2 142.2 102.2 142.2 C 102.0 142.3 101.8 142.5 101.6 142.6 C 101.6 142.6 102.0 143.4 101.4 144.3 C 101.4 144.3 101.4 144.3 101.4 144.3 Z M 99.9 123.5 C 100.0 124.5 102.6 123.6 103.1 123.1 C 103.6 122.7 103.2 122.0 103.2 121.3 C 103.3 120.6 102.5 120.9 102.2 120.5 C 101.9 120.1 102.4 120.2 102.8 120.0 C 103.2 119.8 102.7 118.8 102.7 118.1 C 102.7 117.5 101.7 116.9 101.6 116.4 C 101.5 115.8 101.2 116.8 101.2 115.9 C 101.1 115.0 101.7 115.4 102.1 116.4 C 102.4 117.5 102.5 116.0 102.6 115.4 C 102.6 114.8 102.1 113.8 102.1 113.4 C 102.1 112.9 101.5 113.5 101.4 112.9 C 101.4 112.2 102.1 112.5 102.1 111.8 C 102.1 111.1 101.5 111.2 101.3 110.9 C 101.1 110.6 101.5 110.6 101.6 110.3 C 101.6 110.0 101.7 109.6 101.5 108.9 C 101.3 108.3 101.1 108.5 101.0 108.2 C 100.9 108.0 100.9 107.5 100.9 107.5 C 101.1 107.4 101.3 107.3 101.5 107.3 C 101.5 107.3 101.4 106.1 101.5 105.8 C 101.5 105.4 101.1 104.7 101.0 104.9 C 100.8 105.1 100.3 104.4 100.4 104.2 C 100.5 104.0 100.7 103.4 100.8 103.0 C 100.9 102.6 99.2 102.9 99.0 103.0 C 98.7 103.0 97.8 102.9 97.7 103.2 C 97.7 103.6 98.1 103.8 97.8 103.8 C 97.6 103.8 97.9 104.8 98.0 105.1 C 98.0 105.3 98.7 105.6 98.7 105.6 C 98.7 105.6 99.2 105.8 99.3 106.3 C 99.4 106.7 98.3 107.0 98.3 107.0 C 98.3 107.0 98.2 107.6 98.3 108.2 C 98.4 108.7 99.4 109.3 99.6 109.3 C 99.8 109.4 99.0 109.5 98.9 109.9 C 98.9 110.3 98.7 111.0 98.7 111.1 C 98.8 111.3 99.4 111.5 99.4 111.5 C 99.4 111.5 99.8 112.2 99.8 112.4 C 99.8 112.6 99.0 112.4 99.0 112.4 C 99.0 112.4 99.0 113.9 98.9 114.3 C 98.9 114.6 99.2 115.1 99.2 115.3 C 99.3 115.5 100.3 115.8 100.3 116.1 C 100.2 116.5 99.6 115.8 99.5 116.2 C 99.5 116.6 99.4 117.2 99.4 117.4 C 99.4 117.6 99.7 117.8 99.8 118.0 C 99.9 118.3 100.7 118.7 100.7 119.1 C 100.8 119.6 100.3 119.9 100.3 120.0 C 100.2 120.2 99.6 120.4 99.6 120.8 C 99.6 121.1 100.0 120.8 100.0 121.2 C 100.1 121.5 100.5 121.5 100.5 121.8 C 100.4 122.2 99.6 122.1 99.7 122.4 C 99.8 122.6 99.7 122.4 99.9 123.5 C 99.9 123.5 99.9 123.5 99.9 123.5 Z M 97.7 102.4 C 97.4 102.9 97.9 103.3 98.3 103.2 C 98.6 103.1 99.6 102.8 99.9 102.9 C 100.2 103.1 100.9 103.5 101.0 102.7 C 101.0 101.8 100.7 101.6 100.5 101.7 C 100.2 101.7 99.2 101.7 99.3 101.4 C 99.3 101.2 99.6 100.9 99.7 100.9 C 99.8 100.8 100.7 100.3 100.5 99.9 C 100.4 99.5 100.0 99.2 100.0 99.2 C 100.0 99.0 99.9 98.8 99.9 98.6 C 99.9 98.6 100.4 97.9 100.2 97.5 C 100.0 97.1 99.9 96.5 99.9 96.2 C 99.9 95.9 99.8 95.5 99.5 95.5 C 99.3 95.5 98.4 95.2 98.4 95.2 C 98.4 95.2 98.1 94.7 98.2 94.4 C 98.3 94.2 98.8 94.1 99.0 94.1 C 99.1 94.1 99.6 94.0 99.6 93.7 C 99.7 93.3 99.9 91.8 99.6 91.6 C 99.3 91.4 98.9 91.5 98.8 91.4 C 98.7 91.2 98.5 90.3 98.7 90.2 C 98.9 90.0 99.4 90.0 99.3 89.8 C 99.2 89.5 99.3 88.9 99.2 88.9 C 99.0 89.0 98.8 88.8 98.6 88.8 C 98.3 88.8 98.0 88.3 97.8 88.2 C 97.7 88.2 97.5 87.7 97.5 87.7 C 97.7 87.5 97.8 87.3 97.9 87.1 C 97.9 87.1 98.5 87.3 98.6 87.5 C 98.7 87.6 99.0 87.3 99.0 87.1 C 99.0 87.0 98.7 85.9 98.7 85.9 C 98.4 86.0 98.0 86.0 97.6 86.1 C 97.5 85.8 97.3 85.6 97.2 85.4 C 97.2 85.4 98.6 85.2 98.5 84.7 C 98.4 84.2 98.3 83.6 98.3 83.6 C 98.3 83.6 97.7 83.2 97.6 83.1 C 97.5 83.0 96.4 83.2 96.4 83.2 C 95.9 83.3 95.5 83.4 95.0 83.5 C 95.0 83.5 94.7 84.2 94.9 84.5 C 95.1 84.8 95.6 84.4 95.8 84.4 C 96.1 84.4 96.4 84.9 96.4 84.9 C 96.2 85.2 96.0 85.4 95.7 85.7 C 95.7 85.7 95.5 85.9 95.4 86.2 C 95.2 86.4 95.2 87.2 95.3 87.4 C 95.4 87.6 95.8 87.8 96.0 88.0 C 96.3 88.3 96.7 88.1 96.5 88.5 C 96.2 88.9 95.9 89.1 95.9 89.3 C 95.9 89.5 96.5 90.1 96.5 90.1 C 96.6 90.3 96.8 90.5 96.9 90.7 C 96.9 90.7 97.2 91.2 97.0 91.3 C 96.7 91.4 97.2 92.4 97.2 92.4 C 97.2 92.4 96.3 92.5 96.3 92.8 C 96.2 93.0 96.1 93.5 96.3 93.9 C 96.5 94.4 97.3 94.6 97.3 94.6 C 97.1 94.8 96.9 94.9 96.8 95.1 C 96.8 95.5 96.8 95.9 96.8 96.4 C 96.8 96.4 97.0 97.3 97.1 97.3 C 97.2 97.3 97.9 97.1 98.1 97.1 C 98.3 97.1 98.6 97.6 98.4 97.7 C 98.1 97.8 97.6 98.3 97.6 98.3 C 97.6 98.3 97.2 98.8 97.2 99.1 C 97.2 99.4 97.5 99.8 97.6 99.9 C 97.8 100.0 98.4 100.3 98.4 100.3 C 98.2 100.5 98.0 100.6 97.8 100.8 C 97.8 100.8 98.2 101.5 97.7 102.4 C 97.7 102.4 97.7 102.4 97.7 102.4 Z M 94.5 83.2 C 94.7 84.1 97.2 83.0 97.7 82.6 C 98.2 82.1 97.7 81.5 97.7 80.9 C 97.6 80.2 96.9 80.6 96.6 80.2 C 96.2 79.9 96.8 79.9 97.2 79.7 C 97.5 79.5 97.0 78.6 96.9 78.0 C 96.8 77.4 95.8 76.9 95.7 76.5 C 95.5 76.0 95.3 77.0 95.2 76.1 C 95.1 75.3 95.6 75.6 96.1 76.5 C 96.6 77.4 96.5 76.0 96.5 75.5 C 96.5 74.9 95.9 74.1 95.9 73.7 C 95.9 73.3 95.3 74.0 95.2 73.4 C 95.1 72.8 95.8 72.9 95.8 72.3 C 95.8 71.7 95.1 71.9 94.9 71.6 C 94.7 71.3 95.1 71.3 95.1 71.0 C 95.1 70.8 95.2 70.3 94.9 69.8 C 94.7 69.3 94.5 69.5 94.4 69.2 C 94.3 69.0 94.2 68.5 94.2 68.5 C 94.4 68.4 94.6 68.4 94.8 68.3 C 94.8 68.3 94.6 67.2 94.6 66.9 C 94.6 66.6 94.1 66.0 94.0 66.2 C 93.9 66.4 93.4 65.9 93.4 65.7 C 93.5 65.5 93.7 64.9 93.7 64.5 C 93.8 64.2 92.2 64.7 91.9 64.7 C 91.7 64.8 90.7 64.8 90.7 65.1 C 90.7 65.5 91.1 65.6 90.8 65.6 C 90.6 65.6 91.0 66.5 91.1 66.7 C 91.2 67.0 91.8 67.1 91.8 67.1 C 91.8 67.1 92.4 67.2 92.5 67.6 C 92.6 68.0 91.6 68.4 91.6 68.4 C 91.6 68.4 91.5 69.0 91.7 69.5 C 91.9 70.0 92.8 70.3 93.1 70.4 C 93.3 70.4 92.5 70.6 92.4 71.0 C 92.4 71.3 92.3 71.9 92.4 72.1 C 92.5 72.2 93.0 72.4 93.0 72.4 C 93.0 72.4 93.5 72.9 93.6 73.1 C 93.6 73.2 92.7 73.2 92.7 73.2 C 92.7 73.2 92.8 74.6 92.8 74.9 C 92.8 75.2 93.1 75.6 93.2 75.8 C 93.3 76.0 94.3 76.1 94.3 76.4 C 94.3 76.8 93.6 76.3 93.6 76.6 C 93.6 76.9 93.5 77.5 93.5 77.7 C 93.5 77.8 93.9 78.0 94.0 78.2 C 94.1 78.5 94.9 78.7 95.0 79.1 C 95.1 79.5 94.7 79.8 94.6 80.0 C 94.6 80.2 94.0 80.4 94.0 80.7 C 94.0 81.1 94.4 80.8 94.5 81.1 C 94.5 81.4 95.0 81.3 95.0 81.6 C 94.9 82.0 94.1 81.9 94.3 82.3 C 94.4 82.4 94.3 82.3 94.5 83.2 C 94.5 83.2 94.5 83.2 94.5 83.2 Z M 90.6 64.4 C 90.4 64.9 90.9 65.1 91.2 65.0 C 91.6 64.9 92.5 64.5 92.8 64.6 C 93.1 64.7 93.9 65.0 93.9 64.2 C 93.8 63.4 93.5 63.3 93.3 63.4 C 93.1 63.4 92.0 63.5 92.1 63.3 C 92.1 63.1 92.3 62.8 92.4 62.8 C 92.6 62.7 93.4 62.1 93.2 61.8 C 93.0 61.5 92.6 61.2 92.6 61.2 C 92.6 61.0 92.5 60.9 92.4 60.7 C 92.4 60.7 92.9 60.0 92.7 59.7 C 92.4 59.3 92.3 58.9 92.3 58.6 C 92.2 58.3 92.1 58.0 91.8 58.0 C 91.6 58.0 90.7 57.9 90.7 57.9 C 90.7 57.9 90.3 57.5 90.4 57.3 C 90.5 57.0 90.9 56.9 91.1 56.9 C 91.3 56.8 91.8 56.7 91.8 56.4 C 91.8 56.0 91.9 54.7 91.5 54.6 C 91.2 54.4 90.9 54.6 90.7 54.5 C 90.6 54.4 90.3 53.6 90.5 53.4 C 90.7 53.3 91.2 53.2 91.1 53.0 C 91.0 52.7 91.0 52.2 90.9 52.3 C 90.7 52.3 90.6 52.2 90.3 52.3 C 90.0 52.3 89.6 51.8 89.4 51.7 C 89.2 51.5 89.0 50.9 89.0 50.9 C 89.1 50.5 89.1 50.2 89.2 49.9 C 89.2 49.9 89.8 50.2 90.0 50.5 C 90.2 50.7 90.3 50.2 90.3 49.9 C 90.3 49.6 89.7 48.0 89.7 48.0 C 89.3 48.1 88.9 48.2 88.5 48.3 C 88.3 47.9 88.1 47.6 87.9 47.2 C 87.9 47.2 89.3 46.9 89.0 46.2 C 88.8 45.4 88.5 44.5 88.5 44.5 C 88.5 44.5 87.7 44.0 87.6 43.8 C 87.5 43.6 86.3 43.9 86.3 43.9 C 85.9 44.1 85.5 44.3 85.1 44.5 C 85.1 44.5 84.9 45.6 85.3 46.0 C 85.6 46.4 86.0 45.8 86.2 45.8 C 86.5 45.9 86.9 46.5 86.9 46.5 C 86.8 46.9 86.7 47.4 86.5 47.8 C 86.5 47.8 86.4 48.2 86.3 48.5 C 86.2 49.0 86.4 50.2 86.6 50.5 C 86.8 50.8 87.2 51.0 87.6 51.4 C 87.9 51.8 88.3 51.6 88.1 52.2 C 88.0 52.8 87.6 52.9 87.7 53.1 C 87.7 53.2 88.3 53.7 88.3 53.7 C 88.5 53.8 88.6 54.0 88.8 54.1 C 88.8 54.1 89.2 54.5 88.9 54.6 C 88.7 54.8 89.2 55.6 89.2 55.6 C 89.2 55.6 88.4 55.8 88.4 56.0 C 88.3 56.3 88.2 56.7 88.5 57.1 C 88.7 57.4 89.5 57.5 89.5 57.5 C 89.4 57.7 89.2 57.9 89.0 58.0 C 89.1 58.4 89.1 58.8 89.2 59.2 C 89.2 59.2 89.4 60.0 89.6 59.9 C 89.7 59.9 90.3 59.6 90.5 59.6 C 90.7 59.6 91.1 60.0 90.9 60.1 C 90.7 60.2 90.1 60.8 90.1 60.8 C 90.1 60.8 89.8 61.2 89.8 61.5 C 89.8 61.7 90.2 62.1 90.3 62.1 C 90.5 62.2 91.1 62.5 91.1 62.5 C 90.9 62.6 90.7 62.8 90.5 62.9 C 90.5 62.9 91.0 63.5 90.6 64.4 C 90.6 64.4 90.6 64.4 90.6 64.4 Z M 84.5 44.1 C 85.0 45.5 87.2 43.7 87.5 42.9 C 87.8 42.2 87.2 41.4 86.9 40.4 C 86.7 39.5 86.0 40.1 85.6 39.6 C 85.2 39.2 85.7 39.2 86.0 38.8 C 86.3 38.5 85.4 37.2 85.2 36.4 C 84.9 35.6 83.7 35.1 83.4 34.5 C 83.1 33.9 83.2 35.2 82.8 34.1 C 82.4 33.0 83.1 33.3 83.8 34.5 C 84.6 35.7 84.1 33.8 83.9 33.1 C 83.7 32.3 82.8 31.4 82.6 30.8 C 82.4 30.3 82.1 31.2 81.8 30.4 C 81.5 29.7 82.3 29.8 82.0 29.0 C 81.7 28.2 81.2 28.5 80.9 28.2 C 80.6 27.9 81.0 27.8 80.9 27.5 C 80.8 27.2 80.7 26.6 80.2 26.0 C 79.8 25.4 79.7 25.7 79.5 25.4 C 79.3 25.1 79.0 24.6 79.0 24.6 C 79.2 24.5 79.4 24.3 79.6 24.2 C 79.6 24.2 79.0 23.0 78.8 22.6 C 78.7 22.3 78.0 21.7 78.0 21.9 C 78.0 22.2 77.2 21.7 77.2 21.5 C 77.1 21.3 77.1 20.6 77.0 20.1 C 76.9 19.7 75.5 20.7 75.3 20.8 C 75.1 20.9 74.2 21.2 74.3 21.6 C 74.4 21.9 74.8 22.0 74.6 22.1 C 74.4 22.2 75.1 23.0 75.3 23.2 C 75.4 23.5 76.2 23.5 76.2 23.5 C 76.2 23.5 76.8 23.5 77.0 23.9 C 77.3 24.4 76.4 25.1 76.4 25.1 C 76.4 25.1 76.5 25.7 76.9 26.2 C 77.2 26.8 78.3 27.0 78.6 27.1 C 78.8 27.1 78.1 27.4 78.2 27.9 C 78.3 28.4 78.4 29.1 78.5 29.3 C 78.6 29.4 79.3 29.5 79.3 29.5 C 79.3 29.5 80.0 30.2 80.1 30.4 C 80.1 30.5 79.3 30.6 79.3 30.6 C 79.3 30.6 79.9 32.4 80.0 32.8 C 80.1 33.2 80.5 33.7 80.7 33.9 C 80.8 34.2 81.9 34.2 82.0 34.6 C 82.1 35.1 81.2 34.4 81.3 34.9 C 81.4 35.3 81.5 36.2 81.6 36.4 C 81.7 36.6 82.1 36.7 82.3 37.1 C 82.5 37.4 83.4 37.6 83.6 38.2 C 83.8 38.8 83.5 39.2 83.5 39.5 C 83.5 39.7 83.0 40.1 83.1 40.6 C 83.3 41.1 83.6 40.6 83.7 41.0 C 83.9 41.5 84.4 41.3 84.4 41.8 C 84.5 42.3 83.7 42.3 83.9 42.7 C 84.1 42.9 84.0 42.7 84.5 44.1 C 84.5 44.1 84.5 44.1 84.5 44.1 Z M 73.8 19.3 C 74.0 19.4 73.6 19.8 73.8 20.4 C 74.0 21.0 74.3 21.6 74.5 21.3 C 74.7 21.0 74.8 20.7 75.3 20.8 C 75.8 20.8 76.6 20.8 76.6 20.3 C 76.6 19.8 76.3 18.0 75.7 17.8 C 75.1 17.6 74.9 17.5 74.5 17.3 C 74.1 17.2 74.9 16.9 74.9 16.9 C 74.9 16.9 74.5 16.2 74.2 15.6 C 73.9 15.1 73.5 14.5 73.3 14.6 C 73.2 14.6 72.8 14.6 72.8 14.6 C 72.8 14.6 72.9 14.1 72.7 13.7 C 72.5 13.3 72.4 13.6 72.3 13.7 C 72.2 13.9 72.1 14.6 72.0 14.5 C 71.9 14.3 72.2 13.4 72.1 13.1 C 71.9 12.8 71.5 12.4 71.5 12.4 C 71.5 12.4 71.2 12.7 71.0 12.7 C 70.9 12.7 70.5 12.3 70.6 12.2 C 70.7 12.0 71.1 11.8 70.9 11.5 C 70.3 10.7 69.7 11.4 69.6 11.3 C 69.5 11.3 70.0 10.8 70.0 10.6 C 69.9 10.4 68.5 9.1 68.3 9.1 C 68.1 9.2 68.1 8.3 67.6 8.4 C 67.1 8.6 67.0 8.6 66.9 8.7 C 66.7 8.7 66.1 9.0 66.1 8.7 C 66.2 8.4 67.2 8.3 67.2 8.0 C 67.1 7.7 66.3 6.9 66.0 7.0 C 65.6 7.1 65.2 7.5 65.1 7.4 C 65.0 7.4 65.0 6.3 64.9 6.4 C 64.7 6.5 64.3 7.0 64.2 7.1 C 64.1 7.2 63.2 8.2 63.2 8.3 C 63.2 8.5 63.4 9.3 63.6 8.9 C 63.7 8.6 63.9 8.2 64.1 8.2 C 64.4 8.2 64.5 8.2 64.5 8.3 C 64.4 8.5 64.2 8.5 64.4 8.9 C 64.5 9.3 64.2 9.4 64.5 9.6 C 64.7 9.8 65.0 10.0 65.2 9.7 C 65.3 9.5 65.9 9.4 66.0 9.6 C 66.2 9.8 65.5 10.0 65.9 10.7 C 66.3 11.4 66.6 11.8 67.0 11.8 C 67.3 11.8 67.9 11.3 67.9 11.8 C 67.9 12.3 67.7 12.3 68.0 12.7 C 68.4 13.1 69.0 12.9 69.3 13.1 C 69.5 13.4 69.6 13.5 69.6 13.5 C 69.6 13.5 68.8 13.9 69.3 14.5 C 69.8 15.2 69.8 15.4 70.2 14.9 C 70.6 14.3 71.0 14.8 70.7 15.1 C 70.4 15.4 70.5 15.9 70.7 16.2 C 70.8 16.5 71.7 15.9 71.8 16.0 C 71.9 16.1 72.0 16.4 71.7 16.5 C 71.3 16.6 71.5 16.9 71.6 17.2 C 71.6 17.5 72.2 18.1 72.3 18.0 C 72.4 17.9 72.8 17.2 72.8 17.8 C 72.9 18.5 72.5 18.9 72.9 19.4 C 73.2 19.8 73.4 19.1 73.8 19.3 C 73.8 19.3 73.8 19.3 73.8 19.3 Z M 62.7 8.2 C 62.7 8.7 63.2 8.5 63.4 8.2 C 63.6 7.8 64.1 7.0 64.3 6.8 C 64.6 6.7 65.4 6.3 64.9 5.9 C 64.4 5.4 64.2 5.5 64.0 5.7 C 63.9 5.9 63.3 6.7 63.2 6.5 C 63.1 6.4 63.1 6.0 63.1 5.9 C 63.2 5.8 63.5 4.8 63.1 4.8 C 62.8 4.7 62.4 4.8 62.4 4.8 C 62.3 4.8 62.1 4.7 62.0 4.7 C 62.0 4.7 61.9 3.9 61.6 3.9 C 61.2 3.9 60.9 3.8 60.7 3.6 C 60.5 3.5 60.2 3.5 60.1 3.7 C 60.0 3.9 59.4 4.5 59.4 4.5 C 59.4 4.5 59.0 4.6 58.9 4.5 C 58.8 4.3 58.9 3.8 59.0 3.7 C 59.1 3.5 59.2 3.1 59.0 2.9 C 58.8 2.7 58.0 2.0 57.8 2.2 C 57.5 2.5 57.5 2.8 57.4 2.9 C 57.2 3.0 56.6 2.9 56.6 2.6 C 56.6 2.4 56.7 1.9 56.5 1.9 C 56.3 1.9 55.9 1.7 55.9 1.9 C 55.9 2.0 55.8 2.1 55.7 2.4 C 55.7 2.7 55.3 2.9 55.2 3.0 C 55.1 3.1 54.8 3.2 54.8 3.2 C 54.7 3.0 54.6 2.8 54.5 2.7 C 54.5 2.7 54.7 2.2 54.9 2.1 C 55.0 2.0 54.8 1.7 54.7 1.6 C 54.6 1.6 53.8 1.6 53.8 1.6 C 53.8 2.0 53.8 2.4 53.8 2.8 C 53.6 2.9 53.4 2.9 53.3 3.0 C 53.3 3.0 53.3 1.7 53.0 1.7 C 52.6 1.7 52.2 1.7 52.2 1.7 C 52.2 1.7 51.9 2.3 51.8 2.3 C 51.7 2.4 51.8 3.6 51.8 3.6 C 51.9 4.0 52.0 4.5 52.1 5.0 C 52.1 5.0 52.4 5.4 52.6 5.2 C 52.8 5.0 52.6 4.5 52.6 4.3 C 52.6 4.0 52.9 3.8 52.9 3.8 C 53.1 4.0 53.2 4.3 53.4 4.6 C 53.4 4.6 53.5 4.8 53.6 5.0 C 53.7 5.2 54.1 5.4 54.3 5.3 C 54.4 5.2 54.5 4.9 54.7 4.7 C 54.9 4.5 54.9 4.1 55.1 4.4 C 55.2 4.7 55.3 5.1 55.4 5.1 C 55.5 5.1 56.0 4.7 56.0 4.7 C 56.1 4.7 56.2 4.6 56.4 4.5 C 56.4 4.5 56.7 4.3 56.7 4.6 C 56.7 4.9 57.4 4.7 57.4 4.7 C 57.4 4.7 57.1 5.5 57.3 5.7 C 57.4 5.9 57.6 6.1 57.9 6.1 C 58.1 6.0 58.6 5.3 58.6 5.3 C 58.6 5.6 58.6 5.8 58.6 6.0 C 58.8 6.1 59.1 6.3 59.3 6.4 C 59.3 6.4 59.8 6.6 59.9 6.5 C 59.9 6.4 60.2 5.7 60.3 5.6 C 60.4 5.4 60.8 5.3 60.7 5.6 C 60.7 5.8 60.6 6.5 60.6 6.5 C 60.6 6.5 60.7 7.0 60.8 7.1 C 60.9 7.2 61.3 7.2 61.4 7.1 C 61.6 7.0 62.1 6.7 62.1 6.7 C 62.0 7.0 62.0 7.2 62.0 7.4 C 62.0 7.4 62.6 7.4 62.7 8.2 C 62.7 8.2 62.7 8.2 62.7 8.2 Z M 51.9 5.4 C 52.4 5.3 51.8 2.7 51.4 2.2 C 51.1 1.7 50.7 2.1 50.2 2.1 C 49.7 2.1 50.1 2.9 49.9 3.2 C 49.7 3.5 49.6 2.9 49.4 2.6 C 49.2 2.2 48.6 2.7 48.2 2.8 C 47.8 2.9 47.7 3.9 47.4 4.1 C 47.1 4.3 47.8 4.4 47.3 4.6 C 46.7 4.8 46.8 4.2 47.3 3.7 C 47.9 3.2 46.9 3.3 46.4 3.4 C 46.0 3.5 45.6 4.1 45.3 4.2 C 45.0 4.3 45.6 4.7 45.2 4.9 C 44.8 5.1 44.7 4.4 44.2 4.6 C 43.7 4.7 44.1 5.3 44.0 5.5 C 43.9 5.8 43.7 5.4 43.5 5.5 C 43.3 5.5 42.9 5.6 42.6 6.0 C 42.3 6.3 42.5 6.4 42.4 6.6 C 42.2 6.8 41.9 7.0 41.9 7.0 C 41.7 6.8 41.6 6.7 41.4 6.5 C 41.4 6.5 40.7 7.0 40.4 7.1 C 40.2 7.3 39.9 7.9 40.1 7.9 C 40.4 7.9 40.2 8.7 40.0 8.7 C 39.9 8.7 39.3 8.7 38.9 8.9 C 38.6 9.0 39.9 10.2 40.0 10.3 C 40.2 10.5 40.7 11.3 41.0 11.2 C 41.2 11.1 41.1 10.7 41.3 10.9 C 41.4 11.1 41.8 10.4 42.0 10.3 C 42.1 10.1 41.9 9.5 41.9 9.5 C 41.9 9.5 41.7 9.0 42.0 8.7 C 42.2 8.5 43.0 9.3 43.0 9.3 C 43.0 9.3 43.4 9.2 43.7 8.9 C 44.0 8.7 43.8 7.7 43.8 7.5 C 43.8 7.3 44.2 8.0 44.5 7.9 C 44.8 7.8 45.2 7.9 45.3 7.7 C 45.4 7.7 45.2 7.1 45.2 7.1 C 45.2 7.1 45.5 6.6 45.6 6.5 C 45.7 6.4 45.9 7.2 45.9 7.2 C 45.9 7.2 46.9 7.0 47.1 7.0 C 47.3 6.9 47.4 6.6 47.5 6.5 C 47.6 6.4 47.4 5.4 47.7 5.4 C 47.9 5.4 47.7 6.1 48.0 6.1 C 48.2 6.1 48.6 6.2 48.7 6.1 C 48.8 6.1 48.8 5.7 48.9 5.6 C 49.1 5.5 49.1 4.8 49.3 4.7 C 49.6 4.6 49.8 5.0 50.0 5.1 C 50.1 5.1 50.3 5.7 50.5 5.7 C 50.7 5.7 50.4 5.3 50.6 5.3 C 50.8 5.2 50.7 4.8 50.9 4.8 C 51.1 4.9 51.2 5.7 51.3 5.5 C 51.4 5.5 51.3 5.5 51.9 5.4 C 51.9 5.4 51.9 5.4 51.9 5.4 Z M 40.4 11.6 C 41.0 11.6 40.9 11.0 40.6 10.8 C 40.3 10.6 39.5 9.9 39.4 9.6 C 39.4 9.3 39.2 8.5 38.6 8.9 C 38.0 9.3 38.1 9.6 38.2 9.8 C 38.4 9.9 39.0 10.8 38.8 10.8 C 38.6 10.9 38.3 10.9 38.2 10.8 C 38.0 10.7 37.1 10.3 37.0 10.6 C 36.8 11.0 36.8 11.4 36.8 11.4 C 36.7 11.6 36.6 11.7 36.5 11.9 C 36.5 11.9 35.7 11.9 35.5 12.3 C 35.3 12.7 35.0 13.1 34.8 13.3 C 34.6 13.5 34.4 13.8 34.6 14.0 C 34.7 14.2 35.1 15.1 35.1 15.1 C 35.1 15.1 35.0 15.6 34.8 15.7 C 34.5 15.8 34.1 15.5 34.0 15.4 C 33.9 15.2 33.5 15.0 33.2 15.2 C 33.0 15.4 31.7 16.4 31.8 16.8 C 31.9 17.1 32.2 17.3 32.2 17.5 C 32.2 17.7 31.7 18.5 31.4 18.5 C 31.2 18.4 30.8 18.1 30.7 18.4 C 30.6 18.7 30.1 19.1 30.2 19.2 C 30.4 19.3 30.4 19.5 30.6 19.7 C 30.8 19.8 30.7 20.5 30.8 20.6 C 30.8 20.8 30.6 21.3 30.6 21.3 C 30.4 21.4 30.1 21.5 29.9 21.6 C 29.9 21.6 29.6 21.0 29.6 20.8 C 29.7 20.6 29.2 20.7 29.1 20.8 C 29.0 21.0 28.4 22.1 28.4 22.1 C 28.7 22.3 29.1 22.5 29.4 22.7 C 29.3 23.0 29.2 23.3 29.2 23.6 C 29.2 23.6 28.0 22.8 27.8 23.4 C 27.5 23.9 27.1 24.5 27.1 24.5 C 27.1 24.5 27.3 25.3 27.3 25.5 C 27.2 25.6 28.3 26.3 28.3 26.3 C 28.7 26.4 29.1 26.6 29.6 26.8 C 29.6 26.8 30.3 26.3 30.3 25.9 C 30.3 25.5 29.7 25.5 29.6 25.4 C 29.4 25.2 29.5 24.6 29.5 24.6 C 29.8 24.5 30.2 24.4 30.5 24.3 C 30.5 24.3 30.9 24.2 31.2 24.1 C 31.5 24.0 32.1 23.3 32.1 23.0 C 32.1 22.7 32.0 22.4 31.9 22.0 C 31.9 21.6 31.5 21.5 32.0 21.3 C 32.4 21.2 32.8 21.2 32.9 21.1 C 33.0 20.9 33.0 20.0 33.0 20.0 C 33.1 19.8 33.1 19.5 33.1 19.3 C 33.1 19.3 33.2 18.7 33.5 18.8 C 33.8 18.9 34.1 17.8 34.1 17.8 C 34.1 17.8 34.8 18.4 35.0 18.2 C 35.3 18.1 35.7 17.8 35.8 17.4 C 36.0 17.0 35.5 16.2 35.5 16.2 C 35.8 16.2 36.0 16.3 36.3 16.3 C 36.5 16.0 36.8 15.7 37.1 15.5 C 37.1 15.5 37.6 14.8 37.5 14.7 C 37.4 14.6 36.8 14.2 36.7 14.1 C 36.6 13.9 36.7 13.4 36.9 13.5 C 37.1 13.6 37.9 13.8 37.9 13.8 C 37.9 13.8 38.4 13.8 38.6 13.6 C 38.8 13.5 38.9 13.0 38.8 12.9 C 38.8 12.7 38.7 12.1 38.7 12.1 C 38.9 12.1 39.1 12.2 39.4 12.3 C 39.4 12.3 39.6 11.6 40.4 11.6 C 40.4 11.6 40.4 11.6 40.4 11.6 Z M 28.1 28.9 C 28.1 28.7 28.6 28.7 29.0 28.2 C 29.5 27.6 29.9 26.9 29.5 26.9 C 29.2 26.9 28.9 27.0 28.7 26.5 C 28.5 26.1 28.0 25.4 27.6 25.7 C 27.1 26.0 25.7 27.3 25.7 28.0 C 25.8 28.7 25.9 29.0 25.9 29.5 C 25.9 30.0 25.3 29.4 25.3 29.4 C 25.3 29.4 24.8 30.3 24.4 31.0 C 24.0 31.7 23.6 32.6 23.7 32.7 C 23.8 32.9 24.0 33.3 24.0 33.3 C 24.0 33.3 23.4 33.5 23.1 34.0 C 22.8 34.6 23.1 34.5 23.3 34.4 C 23.5 34.4 24.3 34.0 24.2 34.2 C 24.1 34.4 23.0 34.9 22.8 35.2 C 22.6 35.6 22.2 36.6 22.2 36.6 C 22.2 36.6 22.7 36.6 22.8 36.8 C 22.8 36.9 22.5 37.8 22.3 37.8 C 22.2 37.8 21.8 37.5 21.6 38.0 C 20.9 39.5 21.8 39.6 21.8 39.7 C 21.8 39.9 21.1 39.6 20.9 39.9 C 20.7 40.3 19.7 43.3 19.8 43.5 C 19.9 43.8 18.9 44.6 19.2 45.2 C 19.4 45.8 19.5 46.0 19.6 46.1 C 19.6 46.3 20.1 47.1 19.7 47.3 C 19.4 47.5 19.1 46.0 18.7 46.3 C 18.4 46.6 17.7 48.7 17.8 49.1 C 17.9 49.7 18.5 50.0 18.4 50.3 C 18.3 50.6 17.1 51.5 17.2 51.7 C 17.3 51.8 18.0 52.2 18.1 52.2 C 18.2 52.2 19.4 52.8 19.6 52.7 C 19.8 52.6 20.6 51.5 20.2 51.5 C 19.8 51.6 19.3 51.7 19.3 51.3 C 19.3 50.8 19.3 50.5 19.5 50.5 C 19.6 50.4 19.7 50.7 20.2 50.0 C 20.6 49.4 20.8 49.8 21.0 49.2 C 21.2 48.5 21.3 47.9 21.0 47.8 C 20.7 47.8 20.6 47.0 20.7 46.5 C 20.9 46.1 21.2 47.0 22.0 45.7 C 22.7 44.3 23.0 43.4 23.0 43.0 C 22.9 42.5 22.2 42.1 22.8 41.6 C 23.3 41.0 23.4 41.5 23.7 40.6 C 24.0 39.7 23.6 39.2 23.8 38.6 C 23.9 38.1 24.0 37.9 24.0 37.9 C 24.0 37.9 24.7 38.5 25.2 37.3 C 25.7 36.2 25.9 35.9 25.2 36.0 C 24.6 36.0 24.9 35.1 25.3 35.2 C 25.7 35.3 26.2 34.7 26.4 34.4 C 26.6 34.0 25.7 33.5 25.8 33.3 C 25.8 33.1 26.1 32.7 26.3 33.0 C 26.5 33.3 26.8 32.9 27.0 32.6 C 27.3 32.3 27.7 31.3 27.5 31.2 C 27.3 31.2 26.5 31.4 27.1 30.8 C 27.7 30.3 28.3 30.4 28.5 29.7 C 28.8 29.1 28.0 29.4 28.1 28.9 C 28.1 28.9 28.1 28.9 28.1 28.9 Z M 19.6 53.4 C 20.0 53.1 19.7 52.7 19.3 52.6 C 19.0 52.5 18.0 52.4 17.8 52.2 C 17.5 52.0 17.0 51.3 16.7 52.0 C 16.3 52.6 16.5 52.9 16.8 52.9 C 17.0 53.0 17.9 53.4 17.8 53.6 C 17.6 53.7 17.3 53.8 17.2 53.9 C 17.0 53.9 16.0 53.9 16.0 54.2 C 16.1 54.6 16.2 55.0 16.2 55.0 C 16.2 55.2 16.2 55.4 16.1 55.6 C 16.1 55.6 15.4 55.9 15.4 56.3 C 15.5 56.7 15.4 57.2 15.2 57.5 C 15.1 57.7 15.1 58.1 15.3 58.2 C 15.5 58.3 16.2 58.9 16.2 58.9 C 16.2 58.9 16.3 59.4 16.2 59.5 C 16.0 59.7 15.5 59.6 15.3 59.5 C 15.2 59.4 14.7 59.4 14.5 59.6 C 14.4 59.9 13.6 61.1 13.8 61.3 C 14.0 61.6 14.4 61.7 14.5 61.8 C 14.5 62.0 14.3 62.9 14.1 62.9 C 13.8 62.9 13.4 62.7 13.4 63.0 C 13.3 63.2 13.1 63.7 13.2 63.7 C 13.3 63.8 13.4 64.0 13.7 64.1 C 14.0 64.2 14.1 64.7 14.2 64.8 C 14.3 65.0 14.2 65.4 14.2 65.4 C 14.0 65.5 13.9 65.6 13.7 65.8 C 13.7 65.8 13.2 65.4 13.2 65.2 C 13.1 65.0 12.8 65.2 12.7 65.3 C 12.6 65.5 12.4 66.5 12.4 66.5 C 12.8 66.6 13.2 66.7 13.6 66.8 C 13.6 67.0 13.6 67.3 13.6 67.5 C 13.6 67.5 12.3 67.1 12.2 67.6 C 12.1 68.1 12.0 68.6 12.0 68.6 C 12.0 68.6 12.4 69.2 12.4 69.3 C 12.4 69.5 13.6 69.8 13.6 69.8 C 14.0 69.9 14.5 69.9 15.0 70.0 C 15.0 70.0 15.5 69.5 15.4 69.2 C 15.3 68.9 14.8 69.0 14.5 68.9 C 14.3 68.8 14.2 68.3 14.2 68.3 C 14.5 68.1 14.8 68.0 15.1 67.8 C 15.1 67.8 15.4 67.7 15.7 67.5 C 15.9 67.4 16.2 66.7 16.2 66.5 C 16.2 66.3 15.9 66.0 15.7 65.7 C 15.6 65.4 15.1 65.3 15.5 65.1 C 15.9 64.9 16.3 64.8 16.4 64.7 C 16.4 64.5 16.1 63.8 16.1 63.8 C 16.0 63.6 16.0 63.4 15.9 63.2 C 15.9 63.2 15.8 62.6 16.1 62.6 C 16.4 62.6 16.3 61.6 16.3 61.6 C 16.3 61.6 17.1 61.9 17.3 61.7 C 17.5 61.5 17.8 61.1 17.8 60.7 C 17.7 60.3 17.0 59.8 17.0 59.8 C 17.3 59.7 17.5 59.6 17.7 59.6 C 17.9 59.2 18.0 58.9 18.2 58.5 C 18.2 58.5 18.4 57.7 18.2 57.7 C 18.1 57.6 17.4 57.5 17.2 57.4 C 17.1 57.3 17.0 56.9 17.2 56.9 C 17.5 56.9 18.2 56.7 18.2 56.7 C 18.2 56.7 18.7 56.5 18.8 56.2 C 18.9 56.0 18.8 55.6 18.7 55.4 C 18.6 55.3 18.2 54.8 18.2 54.8 C 18.4 54.7 18.7 54.7 18.9 54.6 C 18.9 54.6 18.8 53.9 19.6 53.4 C 19.6 53.4 19.6 53.4 19.6 53.4 Z M 14.1 71.9 C 14.1 71.7 14.6 71.6 14.9 71.2 C 15.1 70.7 15.3 70.1 15.0 70.1 C 14.6 70.2 14.4 70.3 14.0 70.0 C 13.7 69.6 13.1 69.2 12.8 69.4 C 12.4 69.7 11.4 71.0 11.7 71.5 C 11.9 72.0 12.1 72.2 12.2 72.6 C 12.4 73.0 11.6 72.6 11.6 72.6 C 11.6 72.6 11.4 73.3 11.2 73.9 C 11.0 74.5 10.9 75.1 11.0 75.2 C 11.1 75.3 11.4 75.6 11.4 75.6 C 11.4 75.6 10.9 75.8 10.8 76.2 C 10.6 76.6 10.8 76.5 11.0 76.5 C 11.2 76.5 11.8 76.0 11.8 76.2 C 11.8 76.4 10.9 76.8 10.7 77.1 C 10.6 77.4 10.5 78.1 10.5 78.1 C 10.5 78.1 11.0 78.1 11.1 78.2 C 11.2 78.3 11.1 78.9 10.9 78.9 C 10.8 78.9 10.3 78.8 10.2 79.1 C 9.9 80.2 10.8 80.2 10.8 80.3 C 10.8 80.4 10.1 80.2 10.0 80.5 C 9.8 80.7 9.6 82.8 9.7 83.0 C 9.8 83.1 9.1 83.7 9.5 84.1 C 9.8 84.5 9.9 84.6 10.0 84.7 C 10.1 84.7 10.7 85.3 10.4 85.4 C 10.1 85.5 9.5 84.6 9.3 84.8 C 9.0 85.0 8.7 86.3 8.9 86.6 C 9.2 87.0 9.8 87.2 9.7 87.4 C 9.7 87.5 8.7 88.2 8.9 88.2 C 9.0 88.3 9.7 88.5 9.8 88.6 C 9.9 88.6 11.1 89.0 11.3 88.9 C 11.5 88.8 12.1 88.1 11.7 88.1 C 11.4 88.2 10.9 88.3 10.8 88.0 C 10.7 87.6 10.7 87.5 10.8 87.4 C 11.0 87.4 11.1 87.6 11.4 87.2 C 11.7 86.7 12.0 87.0 12.0 86.6 C 12.1 86.1 12.1 85.7 11.8 85.7 C 11.5 85.7 11.2 85.2 11.3 84.9 C 11.3 84.6 11.9 85.2 12.3 84.3 C 12.7 83.3 12.9 82.7 12.7 82.4 C 12.5 82.1 11.8 81.9 12.2 81.5 C 12.6 81.1 12.7 81.4 12.8 80.8 C 12.9 80.1 12.4 79.8 12.5 79.4 C 12.5 79.0 12.6 78.9 12.6 78.9 C 12.6 78.9 13.3 79.3 13.6 78.4 C 13.8 77.5 13.9 77.3 13.3 77.4 C 12.6 77.5 12.7 76.8 13.1 76.8 C 13.5 76.9 13.9 76.4 14.0 76.1 C 14.1 75.9 13.1 75.6 13.1 75.4 C 13.1 75.3 13.3 75.0 13.6 75.2 C 13.8 75.4 14.0 75.0 14.1 74.8 C 14.3 74.6 14.4 73.7 14.2 73.7 C 14.1 73.7 13.3 73.9 13.8 73.5 C 14.2 73.0 14.7 73.0 14.8 72.5 C 14.9 71.9 14.2 72.3 14.1 71.9 C 14.1 71.9 14.1 71.9 14.1 71.9 Z M 11.4 89.7 C 11.8 89.3 11.4 88.8 11.1 88.8 C 10.7 88.8 9.7 88.8 9.5 88.6 C 9.2 88.4 8.6 87.7 8.3 88.5 C 8.1 89.3 8.3 89.5 8.5 89.6 C 8.8 89.6 9.8 90.0 9.6 90.2 C 9.5 90.4 9.2 90.5 9.0 90.6 C 8.9 90.6 7.9 90.8 8.0 91.2 C 8.0 91.6 8.2 92.0 8.2 92.0 C 8.2 92.2 8.2 92.5 8.2 92.7 C 8.2 92.7 7.5 93.1 7.6 93.6 C 7.6 94.1 7.6 94.6 7.5 94.9 C 7.4 95.2 7.4 95.6 7.6 95.7 C 7.8 95.8 8.6 96.3 8.6 96.3 C 8.6 96.3 8.8 96.9 8.6 97.1 C 8.4 97.3 8.0 97.3 7.8 97.2 C 7.6 97.1 7.1 97.1 7.0 97.4 C 6.9 97.8 6.2 99.2 6.4 99.4 C 6.7 99.7 7.1 99.7 7.1 99.9 C 7.2 100.1 7.1 101.0 6.9 101.1 C 6.6 101.1 6.1 101.0 6.1 101.3 C 6.1 101.6 5.9 102.2 6.1 102.2 C 6.2 102.2 6.3 102.4 6.6 102.5 C 6.9 102.5 7.0 103.1 7.1 103.2 C 7.3 103.4 7.2 103.8 7.2 103.8 C 7.1 104.0 6.9 104.2 6.7 104.4 C 6.7 104.4 6.2 103.9 6.2 103.8 C 6.1 103.6 5.7 103.8 5.7 104.0 C 5.6 104.2 5.6 105.3 5.6 105.3 C 5.9 105.3 6.3 105.4 6.7 105.5 C 6.7 105.7 6.8 106.0 6.8 106.3 C 6.8 106.3 5.5 106.0 5.5 106.5 C 5.4 107.1 5.3 107.7 5.3 107.7 C 5.3 107.7 5.8 108.3 5.8 108.4 C 5.8 108.6 7.0 108.8 7.0 108.8 C 7.5 108.8 7.9 108.8 8.4 108.8 C 8.4 108.8 8.9 108.2 8.8 107.9 C 8.6 107.5 8.1 107.7 7.9 107.7 C 7.7 107.6 7.5 107.0 7.5 107.0 C 7.8 106.8 8.1 106.6 8.4 106.4 C 8.4 106.4 8.6 106.2 8.9 106.0 C 9.1 105.8 9.4 105.0 9.3 104.8 C 9.2 104.6 9.0 104.3 8.8 104.0 C 8.6 103.7 8.2 103.7 8.5 103.4 C 8.9 103.1 9.3 102.9 9.3 102.8 C 9.3 102.6 9.0 101.8 9.0 101.8 C 8.9 101.6 8.8 101.4 8.7 101.1 C 8.7 101.1 8.6 100.6 8.9 100.5 C 9.1 100.5 9.0 99.3 9.0 99.3 C 9.0 99.3 9.8 99.6 10.0 99.3 C 10.1 99.0 10.4 98.6 10.3 98.1 C 10.2 97.7 9.5 97.2 9.5 97.2 C 9.7 97.1 10.0 97.0 10.2 96.9 C 10.3 96.5 10.4 96.1 10.5 95.7 C 10.5 95.7 10.6 94.7 10.5 94.7 C 10.4 94.7 9.7 94.7 9.5 94.6 C 9.3 94.5 9.2 94.0 9.4 93.9 C 9.6 93.9 10.3 93.6 10.3 93.6 C 10.3 93.6 10.8 93.2 10.9 93.0 C 11.0 92.7 10.8 92.2 10.7 92.1 C 10.6 92.0 10.2 91.4 10.2 91.4 C 10.4 91.4 10.6 91.3 10.9 91.2 C 10.9 91.2 10.7 90.4 11.4 89.7 C 11.4 89.7 11.4 89.7 11.4 89.7 Z M 7.7 111.0 C 7.7 110.8 8.2 110.7 8.4 110.1 C 8.6 109.6 8.7 108.9 8.4 109.0 C 8.1 109.1 7.8 109.2 7.5 108.9 C 7.1 108.6 6.5 108.1 6.2 108.5 C 5.8 108.9 5.0 110.4 5.3 110.9 C 5.6 111.4 5.7 111.6 5.9 112.0 C 6.1 112.4 5.3 112.1 5.3 112.1 C 5.3 112.1 5.1 112.9 5.0 113.6 C 4.9 114.2 4.8 114.9 4.9 115.0 C 5.1 115.1 5.3 115.4 5.3 115.4 C 5.3 115.4 4.9 115.7 4.8 116.1 C 4.7 116.6 4.9 116.4 5.1 116.4 C 5.3 116.3 5.8 115.8 5.8 116.0 C 5.8 116.2 5.0 116.8 4.8 117.1 C 4.7 117.4 4.7 118.2 4.7 118.2 C 4.7 118.2 5.2 118.1 5.3 118.2 C 5.4 118.3 5.3 119.0 5.2 119.1 C 5.0 119.1 4.5 119.0 4.5 119.3 C 4.3 120.5 5.2 120.4 5.2 120.5 C 5.2 120.6 4.5 120.6 4.4 120.8 C 4.3 121.1 4.2 123.4 4.3 123.5 C 4.5 123.7 3.8 124.4 4.2 124.8 C 4.6 125.2 4.7 125.3 4.8 125.3 C 4.9 125.4 5.5 125.9 5.3 126.1 C 5.0 126.3 4.3 125.3 4.1 125.6 C 3.8 125.8 3.7 127.3 3.9 127.5 C 4.1 127.9 4.8 128.1 4.8 128.3 C 4.7 128.5 3.8 129.2 4.0 129.3 C 4.1 129.4 4.8 129.6 4.9 129.6 C 5.0 129.6 6.3 129.9 6.5 129.8 C 6.6 129.6 7.2 128.8 6.8 128.9 C 6.4 129.0 6.0 129.1 5.8 128.8 C 5.7 128.5 5.7 128.3 5.8 128.3 C 6.0 128.2 6.1 128.4 6.4 127.9 C 6.7 127.4 6.9 127.7 6.9 127.2 C 7.0 126.7 6.9 126.3 6.6 126.3 C 6.4 126.3 6.0 125.8 6.1 125.5 C 6.1 125.1 6.7 125.7 7.0 124.7 C 7.3 123.6 7.5 123.0 7.2 122.6 C 7.0 122.3 6.3 122.2 6.7 121.7 C 7.0 121.2 7.2 121.5 7.3 120.8 C 7.3 120.2 6.7 119.8 6.8 119.4 C 6.8 119.0 6.8 118.8 6.8 118.8 C 6.8 118.8 7.6 119.1 7.8 118.2 C 7.9 117.2 8.0 117.0 7.4 117.1 C 6.8 117.3 6.8 116.5 7.2 116.5 C 7.6 116.6 7.9 116.0 8.0 115.7 C 8.1 115.3 7.1 115.1 7.1 115.0 C 7.1 114.9 7.2 114.5 7.5 114.7 C 7.8 114.9 7.9 114.5 8.0 114.2 C 8.2 113.9 8.2 113.0 8.0 113.0 C 7.8 113.0 7.1 113.3 7.5 112.8 C 7.9 112.2 8.4 112.1 8.5 111.5 C 8.5 111.0 7.9 111.4 7.7 111.0 C 7.7 111.0 7.7 111.0 7.7 111.0 Z M 6.8 130.2 C 6.8 129.1 4.1 129.6 3.5 130.0 C 3.0 130.4 3.3 131.1 3.1 131.8 C 3.0 132.5 3.8 132.3 4.0 132.8 C 4.2 133.2 3.7 133.0 3.3 133.2 C 2.9 133.3 3.2 134.4 3.1 135.1 C 3.0 135.8 3.9 136.5 3.9 137.0 C 3.9 137.6 4.4 136.6 4.3 137.6 C 4.2 138.5 3.7 138.0 3.5 136.9 C 3.3 135.8 3.0 137.3 2.8 137.9 C 2.7 138.5 3.0 139.5 3.0 140.0 C 2.9 140.5 3.6 139.9 3.5 140.6 C 3.5 141.3 2.8 140.9 2.7 141.6 C 2.5 142.3 3.2 142.2 3.3 142.6 C 3.4 143.0 3.1 142.9 3.0 143.2 C 2.9 143.5 2.7 144.0 2.8 144.6 C 2.9 145.3 3.1 145.1 3.2 145.4 C 3.2 145.7 3.2 146.3 3.2 146.3 C 3.0 146.3 2.7 146.3 2.5 146.3 C 2.5 146.3 2.4 147.6 2.3 147.9 C 2.3 148.3 2.5 149.1 2.7 148.9 C 2.8 148.7 3.3 149.5 3.2 149.7 C 3.0 149.9 2.7 150.5 2.5 150.9 C 2.4 151.3 4.1 151.2 4.3 151.2 C 4.6 151.2 5.5 151.5 5.6 151.2 C 5.7 150.8 5.4 150.5 5.6 150.6 C 5.9 150.6 5.7 149.5 5.7 149.2 C 5.7 148.9 5.1 148.6 5.1 148.6 C 5.1 148.6 4.5 148.2 4.5 147.8 C 4.6 147.3 5.6 147.1 5.6 147.1 C 5.6 147.1 5.9 146.6 5.8 146.0 C 5.8 145.4 5.0 144.7 4.8 144.5 C 4.6 144.4 5.4 144.5 5.5 144.0 C 5.6 143.6 5.9 143.0 5.9 142.8 C 5.9 142.7 5.3 142.3 5.3 142.3 C 5.3 142.3 5.0 141.5 5.0 141.4 C 5.0 141.2 5.8 141.5 5.8 141.5 C 5.8 141.5 6.1 139.9 6.2 139.6 C 6.3 139.3 6.1 138.7 6.1 138.5 C 6.1 138.2 5.1 137.8 5.2 137.5 C 5.3 137.1 5.8 137.9 5.9 137.5 C 6.1 137.2 6.3 136.5 6.3 136.4 C 6.3 136.2 6.0 135.9 6.0 135.6 C 5.9 135.3 5.2 134.9 5.2 134.4 C 5.3 133.9 5.7 133.7 5.8 133.5 C 6.0 133.4 6.6 133.3 6.7 132.9 C 6.7 132.6 6.2 132.8 6.3 132.4 C 6.3 132.1 5.8 132.1 5.9 131.7 C 6.0 131.4 6.8 131.6 6.7 131.2 C 6.7 131.0 6.7 131.2 6.8 130.2 C 6.8 130.2 6.8 130.2 6.8 130.2 Z M 5.5 152.1 C 5.9 151.6 5.4 151.1 5.0 151.1 C 4.7 151.2 3.7 151.3 3.4 151.1 C 3.2 150.9 2.5 150.3 2.3 151.2 C 2.1 152.1 2.4 152.3 2.6 152.3 C 2.9 152.3 3.9 152.6 3.8 152.8 C 3.7 153.0 3.4 153.3 3.3 153.3 C 3.1 153.4 2.1 153.7 2.3 154.2 C 2.4 154.6 2.7 155.0 2.7 155.0 C 2.7 155.3 2.7 155.5 2.7 155.7 C 2.7 155.7 2.1 156.3 2.2 156.8 C 2.3 157.3 2.3 157.8 2.3 158.2 C 2.2 158.6 2.3 158.9 2.5 159.0 C 2.7 159.1 3.6 159.6 3.6 159.6 C 3.6 159.6 3.8 160.1 3.7 160.4 C 3.5 160.6 3.0 160.7 2.9 160.6 C 2.7 160.6 2.2 160.6 2.1 161.0 C 2.0 161.3 1.5 162.9 1.8 163.2 C 2.1 163.4 2.4 163.4 2.5 163.5 C 2.6 163.7 2.7 164.8 2.4 164.9 C 2.2 165.0 1.7 164.9 1.7 165.2 C 1.8 165.5 1.6 166.1 1.8 166.1 C 1.9 166.1 2.1 166.3 2.3 166.4 C 2.6 166.4 2.8 167.0 3.0 167.1 C 3.1 167.2 3.2 167.7 3.2 167.7 C 3.0 167.9 2.9 168.1 2.7 168.3 C 2.7 168.3 2.2 168.0 2.1 167.8 C 2.0 167.6 1.7 167.9 1.6 168.1 C 1.6 168.3 1.7 169.4 1.7 169.4 C 2.1 169.5 2.4 169.5 2.8 169.5 C 2.9 169.8 3.0 170.1 3.1 170.4 C 3.1 170.4 1.7 170.2 1.7 170.8 C 1.7 171.4 1.7 172.0 1.7 172.0 C 1.7 172.0 2.2 172.6 2.3 172.7 C 2.3 172.9 3.5 172.9 3.5 172.9 C 4.0 172.9 4.5 172.9 4.9 172.8 C 4.9 172.8 5.4 172.1 5.2 171.8 C 5.0 171.4 4.5 171.7 4.3 171.7 C 4.0 171.6 3.8 171.0 3.8 171.0 C 4.1 170.8 4.3 170.5 4.6 170.3 C 4.6 170.3 4.8 170.1 5.0 169.8 C 5.3 169.6 5.4 168.7 5.3 168.5 C 5.2 168.2 4.9 168.0 4.7 167.7 C 4.5 167.4 4.0 167.4 4.4 167.1 C 4.7 166.7 5.1 166.5 5.1 166.3 C 5.1 166.1 4.6 165.4 4.6 165.4 C 4.5 165.1 4.4 164.9 4.3 164.7 C 4.3 164.7 4.1 164.1 4.3 164.0 C 4.6 163.9 4.3 162.7 4.3 162.7 C 4.3 162.7 5.1 162.8 5.3 162.5 C 5.4 162.2 5.6 161.8 5.5 161.3 C 5.4 160.8 4.6 160.4 4.6 160.4 C 4.8 160.2 5.0 160.1 5.2 159.9 C 5.3 159.5 5.3 159.0 5.4 158.6 C 5.4 158.6 5.4 157.5 5.2 157.5 C 5.1 157.5 4.4 157.6 4.2 157.6 C 4.0 157.5 3.8 157.0 4.0 156.9 C 4.3 156.8 4.9 156.4 4.9 156.4 C 4.9 156.4 5.4 156.0 5.4 155.6 C 5.5 155.3 5.3 154.9 5.1 154.7 C 5.0 154.6 4.5 154.1 4.5 154.1 C 4.7 154.0 4.9 153.9 5.1 153.7 C 5.1 153.7 4.8 152.9 5.5 152.1 C 5.5 152.1 5.5 152.1 5.5 152.1 Z M 4.5 175.2 C 4.5 174.9 4.9 174.7 5.1 174.2 C 5.2 173.6 5.3 172.8 5.0 173.0 C 4.6 173.1 4.4 173.3 4.0 173.0 C 3.6 172.7 2.9 172.3 2.7 172.8 C 2.4 173.2 1.7 174.8 2.1 175.4 C 2.5 175.9 2.6 176.1 2.9 176.5 C 3.1 176.8 2.3 176.6 2.3 176.6 C 2.3 176.6 2.2 177.5 2.2 178.2 C 2.1 178.8 2.1 179.6 2.2 179.7 C 2.4 179.7 2.7 180.0 2.7 180.0 C 2.7 180.0 2.3 180.3 2.2 180.8 C 2.2 181.3 2.4 181.2 2.6 181.1 C 2.8 181.0 3.3 180.4 3.3 180.6 C 3.3 180.8 2.5 181.5 2.4 181.8 C 2.3 182.2 2.4 182.9 2.4 182.9 C 2.4 182.9 2.9 182.9 3.0 182.9 C 3.1 183.0 3.1 183.8 3.0 183.8 C 2.8 183.8 2.3 183.8 2.3 184.2 C 2.3 185.4 3.2 185.2 3.2 185.3 C 3.2 185.4 2.5 185.4 2.4 185.7 C 2.3 186.0 2.5 188.4 2.7 188.5 C 2.8 188.6 2.3 189.4 2.7 189.8 C 3.1 190.1 3.3 190.2 3.4 190.3 C 3.5 190.3 4.2 190.7 3.9 191.0 C 3.7 191.2 2.9 190.3 2.7 190.6 C 2.5 190.9 2.5 192.4 2.7 192.6 C 3.0 192.9 3.7 193.0 3.7 193.2 C 3.7 193.4 2.9 194.3 3.0 194.4 C 3.1 194.4 3.9 194.5 4.0 194.5 C 4.1 194.5 5.4 194.7 5.5 194.5 C 5.7 194.3 6.1 193.4 5.8 193.6 C 5.4 193.7 5.0 193.9 4.8 193.6 C 4.6 193.3 4.6 193.1 4.7 193.1 C 4.9 193.0 5.0 193.2 5.3 192.6 C 5.5 192.1 5.8 192.4 5.7 191.9 C 5.7 191.4 5.6 190.9 5.3 191.0 C 5.0 191.1 4.6 190.6 4.6 190.2 C 4.6 189.9 5.3 190.4 5.5 189.3 C 5.7 188.2 5.7 187.5 5.5 187.2 C 5.2 186.9 4.5 186.9 4.8 186.3 C 5.1 185.8 5.3 186.1 5.3 185.4 C 5.2 184.7 4.6 184.4 4.6 183.9 C 4.6 183.5 4.6 183.4 4.6 183.4 C 4.6 183.4 5.4 183.6 5.4 182.6 C 5.5 181.5 5.5 181.3 4.9 181.6 C 4.3 181.8 4.3 181.0 4.7 181.0 C 5.1 180.9 5.3 180.3 5.4 180.0 C 5.4 179.6 4.4 179.5 4.4 179.4 C 4.3 179.2 4.4 178.8 4.7 179.0 C 5.0 179.1 5.1 178.7 5.2 178.4 C 5.3 178.1 5.2 177.2 5.1 177.2 C 4.9 177.2 4.2 177.7 4.5 177.0 C 4.9 176.4 5.4 176.2 5.3 175.6 C 5.3 175.0 4.7 175.6 4.5 175.2 C 4.5 175.2 4.5 175.2 4.5 175.2 Z M 5.9 194.9 C 5.8 193.8 3.2 194.6 2.7 195.1 C 2.2 195.5 2.5 196.2 2.5 197.0 C 2.4 197.7 3.2 197.4 3.5 197.8 C 3.8 198.2 3.2 198.1 2.8 198.3 C 2.4 198.5 2.9 199.6 2.8 200.3 C 2.8 200.9 3.8 201.6 3.9 202.1 C 3.9 202.6 4.3 201.6 4.3 202.6 C 4.3 203.5 3.8 203.1 3.5 202.0 C 3.1 200.9 3.0 202.5 2.9 203.1 C 2.8 203.7 3.3 204.7 3.3 205.1 C 3.3 205.6 3.9 205.0 3.9 205.7 C 4.0 206.4 3.3 206.1 3.2 206.8 C 3.1 207.5 3.8 207.3 3.9 207.7 C 4.1 208.0 3.7 208.0 3.7 208.3 C 3.7 208.6 3.5 209.1 3.7 209.7 C 3.9 210.3 4.1 210.2 4.1 210.5 C 4.2 210.7 4.3 211.3 4.3 211.3 C 4.0 211.3 3.8 211.4 3.6 211.4 C 3.6 211.4 3.6 212.6 3.6 213.0 C 3.6 213.3 3.9 214.1 4.1 213.9 C 4.2 213.7 4.7 214.4 4.6 214.6 C 4.5 214.8 4.3 215.4 4.1 215.8 C 4.0 216.3 5.7 216.0 6.0 216.0 C 6.2 216.0 7.2 216.1 7.2 215.8 C 7.3 215.4 6.9 215.1 7.2 215.2 C 7.4 215.2 7.1 214.2 7.1 213.9 C 7.0 213.6 6.4 213.3 6.4 213.3 C 6.4 213.3 5.8 213.0 5.8 212.6 C 5.7 212.1 6.8 211.8 6.8 211.8 C 6.8 211.8 7.0 211.2 6.9 210.7 C 6.8 210.1 5.8 209.5 5.6 209.4 C 5.4 209.3 6.3 209.2 6.3 208.8 C 6.4 208.4 6.6 207.8 6.5 207.6 C 6.5 207.4 5.9 207.2 5.9 207.2 C 5.9 207.2 5.5 206.4 5.5 206.2 C 5.5 206.1 6.3 206.3 6.3 206.3 C 6.3 206.3 6.4 204.7 6.5 204.4 C 6.5 204.0 6.3 203.5 6.2 203.3 C 6.1 203.0 5.1 202.7 5.2 202.4 C 5.3 202.0 5.9 202.7 5.9 202.3 C 6.0 202.0 6.2 201.3 6.2 201.1 C 6.2 201.0 5.8 200.7 5.7 200.4 C 5.7 200.2 4.9 199.8 4.9 199.3 C 4.9 198.8 5.3 198.6 5.4 198.4 C 5.5 198.2 6.1 198.0 6.1 197.7 C 6.1 197.3 5.7 197.6 5.7 197.2 C 5.7 196.9 5.2 196.9 5.2 196.5 C 5.3 196.2 6.1 196.4 6.0 196.0 C 5.9 195.8 6.0 196.0 5.9 194.9 C 5.9 194.9 5.9 194.9 5.9 194.9 Z M 6.7 218.1 C 6.6 217.9 7.0 217.6 7.1 217.0 C 7.2 216.5 7.2 215.7 6.9 215.9 C 6.6 216.1 6.4 216.3 6.0 216.0 C 5.6 215.7 4.8 215.5 4.6 215.9 C 4.4 216.3 3.8 218.0 4.2 218.5 C 4.6 218.9 4.8 219.1 5.1 219.5 C 5.3 219.8 4.5 219.6 4.5 219.6 C 4.5 219.6 4.5 220.5 4.5 221.2 C 4.5 221.8 4.6 222.5 4.7 222.6 C 4.9 222.7 5.2 222.9 5.2 222.9 C 5.2 222.9 4.8 223.2 4.8 223.7 C 4.8 224.2 5.0 224.0 5.2 223.9 C 5.3 223.8 5.8 223.2 5.8 223.4 C 5.8 223.6 5.1 224.3 5.1 224.7 C 5.0 225.0 5.1 225.7 5.1 225.7 C 5.1 225.7 5.6 225.6 5.7 225.7 C 5.8 225.7 5.9 226.5 5.8 226.5 C 5.6 226.6 5.1 226.5 5.2 226.9 C 5.2 228.1 6.1 227.8 6.1 227.9 C 6.1 228.0 5.5 228.1 5.4 228.4 C 5.3 228.7 5.7 230.9 5.8 231.0 C 6.0 231.1 5.5 231.9 6.0 232.2 C 6.4 232.5 6.6 232.6 6.7 232.6 C 6.8 232.7 7.5 233.0 7.3 233.3 C 7.0 233.5 6.2 232.7 6.0 233.0 C 5.8 233.3 6.0 234.7 6.2 234.9 C 6.5 235.2 7.2 235.2 7.2 235.4 C 7.2 235.6 6.5 236.5 6.6 236.5 C 6.8 236.6 7.5 236.6 7.6 236.6 C 7.8 236.6 9.0 236.7 9.2 236.5 C 9.3 236.3 9.7 235.4 9.3 235.6 C 9.0 235.7 8.6 236.0 8.4 235.7 C 8.2 235.4 8.1 235.3 8.3 235.2 C 8.4 235.1 8.6 235.2 8.7 234.7 C 8.9 234.2 9.2 234.4 9.1 234.0 C 9.1 233.5 8.9 233.1 8.7 233.2 C 8.4 233.2 7.9 232.8 7.9 232.5 C 7.9 232.1 8.6 232.6 8.7 231.6 C 8.8 230.5 8.8 229.8 8.5 229.5 C 8.3 229.3 7.5 229.3 7.8 228.8 C 8.0 228.2 8.3 228.5 8.2 227.8 C 8.1 227.1 7.5 226.9 7.4 226.5 C 7.3 226.1 7.3 225.9 7.3 225.9 C 7.3 225.9 8.2 226.1 8.1 225.1 C 8.1 224.1 8.1 223.9 7.6 224.2 C 7.0 224.5 6.9 223.7 7.2 223.6 C 7.6 223.6 7.8 223.0 7.9 222.6 C 7.9 222.3 6.9 222.3 6.8 222.2 C 6.8 222.0 6.8 221.6 7.1 221.7 C 7.5 221.9 7.5 221.5 7.6 221.2 C 7.7 220.8 7.5 220.0 7.3 220.0 C 7.2 220.0 6.5 220.5 6.8 219.9 C 7.1 219.2 7.6 219.0 7.5 218.4 C 7.4 217.9 6.9 218.4 6.7 218.1 C 6.7 218.1 6.7 218.1 6.7 218.1 Z M 9.5 237.2 C 9.8 236.7 9.3 236.3 8.9 236.5 C 8.6 236.6 7.6 236.9 7.3 236.7 C 7.0 236.6 6.3 236.1 6.2 237.0 C 6.2 237.9 6.5 238.0 6.7 238.0 C 7.0 237.9 8.0 238.0 7.9 238.2 C 7.9 238.4 7.6 238.7 7.5 238.8 C 7.4 238.9 6.4 239.3 6.6 239.7 C 6.8 240.1 7.2 240.5 7.2 240.5 C 7.2 240.7 7.3 240.9 7.3 241.1 C 7.3 241.1 6.8 241.7 7.0 242.2 C 7.2 242.6 7.3 243.1 7.3 243.4 C 7.3 243.8 7.4 244.1 7.7 244.1 C 7.9 244.2 8.8 244.5 8.8 244.5 C 8.8 244.5 9.1 244.9 9.0 245.2 C 8.9 245.4 8.4 245.6 8.2 245.5 C 8.1 245.5 7.6 245.6 7.6 246.0 C 7.5 246.3 7.3 247.9 7.6 248.0 C 7.9 248.2 8.3 248.1 8.4 248.3 C 8.5 248.4 8.7 249.4 8.5 249.5 C 8.3 249.6 7.8 249.6 7.9 249.9 C 8.0 250.2 7.9 250.7 8.0 250.7 C 8.2 250.7 8.3 250.8 8.6 250.8 C 8.9 250.8 9.2 251.3 9.4 251.4 C 9.5 251.5 9.7 251.9 9.7 251.9 C 9.5 252.1 9.4 252.3 9.3 252.5 C 9.3 252.5 8.7 252.3 8.6 252.1 C 8.5 252.0 8.2 252.3 8.2 252.5 C 8.2 252.7 8.5 253.7 8.5 253.7 C 8.8 253.7 9.2 253.6 9.6 253.6 C 9.7 253.8 9.8 254.0 10.0 254.3 C 10.0 254.3 8.6 254.4 8.7 254.9 C 8.8 255.4 8.9 256.0 8.9 256.0 C 8.9 256.0 9.5 256.4 9.6 256.5 C 9.6 256.6 10.8 256.5 10.8 256.5 C 11.3 256.4 11.7 256.2 12.2 256.1 C 12.2 256.1 12.5 255.4 12.3 255.2 C 12.0 254.9 11.6 255.2 11.4 255.2 C 11.1 255.2 10.8 254.8 10.8 254.8 C 11.0 254.5 11.2 254.2 11.5 253.9 C 11.5 253.9 11.7 253.7 11.8 253.5 C 12.0 253.2 12.0 252.4 11.9 252.2 C 11.8 252.0 11.4 251.8 11.1 251.6 C 10.9 251.4 10.5 251.5 10.7 251.1 C 11.0 250.7 11.3 250.5 11.3 250.3 C 11.3 250.2 10.7 249.5 10.7 249.5 C 10.6 249.4 10.4 249.2 10.3 249.0 C 10.3 249.0 10.0 248.5 10.2 248.4 C 10.5 248.2 10.0 247.2 10.0 247.2 C 10.0 247.2 10.8 247.2 10.9 246.9 C 11.0 246.6 11.1 246.1 10.9 245.7 C 10.7 245.3 9.9 245.1 9.9 245.1 C 10.1 244.9 10.3 244.7 10.4 244.5 C 10.4 244.1 10.4 243.7 10.4 243.3 C 10.4 243.3 10.2 242.3 10.1 242.3 C 10.0 242.4 9.3 242.6 9.1 242.5 C 8.9 242.5 8.6 242.0 8.8 242.0 C 9.1 241.9 9.6 241.3 9.6 241.3 C 9.6 241.3 10.0 240.9 10.0 240.6 C 10.0 240.3 9.7 239.9 9.6 239.8 C 9.4 239.7 8.8 239.3 8.8 239.3 C 9.0 239.1 9.2 239.0 9.4 238.8 C 9.4 238.8 9.0 238.1 9.5 237.2 C 9.5 237.2 9.5 237.2 9.5 237.2 Z M 12.7 256.4 C 12.4 255.5 10.0 256.6 9.5 257.1 C 9.0 257.6 9.5 258.1 9.5 258.8 C 9.5 259.5 10.3 259.1 10.6 259.4 C 10.9 259.7 10.4 259.7 10.0 259.9 C 9.7 260.2 10.2 261.1 10.3 261.7 C 10.4 262.3 11.4 262.7 11.5 263.2 C 11.6 263.6 11.9 262.7 12.0 263.5 C 12.1 264.3 11.6 264.0 11.1 263.1 C 10.6 262.2 10.7 263.6 10.7 264.1 C 10.7 264.7 11.3 265.5 11.3 265.9 C 11.3 266.3 11.9 265.7 12.0 266.3 C 12.1 266.9 11.4 266.7 11.4 267.4 C 11.4 268.0 12.1 267.8 12.3 268.0 C 12.5 268.3 12.1 268.3 12.1 268.6 C 12.1 268.9 12.0 269.3 12.3 269.9 C 12.5 270.4 12.7 270.2 12.8 270.4 C 12.9 270.7 13.0 271.1 13.0 271.1 C 12.8 271.2 12.6 271.3 12.4 271.4 C 12.4 271.4 12.6 272.4 12.6 272.7 C 12.6 273.0 13.1 273.6 13.1 273.4 C 13.2 273.2 13.8 273.8 13.8 274.0 C 13.7 274.1 13.5 274.7 13.5 275.1 C 13.4 275.5 15.0 275.0 15.3 274.9 C 15.5 274.9 16.5 274.8 16.5 274.5 C 16.5 274.2 16.1 274.0 16.4 274.0 C 16.6 274.0 16.2 273.2 16.1 272.9 C 16.0 272.7 15.3 272.5 15.3 272.5 C 15.3 272.5 14.8 272.4 14.7 272.0 C 14.6 271.6 15.6 271.2 15.6 271.2 C 15.6 271.2 15.7 270.7 15.5 270.2 C 15.3 269.7 14.4 269.3 14.1 269.3 C 13.9 269.2 14.7 269.0 14.7 268.7 C 14.8 268.3 14.9 267.7 14.8 267.6 C 14.7 267.4 14.2 267.3 14.2 267.3 C 14.2 267.3 13.7 266.7 13.6 266.5 C 13.6 266.4 14.4 266.5 14.4 266.5 C 14.4 266.5 14.4 265.0 14.4 264.7 C 14.4 264.4 14.1 264.0 14.0 263.8 C 13.9 263.6 12.9 263.5 12.9 263.2 C 12.9 262.9 13.6 263.4 13.6 263.1 C 13.6 262.7 13.7 262.1 13.7 262.0 C 13.6 261.8 13.3 261.7 13.2 261.4 C 13.1 261.2 12.3 260.9 12.2 260.5 C 12.1 260.1 12.5 259.8 12.6 259.6 C 12.6 259.5 13.2 259.2 13.2 258.9 C 13.2 258.6 12.8 258.9 12.7 258.6 C 12.7 258.3 12.2 258.3 12.2 258.0 C 12.3 257.7 13.1 257.7 12.9 257.4 C 12.8 257.2 12.9 257.4 12.7 256.4 C 12.7 256.4 12.7 256.4 12.7 256.4 Z M 16.6 275.3 C 16.8 274.8 16.3 274.5 15.9 274.6 C 15.6 274.8 14.7 275.2 14.4 275.1 C 14.1 275.0 13.3 274.6 13.3 275.4 C 13.4 276.2 13.7 276.3 13.9 276.3 C 14.1 276.2 15.2 276.1 15.1 276.3 C 15.1 276.5 14.9 276.8 14.7 276.9 C 14.6 277.0 13.7 277.5 14.0 277.8 C 14.2 278.2 14.6 278.4 14.6 278.4 C 14.6 278.6 14.7 278.8 14.7 279.0 C 14.7 279.0 14.3 279.6 14.5 280.0 C 14.8 280.3 14.9 280.8 14.9 281.1 C 15.0 281.4 15.1 281.6 15.4 281.6 C 15.6 281.6 16.5 281.8 16.5 281.8 C 16.5 281.8 16.8 282.2 16.8 282.4 C 16.7 282.6 16.3 282.8 16.1 282.8 C 15.9 282.8 15.4 283.0 15.4 283.3 C 15.4 283.6 15.3 285.0 15.7 285.1 C 16.0 285.2 16.3 285.1 16.5 285.2 C 16.6 285.3 16.9 286.1 16.7 286.2 C 16.5 286.4 16.0 286.4 16.1 286.7 C 16.2 286.9 16.2 287.4 16.3 287.4 C 16.5 287.3 16.6 287.4 16.9 287.4 C 17.2 287.3 17.6 287.8 17.8 288.0 C 17.9 288.1 18.2 288.8 18.2 288.8 C 18.1 289.1 18.1 289.4 18.0 289.8 C 18.0 289.8 17.4 289.4 17.2 289.2 C 17.0 288.9 16.9 289.5 16.9 289.8 C 16.9 290.0 17.5 291.6 17.5 291.6 C 17.9 291.5 18.3 291.4 18.7 291.4 C 18.9 291.7 19.1 292.1 19.3 292.5 C 19.3 292.5 17.9 292.7 18.2 293.5 C 18.4 294.2 18.7 295.1 18.7 295.1 C 18.7 295.1 19.5 295.7 19.6 295.9 C 19.7 296.0 20.9 295.7 20.9 295.7 C 21.3 295.5 21.7 295.3 22.1 295.1 C 22.1 295.1 22.3 294.1 21.9 293.7 C 21.6 293.2 21.2 293.8 21.0 293.8 C 20.7 293.8 20.3 293.1 20.3 293.1 C 20.4 292.7 20.5 292.3 20.7 291.9 C 20.7 291.9 20.8 291.5 20.9 291.1 C 21.0 290.7 20.8 289.5 20.6 289.2 C 20.4 288.8 20.0 288.6 19.6 288.2 C 19.3 287.9 18.9 288.1 19.1 287.5 C 19.2 286.9 19.6 286.7 19.5 286.6 C 19.5 286.4 18.9 286.0 18.9 286.0 C 18.7 285.8 18.5 285.7 18.4 285.5 C 18.4 285.5 18.0 285.1 18.3 285.0 C 18.5 284.9 17.9 284.0 17.9 284.0 C 17.9 284.0 18.8 283.9 18.8 283.6 C 18.9 283.3 19.0 282.9 18.7 282.6 C 18.5 282.2 17.7 282.1 17.7 282.1 C 17.8 282.0 18.0 281.8 18.2 281.6 C 18.1 281.2 18.1 280.9 18.0 280.5 C 18.0 280.5 17.8 279.7 17.6 279.7 C 17.5 279.7 16.8 280.0 16.7 280.0 C 16.5 280.0 16.1 279.6 16.3 279.5 C 16.5 279.4 17.1 278.9 17.1 278.9 C 17.1 278.9 17.4 278.4 17.4 278.2 C 17.3 277.9 17.0 277.6 16.9 277.5 C 16.7 277.4 16.1 277.2 16.1 277.2 C 16.3 277.0 16.5 276.9 16.7 276.7 C 16.7 276.7 16.2 276.1 16.6 275.3 C 16.6 275.3 16.6 275.3 16.6 275.3 Z M 22.7 295.6 C 22.2 294.2 20.0 296.0 19.7 296.7 C 19.4 297.4 20.0 298.3 20.3 299.2 C 20.5 300.2 21.2 299.6 21.6 300.0 C 22.0 300.4 21.5 300.4 21.2 300.8 C 20.9 301.2 21.8 302.4 22.0 303.2 C 22.3 304.0 23.5 304.5 23.8 305.1 C 24.1 305.7 24.0 304.4 24.4 305.5 C 24.8 306.7 24.1 306.3 23.4 305.1 C 22.6 304.0 23.1 305.8 23.3 306.6 C 23.5 307.3 24.4 308.3 24.6 308.8 C 24.7 309.4 25.1 308.4 25.4 309.2 C 25.7 310.0 24.9 309.9 25.2 310.7 C 25.4 311.5 26.0 311.1 26.3 311.4 C 26.6 311.7 26.2 311.8 26.3 312.1 C 26.4 312.5 26.5 313.0 27.0 313.6 C 27.4 314.2 27.5 314.0 27.7 314.2 C 27.9 314.5 28.2 315.0 28.2 315.0 C 28.0 315.2 27.8 315.3 27.6 315.5 C 27.6 315.5 28.2 316.6 28.4 317.0 C 28.5 317.4 29.2 318.0 29.2 317.7 C 29.2 317.4 30.0 317.9 30.0 318.2 C 30.0 318.4 30.1 319.1 30.2 319.5 C 30.3 320.0 31.7 319.0 31.9 318.8 C 32.1 318.7 33.0 318.4 32.9 318.1 C 32.8 317.7 32.3 317.6 32.6 317.6 C 32.8 317.5 32.1 316.7 31.9 316.4 C 31.8 316.2 31.0 316.2 31.0 316.2 C 31.0 316.2 30.4 316.2 30.2 315.7 C 29.9 315.3 30.8 314.6 30.8 314.6 C 30.8 314.6 30.7 313.9 30.3 313.4 C 30.0 312.9 28.9 312.6 28.6 312.6 C 28.4 312.5 29.1 312.2 29.0 311.7 C 28.9 311.3 28.8 310.5 28.7 310.4 C 28.5 310.2 27.9 310.1 27.9 310.1 C 27.9 310.1 27.2 309.5 27.1 309.3 C 27.1 309.1 27.9 309.1 27.9 309.1 C 27.9 309.1 27.3 307.3 27.2 306.9 C 27.1 306.5 26.7 306.0 26.5 305.7 C 26.4 305.5 25.3 305.5 25.2 305.0 C 25.1 304.6 26.0 305.2 25.9 304.8 C 25.8 304.3 25.7 303.5 25.6 303.3 C 25.5 303.1 25.1 302.9 24.9 302.6 C 24.7 302.2 23.8 302.0 23.6 301.4 C 23.4 300.9 23.7 300.4 23.7 300.2 C 23.7 299.9 24.2 299.5 24.1 299.1 C 23.9 298.6 23.6 299.1 23.5 298.6 C 23.3 298.2 22.8 298.3 22.8 297.9 C 22.7 297.4 23.5 297.4 23.2 296.9 C 23.1 296.7 23.2 296.9 22.7 295.6 C 22.7 295.6 22.7 295.6 22.7 295.6 Z M 33.4 320.4 C 33.2 320.2 33.6 319.8 33.4 319.3 C 33.2 318.7 32.9 318.1 32.7 318.3 C 32.5 318.6 32.4 318.9 31.9 318.9 C 31.4 318.8 30.6 318.9 30.6 319.4 C 30.6 319.9 30.9 321.6 31.5 321.9 C 32.1 322.1 32.3 322.1 32.7 322.3 C 33.1 322.5 32.3 322.7 32.3 322.7 C 32.3 322.7 32.7 323.5 33.0 324.0 C 33.3 324.5 33.7 325.1 33.9 325.1 C 34.0 325.1 34.4 325.1 34.4 325.1 C 34.4 325.1 34.3 325.5 34.5 325.9 C 34.7 326.3 34.8 326.1 34.9 325.9 C 35.0 325.7 35.0 325.0 35.2 325.2 C 35.3 325.3 35.0 326.2 35.1 326.5 C 35.3 326.8 35.7 327.3 35.7 327.3 C 35.7 327.3 36.0 326.9 36.2 326.9 C 36.3 326.9 36.7 327.4 36.6 327.5 C 36.5 327.6 36.1 327.9 36.3 328.1 C 36.9 329.0 37.5 328.3 37.6 328.3 C 37.7 328.3 37.1 328.8 37.2 329.0 C 37.3 329.3 38.7 330.6 38.9 330.5 C 39.1 330.5 39.1 331.3 39.6 331.2 C 40.1 331.1 40.2 331.0 40.3 331.0 C 40.4 330.9 41.1 330.6 41.1 330.9 C 41.0 331.2 40.0 331.4 40.0 331.7 C 40.1 332.0 40.9 332.7 41.2 332.7 C 41.6 332.6 42.0 332.1 42.1 332.2 C 42.2 332.3 42.2 333.3 42.3 333.2 C 42.5 333.2 42.9 332.6 43.0 332.5 C 43.1 332.4 44.0 331.5 44.0 331.3 C 44.0 331.1 43.8 330.4 43.6 330.7 C 43.5 331.0 43.3 331.5 43.1 331.5 C 42.8 331.5 42.7 331.4 42.7 331.3 C 42.8 331.2 42.9 331.1 42.8 330.7 C 42.7 330.3 43.0 330.2 42.7 330.0 C 42.5 329.8 42.2 329.7 42.0 329.9 C 41.9 330.1 41.3 330.2 41.2 330.0 C 41.0 329.8 41.7 329.7 41.3 329.0 C 40.9 328.3 40.6 327.9 40.2 327.9 C 39.9 327.9 39.3 328.3 39.3 327.8 C 39.2 327.3 39.5 327.3 39.2 327.0 C 38.8 326.6 38.2 326.8 37.9 326.5 C 37.7 326.3 37.6 326.2 37.6 326.2 C 37.6 326.2 38.4 325.8 37.9 325.1 C 37.4 324.5 37.3 324.3 37.0 324.8 C 36.6 325.3 36.2 324.8 36.5 324.6 C 36.8 324.3 36.7 323.7 36.5 323.5 C 36.4 323.2 35.5 323.7 35.4 323.6 C 35.3 323.6 35.2 323.2 35.5 323.1 C 35.9 323.1 35.7 322.8 35.6 322.5 C 35.6 322.1 35.0 321.5 34.9 321.6 C 34.7 321.7 34.4 322.5 34.4 321.8 C 34.3 321.1 34.7 320.7 34.3 320.3 C 34.0 319.8 33.8 320.6 33.4 320.4 C 33.4 320.4 33.4 320.4 33.4 320.4 Z M 44.5 331.4 C 44.4 331.0 44.0 331.2 43.8 331.5 C 43.6 331.8 43.1 332.7 42.9 332.8 C 42.6 333.0 41.8 333.3 42.3 333.8 C 42.8 334.3 43.0 334.1 43.1 333.9 C 43.3 333.7 43.9 332.9 44.0 333.1 C 44.1 333.3 44.1 333.6 44.1 333.7 C 44.0 333.9 43.7 334.8 44.1 334.9 C 44.4 334.9 44.8 334.8 44.8 334.8 C 44.9 334.9 45.0 334.9 45.2 335.0 C 45.2 335.0 45.3 335.7 45.6 335.7 C 46.0 335.7 46.3 335.9 46.5 336.0 C 46.7 336.2 47.0 336.2 47.1 336.0 C 47.2 335.8 47.8 335.1 47.8 335.1 C 47.8 335.1 48.2 335.0 48.3 335.2 C 48.4 335.4 48.3 335.8 48.2 336.0 C 48.1 336.1 48.0 336.6 48.1 336.7 C 48.3 336.9 49.2 337.6 49.4 337.4 C 49.7 337.2 49.7 336.8 49.8 336.7 C 50.0 336.7 50.6 336.8 50.6 337.0 C 50.6 337.2 50.5 337.7 50.7 337.7 C 50.9 337.7 51.3 337.9 51.3 337.8 C 51.3 337.6 51.4 337.5 51.5 337.2 C 51.5 337.0 51.9 336.8 52.0 336.6 C 52.1 336.5 52.4 336.5 52.4 336.5 C 52.5 336.6 52.6 336.8 52.7 337.0 C 52.7 337.0 52.5 337.5 52.3 337.5 C 52.2 337.6 52.4 338.0 52.5 338.0 C 52.6 338.1 53.4 338.0 53.4 338.0 C 53.4 337.6 53.4 337.2 53.4 336.9 C 53.6 336.8 53.7 336.7 53.9 336.6 C 53.9 336.6 53.9 338.0 54.2 338.0 C 54.6 337.9 55.0 337.9 55.0 337.9 C 55.0 337.9 55.3 337.4 55.4 337.3 C 55.5 337.3 55.4 336.1 55.4 336.1 C 55.3 335.6 55.2 335.1 55.1 334.7 C 55.1 334.7 54.8 334.3 54.6 334.5 C 54.4 334.7 54.6 335.2 54.6 335.4 C 54.6 335.6 54.3 335.9 54.3 335.9 C 54.1 335.6 54.0 335.4 53.8 335.1 C 53.8 335.1 53.7 334.9 53.6 334.6 C 53.5 334.4 53.1 334.3 52.9 334.3 C 52.8 334.4 52.7 334.7 52.5 335.0 C 52.3 335.2 52.3 335.6 52.1 335.2 C 52.0 334.9 51.9 334.5 51.8 334.5 C 51.7 334.5 51.2 334.9 51.2 334.9 C 51.1 335.0 51.0 335.1 50.8 335.2 C 50.8 335.2 50.5 335.3 50.5 335.0 C 50.5 334.8 49.8 334.9 49.8 334.9 C 49.8 334.9 50.0 334.1 49.9 333.9 C 49.8 333.8 49.6 333.5 49.3 333.6 C 49.0 333.6 48.6 334.3 48.6 334.3 C 48.6 334.1 48.6 333.9 48.6 333.6 C 48.3 333.5 48.1 333.4 47.9 333.2 C 47.9 333.2 47.4 333.0 47.3 333.1 C 47.3 333.3 47.0 333.9 46.9 334.1 C 46.8 334.2 46.4 334.3 46.5 334.1 C 46.5 333.8 46.6 333.1 46.6 333.1 C 46.6 333.1 46.5 332.7 46.4 332.5 C 46.3 332.4 45.9 332.5 45.8 332.5 C 45.6 332.6 45.1 332.9 45.1 332.9 C 45.2 332.7 45.2 332.5 45.2 332.2 C 45.2 332.2 44.6 332.2 44.5 331.4 C 44.5 331.4 44.5 331.4 44.5 331.4 Z M 55.3 334.2 C 54.8 334.4 55.4 336.9 55.8 337.4 C 56.1 337.9 56.5 337.5 57.0 337.5 C 57.4 337.5 57.1 336.8 57.3 336.5 C 57.5 336.2 57.5 336.7 57.8 337.1 C 58.0 337.4 58.6 336.9 59.0 336.8 C 59.4 336.7 59.5 335.7 59.8 335.5 C 60.1 335.4 59.4 335.2 59.9 335.0 C 60.5 334.9 60.4 335.4 59.9 335.9 C 59.3 336.4 60.3 336.3 60.7 336.2 C 61.2 336.2 61.6 335.5 61.9 335.4 C 62.2 335.3 61.6 334.9 62.0 334.7 C 62.4 334.5 62.5 335.2 63.0 335.1 C 63.5 334.9 63.1 334.4 63.2 334.1 C 63.3 333.9 63.5 334.2 63.7 334.2 C 63.9 334.1 64.3 334.1 64.6 333.7 C 64.9 333.3 64.7 333.2 64.8 333.0 C 65.0 332.9 65.3 332.7 65.3 332.7 C 65.4 332.8 65.6 333.0 65.8 333.1 C 65.8 333.1 66.5 332.6 66.7 332.5 C 67.0 332.4 67.3 331.7 67.1 331.7 C 66.8 331.7 67.0 331.0 67.2 331.0 C 67.3 331.0 67.9 330.9 68.3 330.8 C 68.6 330.7 67.3 329.5 67.2 329.3 C 67.0 329.1 66.5 328.3 66.2 328.4 C 66.0 328.6 66.1 329.0 65.9 328.7 C 65.8 328.5 65.4 329.2 65.2 329.4 C 65.1 329.5 65.3 330.1 65.3 330.1 C 65.3 330.1 65.5 330.7 65.2 330.9 C 65.0 331.1 64.2 330.3 64.2 330.3 C 64.2 330.3 63.8 330.4 63.5 330.7 C 63.2 331.0 63.3 331.9 63.4 332.1 C 63.4 332.4 63.0 331.7 62.7 331.7 C 62.4 331.8 62.0 331.8 61.9 331.9 C 61.8 332.0 62.0 332.5 62.0 332.5 C 62.0 332.5 61.7 333.1 61.6 333.1 C 61.5 333.2 61.3 332.4 61.3 332.4 C 61.3 332.4 60.3 332.7 60.1 332.7 C 59.9 332.7 59.8 333.0 59.7 333.1 C 59.5 333.2 59.8 334.2 59.5 334.2 C 59.3 334.2 59.5 333.6 59.2 333.5 C 59.0 333.5 58.6 333.5 58.5 333.5 C 58.4 333.5 58.4 333.9 58.3 334.0 C 58.1 334.1 58.1 334.9 57.9 335.0 C 57.6 335.0 57.4 334.6 57.2 334.6 C 57.1 334.5 56.9 333.9 56.7 333.9 C 56.5 333.9 56.7 334.3 56.6 334.4 C 56.4 334.4 56.5 334.9 56.3 334.8 C 56.1 334.8 56.0 334.0 55.8 334.1 C 55.8 334.2 55.8 334.1 55.3 334.2 C 55.3 334.2 55.3 334.2 55.3 334.2 Z M 66.8 328.1 C 66.2 328.1 66.3 328.6 66.6 328.9 C 66.9 329.1 67.7 329.7 67.8 330.0 C 67.8 330.3 68.0 331.1 68.6 330.7 C 69.2 330.3 69.1 330.0 69.0 329.9 C 68.8 329.7 68.2 328.9 68.4 328.8 C 68.6 328.7 68.9 328.8 69.0 328.8 C 69.2 328.9 70.1 329.4 70.2 329.0 C 70.4 328.6 70.4 328.2 70.4 328.2 C 70.5 328.1 70.6 327.9 70.7 327.8 C 70.7 327.8 71.5 327.8 71.7 327.3 C 71.8 326.9 72.1 326.6 72.4 326.3 C 72.6 326.1 72.8 325.8 72.6 325.6 C 72.5 325.4 72.1 324.6 72.1 324.6 C 72.1 324.6 72.2 324.1 72.4 324.0 C 72.6 323.9 73.1 324.1 73.2 324.3 C 73.3 324.4 73.7 324.6 74.0 324.4 C 74.2 324.2 75.5 323.2 75.4 322.9 C 75.3 322.5 74.9 322.4 75.0 322.2 C 75.0 322.0 75.5 321.1 75.7 321.2 C 76.0 321.2 76.4 321.5 76.5 321.3 C 76.6 321.0 77.1 320.5 77.0 320.5 C 76.8 320.4 76.8 320.1 76.6 320.0 C 76.4 319.8 76.5 319.2 76.4 319.0 C 76.4 318.8 76.6 318.4 76.6 318.4 C 76.8 318.3 77.1 318.2 77.3 318.1 C 77.3 318.1 77.6 318.7 77.5 318.9 C 77.5 319.1 78.0 319.0 78.1 318.8 C 78.2 318.7 78.8 317.6 78.8 317.6 C 78.5 317.4 78.1 317.2 77.8 317.0 C 77.9 316.7 78.0 316.4 78.0 316.0 C 78.0 316.0 79.1 316.8 79.4 316.3 C 79.7 315.8 80.1 315.1 80.1 315.1 C 80.1 315.1 79.9 314.3 79.9 314.2 C 80.0 314.0 78.9 313.4 78.9 313.4 C 78.5 313.2 78.1 313.0 77.6 312.9 C 77.6 312.9 76.9 313.3 76.9 313.7 C 76.8 314.2 77.5 314.1 77.6 314.3 C 77.8 314.4 77.7 315.1 77.7 315.1 C 77.4 315.2 77.0 315.3 76.7 315.4 C 76.7 315.4 76.3 315.5 76.0 315.6 C 75.7 315.7 75.1 316.4 75.1 316.6 C 75.1 316.9 75.2 317.3 75.3 317.6 C 75.3 318.0 75.7 318.2 75.2 318.3 C 74.8 318.5 74.4 318.4 74.3 318.6 C 74.2 318.7 74.1 319.6 74.1 319.6 C 74.1 319.9 74.1 320.1 74.1 320.3 C 74.1 320.3 74.0 320.9 73.7 320.8 C 73.4 320.8 73.1 321.9 73.1 321.9 C 73.1 321.9 72.4 321.3 72.2 321.4 C 71.9 321.6 71.5 321.8 71.4 322.3 C 71.2 322.7 71.7 323.4 71.7 323.4 C 71.4 323.4 71.2 323.4 70.9 323.4 C 70.7 323.6 70.4 323.9 70.1 324.2 C 70.1 324.2 69.6 324.9 69.7 325.0 C 69.8 325.0 70.4 325.4 70.5 325.6 C 70.6 325.7 70.5 326.2 70.3 326.1 C 70.1 326.0 69.3 325.9 69.3 325.9 C 69.3 325.9 68.8 325.9 68.6 326.0 C 68.4 326.2 68.3 326.6 68.4 326.8 C 68.4 326.9 68.5 327.6 68.5 327.6 C 68.3 327.5 68.1 327.4 67.8 327.3 C 67.8 327.3 67.6 328.0 66.8 328.1 C 66.8 328.1 66.8 328.1 66.8 328.1 Z M 77.5 312.2 C 77.0 313.3 79.7 313.8 80.4 313.7 C 81.1 313.5 81.1 312.6 81.6 311.9 C 82.1 311.2 81.2 311.1 81.2 310.5 C 81.2 310.0 81.6 310.3 82.0 310.3 C 82.5 310.3 82.7 308.9 83.1 308.2 C 83.4 307.5 83.0 306.3 83.2 305.7 C 83.4 305.1 82.5 306.1 83.0 305.0 C 83.5 303.9 83.8 304.6 83.5 306.0 C 83.2 307.4 84.2 305.7 84.5 305.0 C 84.9 304.4 85.0 303.0 85.3 302.4 C 85.6 301.9 84.7 302.4 85.0 301.5 C 85.4 300.7 85.8 301.4 86.3 300.5 C 86.7 299.7 86.1 299.5 86.1 299.0 C 86.1 298.5 86.4 298.8 86.6 298.4 C 86.8 298.0 87.2 297.5 87.4 296.6 C 87.6 295.7 87.3 295.8 87.4 295.4 C 87.5 295.0 87.7 294.3 87.7 294.3 C 87.9 294.3 88.2 294.3 88.4 294.3 C 88.4 294.3 89.0 292.7 89.2 292.2 C 89.4 291.7 89.5 290.5 89.3 290.8 C 89.0 291.0 89.0 289.8 89.1 289.5 C 89.3 289.3 89.9 288.5 90.2 288.0 C 90.6 287.5 88.9 287.1 88.6 287.0 C 88.4 287.0 87.6 286.4 87.4 286.8 C 87.1 287.3 87.3 287.8 87.1 287.7 C 86.9 287.5 86.7 289.1 86.5 289.5 C 86.4 290.0 86.8 290.6 86.8 290.6 C 86.8 290.6 87.2 291.2 87.0 291.9 C 86.8 292.5 85.7 292.4 85.7 292.4 C 85.7 292.4 85.2 293.2 85.0 294.0 C 84.8 294.8 85.3 295.9 85.5 296.2 C 85.6 296.4 84.8 296.1 84.5 296.6 C 84.3 297.1 83.7 297.8 83.7 298.0 C 83.7 298.3 84.0 298.8 84.0 298.8 C 84.0 298.8 84.0 299.9 83.9 300.1 C 83.8 300.3 83.2 299.7 83.2 299.7 C 83.2 299.7 82.2 301.6 82.0 301.9 C 81.8 302.3 81.8 303.0 81.7 303.3 C 81.6 303.6 82.4 304.4 82.1 304.8 C 81.8 305.1 81.7 304.1 81.4 304.5 C 81.2 304.9 80.7 305.5 80.6 305.7 C 80.5 305.9 80.7 306.3 80.6 306.7 C 80.5 307.0 81.0 307.8 80.7 308.3 C 80.5 308.8 80.0 308.9 79.8 309.0 C 79.6 309.2 79.0 309.0 78.8 309.4 C 78.6 309.8 79.1 309.7 78.9 310.1 C 78.8 310.4 79.2 310.6 78.9 311.0 C 78.7 311.3 78.1 310.7 78.0 311.2 C 77.9 311.4 78.0 311.2 77.5 312.2 C 77.5 312.2 77.5 312.2 77.5 312.2 Z M 77.5 312.2 " fill="#FEFFFE"></path></g></g></g></g></g></g></svg>