<?xml version="1.0" encoding="UTF-8" standalone="no"?><svg xmlns="http://www.w3.org/2000/svg" xmlns:xlink="http://www.w3.org/1999/xlink" clip-rule="evenodd" stroke-miterlimit="10" viewBox="0 0 1024 768"><desc>SVG generated by Keynote</desc><defs></defs><g transform="matrix(1.00, 0.00, -0.00, -1.00, 0.0, 768.0)"><path d="M 0.0 768.0 L 1024.0 768.0 L 1024.0 0.0 L 0.0 0.0 Z M 0.0 768.0 " fill="#000000"></path><g opacity="0.33"><g><clipPath id="clip0x6000028b0260"><path d="M 0.0 768.0 L 1024.0 768.0 L 1024.0 0.0 L 0.0 0.0 Z M -0.2 768.0 "></path></clipPath><g clip-path="url(#clip0x6000028b0260)"><g><clipPath id="clip0x6000028b0440"><path d="M 0.0 0.0 L 1024.0 0.0 L 1024.0 768.0 L 0.0 768.0 Z M 0.0 0.0 "></path></clipPath><g clip-path="url(#clip0x6000028b0440)"><image xlink:href="../../22CD6580-24A2-4870-A887-B86500F8A14C/assets/5C028A33DA1CD842DD43B31EA6E075FE.jpeg" width="3264.00" height="2448.00" transform="matrix(0.31, 0.00, -0.00, -0.31, 0.0, 768.0)"></image></g></g></g></g></g><g><clipPath id="clip0x6080048b1ee0"><path d="M 853.0 577.0 L 1024.0 577.0 L 1024.0 289.0 L 853.0 289.0 Z M 853.4 576.5 "></path></clipPath><g clip-path="url(#clip0x6080048b1ee0)"><image xlink:href="../../22CD6580-24A2-4870-A887-B86500F8A14C/assets/5C028A33DA1CD842DD43B31EA6E075FE.jpeg" width="3264.00" height="2448.00" transform="matrix(0.31, 0.00, -0.00, -0.31, 0.0, 768.0)"></image></g></g><g><clipPath id="clip0x6080048b1f40"><path d="M 414.0 583.0 L 501.0 583.0 L 501.0 465.0 L 414.0 465.0 Z M 413.8 583.0 "></path></clipPath><g clip-path="url(#clip0x6080048b1f40)"><image xlink:href="../../22CD6580-24A2-4870-A887-B86500F8A14C/assets/5C028A33DA1CD842DD43B31EA6E075FE.jpeg" width="3264.00" height="2448.00" transform="matrix(0.31, 0.00, -0.00, -0.31, 0.0, 768.0)"></image></g></g></g></svg>