<?xml version="1.0" encoding="UTF-8" standalone="no"?><svg xmlns="http://www.w3.org/2000/svg" xmlns:xlink="http://www.w3.org/1999/xlink" clip-rule="evenodd" stroke-miterlimit="10" viewBox="0 0 1024 768"><desc>SVG generated by Keynote</desc><defs></defs><g transform="matrix(1.00, 0.00, -0.00, -1.00, 0.0, 768.0)"><path d="M 0.0 768.0 L 1024.0 768.0 L 1024.0 0.0 L 0.0 0.0 Z M 0.0 768.0 " fill="#000000"></path><text xml:space="preserve" font-family="Helvetica-Light,Helvetica" font-size="66.4" fill="#FEFFFF" transform="matrix(1.00, 0.00, -0.00, -1.00, 227.9, 632.8)">S</text><text xml:space="preserve" font-family="Helvetica-Light,Helvetica" font-size="66.4" fill="#FEFFFF" transform="matrix(1.00, 0.00, -0.00, -1.00, 268.4, 632.8)">p</text><text xml:space="preserve" font-family="Helvetica-Light,Helvetica" font-size="66.4" fill="#FEFFFF" transform="matrix(1.00, 0.00, -0.00, -1.00, 309.0, 632.8)">e</text><text xml:space="preserve" font-family="Helvetica-Light,Helvetica" font-size="66.4" fill="#FEFFFF" transform="matrix(1.00, 0.00, -0.00, -1.00, 345.9, 632.8)">c</text><text xml:space="preserve" font-family="Helvetica-Light,Helvetica" font-size="66.4" fill="#FEFFFF" transform="matrix(1.00, 0.00, -0.00, -1.00, 382.9, 632.8)">i</text><text xml:space="preserve" font-family="Helvetica-Light,Helvetica" font-size="66.4" fill="#FEFFFF" transform="matrix(1.00, 0.00, -0.00, -1.00, 397.6, 632.8)">a</text><text xml:space="preserve" font-family="Helvetica-Light,Helvetica" font-size="66.4" fill="#FEFFFF" transform="matrix(1.00, 0.00, -0.00, -1.00, 434.5, 632.8)">l</text><text xml:space="preserve" font-family="Helvetica-Light,Helvetica" font-size="66.4" fill="#FEFFFF" transform="matrix(1.00, 0.00, -0.00, -1.00, 449.3, 632.8)"> </text><text xml:space="preserve" font-family="Helvetica-Light,Helvetica" font-size="66.4" fill="#FEFFFF" transform="matrix(1.00, 0.00, -0.00, -1.00, 467.7, 632.8)">s</text><text xml:space="preserve" font-family="Helvetica-Light,Helvetica" font-size="66.4" fill="#FEFFFF" transform="matrix(1.00, 0.00, -0.00, -1.00, 500.9, 632.8)">n</text><text xml:space="preserve" font-family="Helvetica-Light,Helvetica" font-size="66.4" fill="#FEFFFF" transform="matrix(1.00, 0.00, -0.00, -1.00, 537.8, 632.8)">o</text><text xml:space="preserve" font-family="Helvetica-Light,Helvetica" font-size="66.4" fill="#FEFFFF" transform="matrix(1.00, 0.00, -0.00, -1.00, 574.7, 632.8)">w</text><text xml:space="preserve" font-family="Helvetica-Light,Helvetica" font-size="66.4" fill="#FEFFFF" transform="matrix(1.00, 0.00, -0.00, -1.00, 622.7, 632.8)">ﬂ</text><text xml:space="preserve" font-family="Helvetica-Light,Helvetica" font-size="66.4" fill="#FEFFFF" transform="matrix(1.00, 0.00, -0.00, -1.00, 655.9, 632.8)">a</text><text xml:space="preserve" font-family="Helvetica-Light,Helvetica" font-size="66.4" fill="#FEFFFF" transform="matrix(1.00, 0.00, -0.00, -1.00, 692.8, 632.8)">k</text><text xml:space="preserve" font-family="Helvetica-Light,Helvetica" font-size="66.4" fill="#FEFFFF" transform="matrix(1.00, 0.00, -0.00, -1.00, 726.0, 632.8)">e</text><text xml:space="preserve" font-family="Helvetica-Light,Helvetica" font-size="66.4" fill="#FEFFFF" transform="matrix(1.00, 0.00, -0.00, -1.00, 762.9, 632.8)">s</text></g></svg>