<?xml version="1.0" encoding="UTF-8" standalone="no"?><svg xmlns="http://www.w3.org/2000/svg" xmlns:xlink="http://www.w3.org/1999/xlink" clip-rule="evenodd" stroke-miterlimit="10" viewBox="0 0 1024 768"><desc>SVG generated by Keynote</desc><defs></defs><g transform="matrix(1.00, 0.00, -0.00, -1.00, 0.0, 768.0)"><path d="M 0.0 768.0 L 1024.0 768.0 L 1024.0 0.0 L 0.0 0.0 Z M 0.0 768.0 " fill="#000000"></path><text xml:space="preserve" font-family="Helvetica-Light,Helvetica" font-size="25.0" fill="#FEFFFF" transform="matrix(1.00, 0.00, -0.00, -1.00, 242.6, 23.7)">h</text><text xml:space="preserve" font-family="Helvetica-Light,Helvetica" font-size="25.0" fill="#FEFFFF" transform="matrix(1.00, 0.00, -0.00, -1.00, 256.5, 23.7)">t</text><text xml:space="preserve" font-family="Helvetica-Light,Helvetica" font-size="25.0" fill="#FEFFFF" transform="matrix(1.00, 0.00, -0.00, -1.00, 263.4, 23.7)">t</text><text xml:space="preserve" font-family="Helvetica-Light,Helvetica" font-size="25.0" fill="#FEFFFF" transform="matrix(1.00, 0.00, -0.00, -1.00, 270.4, 23.7)">p</text><text xml:space="preserve" font-family="Helvetica-Light,Helvetica" font-size="25.0" fill="#FEFFFF" transform="matrix(1.00, 0.00, -0.00, -1.00, 285.6, 23.7)">:</text><text xml:space="preserve" font-family="Helvetica-Light,Helvetica" font-size="25.0" fill="#FEFFFF" transform="matrix(1.00, 0.00, -0.00, -1.00, 292.6, 23.7)">/</text><text xml:space="preserve" font-family="Helvetica-Light,Helvetica" font-size="25.0" fill="#FEFFFF" transform="matrix(1.00, 0.00, -0.00, -1.00, 299.5, 23.7)">/</text><text xml:space="preserve" font-family="Helvetica-Light,Helvetica" font-size="25.0" fill="#FEFFFF" transform="matrix(1.00, 0.00, -0.00, -1.00, 306.5, 23.7)">b</text><text xml:space="preserve" font-family="Helvetica-Light,Helvetica" font-size="25.0" fill="#FEFFFF" transform="matrix(1.00, 0.00, -0.00, -1.00, 321.8, 23.7)">l</text><text xml:space="preserve" font-family="Helvetica-Light,Helvetica" font-size="25.0" fill="#FEFFFF" transform="matrix(1.00, 0.00, -0.00, -1.00, 327.3, 23.7)">o</text><text xml:space="preserve" font-family="Helvetica-Light,Helvetica" font-size="25.0" fill="#FEFFFF" transform="matrix(1.00, 0.00, -0.00, -1.00, 341.2, 23.7)">g</text><text xml:space="preserve" font-family="Helvetica-Light,Helvetica" font-size="25.0" fill="#FEFFFF" transform="matrix(1.00, 0.00, -0.00, -1.00, 356.5, 23.7)">.</text><text xml:space="preserve" font-family="Helvetica-Light,Helvetica" font-size="25.0" fill="#FEFFFF" transform="matrix(1.00, 0.00, -0.00, -1.00, 363.4, 23.7)">c</text><text xml:space="preserve" font-family="Helvetica-Light,Helvetica" font-size="25.0" fill="#FEFFFF" transform="matrix(1.00, 0.00, -0.00, -1.00, 377.3, 23.7)">r</text><text xml:space="preserve" font-family="Helvetica-Light,Helvetica" font-size="25.0" fill="#FEFFFF" transform="matrix(1.00, 0.00, -0.00, -1.00, 385.7, 23.7)">i</text><text xml:space="preserve" font-family="Helvetica-Light,Helvetica" font-size="25.0" fill="#FEFFFF" transform="matrix(1.00, 0.00, -0.00, -1.00, 391.2, 23.7)">s</text><text xml:space="preserve" font-family="Helvetica-Light,Helvetica" font-size="25.0" fill="#FEFFFF" transform="matrix(1.00, 0.00, -0.00, -1.00, 403.7, 23.7)">p</text><text xml:space="preserve" font-family="Helvetica-Light,Helvetica" font-size="25.0" fill="#FEFFFF" transform="matrix(1.00, 0.00, -0.00, -1.00, 419.0, 23.7)">.</text><text xml:space="preserve" font-family="Helvetica-Light,Helvetica" font-size="25.0" fill="#FEFFFF" transform="matrix(1.00, 0.00, -0.00, -1.00, 425.9, 23.7)">s</text><text xml:space="preserve" font-family="Helvetica-Light,Helvetica" font-size="25.0" fill="#FEFFFF" transform="matrix(1.00, 0.00, -0.00, -1.00, 438.4, 23.7)">e</text><text xml:space="preserve" font-family="Helvetica-Light,Helvetica" font-size="25.0" fill="#FEFFFF" transform="matrix(1.00, 0.00, -0.00, -1.00, 452.3, 23.7)">/</text><text xml:space="preserve" font-family="Helvetica-Light,Helvetica" font-size="25.0" fill="#FEFFFF" transform="matrix(1.00, 0.00, -0.00, -1.00, 459.3, 23.7)">2</text><text xml:space="preserve" font-family="Helvetica-Light,Helvetica" font-size="25.0" fill="#FEFFFF" transform="matrix(1.00, 0.00, -0.00, -1.00, 473.2, 23.7)">0</text><text xml:space="preserve" font-family="Helvetica-Light,Helvetica" font-size="25.0" fill="#FEFFFF" transform="matrix(1.00, 0.00, -0.00, -1.00, 487.1, 23.7)">1</text><text xml:space="preserve" font-family="Helvetica-Light,Helvetica" font-size="25.0" fill="#FEFFFF" transform="matrix(1.00, 0.00, -0.00, -1.00, 501.0, 23.7)">2</text><text xml:space="preserve" font-family="Helvetica-Light,Helvetica" font-size="25.0" fill="#FEFFFF" transform="matrix(1.00, 0.00, -0.00, -1.00, 514.9, 23.7)">/</text><text xml:space="preserve" font-family="Helvetica-Light,Helvetica" font-size="25.0" fill="#FEFFFF" transform="matrix(1.00, 0.00, -0.00, -1.00, 521.8, 23.7)">1</text><text xml:space="preserve" font-family="Helvetica-Light,Helvetica" font-size="25.0" fill="#FEFFFF" transform="matrix(1.00, 0.00, -0.00, -1.00, 535.7, 23.7)">1</text><text xml:space="preserve" font-family="Helvetica-Light,Helvetica" font-size="25.0" fill="#FEFFFF" transform="matrix(1.00, 0.00, -0.00, -1.00, 549.6, 23.7)">/</text><text xml:space="preserve" font-family="Helvetica-Light,Helvetica" font-size="25.0" fill="#FEFFFF" transform="matrix(1.00, 0.00, -0.00, -1.00, 556.6, 23.7)">1</text><text xml:space="preserve" font-family="Helvetica-Light,Helvetica" font-size="25.0" fill="#FEFFFF" transform="matrix(1.00, 0.00, -0.00, -1.00, 570.5, 23.7)">4</text><text xml:space="preserve" font-family="Helvetica-Light,Helvetica" font-size="25.0" fill="#FEFFFF" transform="matrix(1.00, 0.00, -0.00, -1.00, 584.4, 23.7)">/</text><text xml:space="preserve" font-family="Helvetica-Light,Helvetica" font-size="25.0" fill="#FEFFFF" transform="matrix(1.00, 0.00, -0.00, -1.00, 591.3, 23.7)">h</text><text xml:space="preserve" font-family="Helvetica-Light,Helvetica" font-size="25.0" fill="#FEFFFF" transform="matrix(1.00, 0.00, -0.00, -1.00, 605.2, 23.7)">e</text><text xml:space="preserve" font-family="Helvetica-Light,Helvetica" font-size="25.0" fill="#FEFFFF" transform="matrix(1.00, 0.00, -0.00, -1.00, 619.1, 23.7)">n</text><text xml:space="preserve" font-family="Helvetica-Light,Helvetica" font-size="25.0" fill="#FEFFFF" transform="matrix(1.00, 0.00, -0.00, -1.00, 633.0, 23.7)">r</text><text xml:space="preserve" font-family="Helvetica-Light,Helvetica" font-size="25.0" fill="#FEFFFF" transform="matrix(1.00, 0.00, -0.00, -1.00, 641.4, 23.7)">i</text><text xml:space="preserve" font-family="Helvetica-Light,Helvetica" font-size="25.0" fill="#FEFFFF" transform="matrix(1.00, 0.00, -0.00, -1.00, 646.9, 23.7)">k</text><text xml:space="preserve" font-family="Helvetica-Light,Helvetica" font-size="25.0" fill="#FEFFFF" transform="matrix(1.00, 0.00, -0.00, -1.00, 659.4, 23.7)">k</text><text xml:space="preserve" font-family="Helvetica-Light,Helvetica" font-size="25.0" fill="#FEFFFF" transform="matrix(1.00, 0.00, -0.00, -1.00, 671.9, 23.7)">n</text><text xml:space="preserve" font-family="Helvetica-Light,Helvetica" font-size="25.0" fill="#FEFFFF" transform="matrix(1.00, 0.00, -0.00, -1.00, 685.8, 23.7)">i</text><text xml:space="preserve" font-family="Helvetica-Light,Helvetica" font-size="25.0" fill="#FEFFFF" transform="matrix(1.00, 0.00, -0.00, -1.00, 691.4, 23.7)">b</text><text xml:space="preserve" font-family="Helvetica-Light,Helvetica" font-size="25.0" fill="#FEFFFF" transform="matrix(1.00, 0.00, -0.00, -1.00, 706.6, 23.7)">e</text><text xml:space="preserve" font-family="Helvetica-Light,Helvetica" font-size="25.0" fill="#FEFFFF" transform="matrix(1.00, 0.00, -0.00, -1.00, 720.5, 23.7)">r</text><text xml:space="preserve" font-family="Helvetica-Light,Helvetica" font-size="25.0" fill="#FEFFFF" transform="matrix(1.00, 0.00, -0.00, -1.00, 728.9, 23.7)">g</text><text xml:space="preserve" font-family="Helvetica-Light,Helvetica" font-size="25.0" fill="#FEFFFF" transform="matrix(1.00, 0.00, -0.00, -1.00, 744.1, 23.7)">/</text><text xml:space="preserve" font-family="Helvetica-Light,Helvetica" font-size="25.0" fill="#FEFFFF" transform="matrix(1.00, 0.00, -0.00, -1.00, 751.1, 23.7)">s</text><text xml:space="preserve" font-family="Helvetica-Light,Helvetica" font-size="25.0" fill="#FEFFFF" transform="matrix(1.00, 0.00, -0.00, -1.00, 763.6, 23.7)">c</text><text xml:space="preserve" font-family="Helvetica-Light,Helvetica" font-size="25.0" fill="#FEFFFF" transform="matrix(1.00, 0.00, -0.00, -1.00, 777.5, 23.7)">a</text><text xml:space="preserve" font-family="Helvetica-Light,Helvetica" font-size="25.0" fill="#FEFFFF" transform="matrix(1.00, 0.00, -0.00, -1.00, 791.4, 23.7)">l</text><text xml:space="preserve" font-family="Helvetica-Light,Helvetica" font-size="25.0" fill="#FEFFFF" transform="matrix(1.00, 0.00, -0.00, -1.00, 796.9, 23.7)">i</text><text xml:space="preserve" font-family="Helvetica-Light,Helvetica" font-size="25.0" fill="#FEFFFF" transform="matrix(1.00, 0.00, -0.00, -1.00, 802.5, 23.7)">n</text><text xml:space="preserve" font-family="Helvetica-Light,Helvetica" font-size="25.0" fill="#FEFFFF" transform="matrix(1.00, 0.00, -0.00, -1.00, 816.4, 23.7)">g</text><text xml:space="preserve" font-family="Helvetica-Light,Helvetica" font-size="25.0" fill="#FEFFFF" transform="matrix(1.00, 0.00, -0.00, -1.00, 831.7, 23.7)">-</text><text xml:space="preserve" font-family="Helvetica-Light,Helvetica" font-size="25.0" fill="#FEFFFF" transform="matrix(1.00, 0.00, -0.00, -1.00, 840.0, 23.7)">a</text><text xml:space="preserve" font-family="Helvetica-Light,Helvetica" font-size="25.0" fill="#FEFFFF" transform="matrix(1.00, 0.00, -0.00, -1.00, 853.9, 23.7)">g</text><text xml:space="preserve" font-family="Helvetica-Light,Helvetica" font-size="25.0" fill="#FEFFFF" transform="matrix(1.00, 0.00, -0.00, -1.00, 869.2, 23.7)">i</text><text xml:space="preserve" font-family="Helvetica-Light,Helvetica" font-size="25.0" fill="#FEFFFF" transform="matrix(1.00, 0.00, -0.00, -1.00, 874.7, 23.7)">l</text><text xml:space="preserve" font-family="Helvetica-Light,Helvetica" font-size="25.0" fill="#FEFFFF" transform="matrix(1.00, 0.00, -0.00, -1.00, 880.3, 23.7)">e</text><text xml:space="preserve" font-family="Helvetica-Light,Helvetica" font-size="25.0" fill="#FEFFFF" transform="matrix(1.00, 0.00, -0.00, -1.00, 894.2, 23.7)">-</text><text xml:space="preserve" font-family="Helvetica-Light,Helvetica" font-size="25.0" fill="#FEFFFF" transform="matrix(1.00, 0.00, -0.00, -1.00, 902.5, 23.7)">a</text><text xml:space="preserve" font-family="Helvetica-Light,Helvetica" font-size="25.0" fill="#FEFFFF" transform="matrix(1.00, 0.00, -0.00, -1.00, 916.4, 23.7)">t</text><text xml:space="preserve" font-family="Helvetica-Light,Helvetica" font-size="25.0" fill="#FEFFFF" transform="matrix(1.00, 0.00, -0.00, -1.00, 923.3, 23.7)">-</text><text xml:space="preserve" font-family="Helvetica-Light,Helvetica" font-size="25.0" fill="#FEFFFF" transform="matrix(1.00, 0.00, -0.00, -1.00, 931.7, 23.7)">s</text><text xml:space="preserve" font-family="Helvetica-Light,Helvetica" font-size="25.0" fill="#FEFFFF" transform="matrix(1.00, 0.00, -0.00, -1.00, 944.2, 23.7)">p</text><text xml:space="preserve" font-family="Helvetica-Light,Helvetica" font-size="25.0" fill="#FEFFFF" transform="matrix(1.00, 0.00, -0.00, -1.00, 959.4, 23.7)">o</text><text xml:space="preserve" font-family="Helvetica-Light,Helvetica" font-size="25.0" fill="#FEFFFF" transform="matrix(1.00, 0.00, -0.00, -1.00, 973.3, 23.7)">t</text><text xml:space="preserve" font-family="Helvetica-Light,Helvetica" font-size="25.0" fill="#FEFFFF" transform="matrix(1.00, 0.00, -0.00, -1.00, 980.3, 23.7)">i</text><text xml:space="preserve" font-family="Helvetica-Light,Helvetica" font-size="25.0" fill="#FEFFFF" transform="matrix(1.00, 0.00, -0.00, -1.00, 985.8, 23.7)">f</text><text xml:space="preserve" font-family="Helvetica-Light,Helvetica" font-size="25.0" fill="#FEFFFF" transform="matrix(1.00, 0.00, -0.00, -1.00, 992.8, 23.7)">y</text><g><clipPath id="clip0x6080044aa260"><path d="M 241.6 20.2 L 1005.3 20.2 L 1005.3 23.5 L 241.6 23.5 Z M 241.6 20.2 "></path></clipPath><g clip-path="url(#clip0x6080044aa260)"><path d="M 5.0 30.1 L 767.7 30.1 " fill="none" stroke="#FEFFFF" stroke-width="1.25" transform="matrix(1.00, 0.00, 0.00, -1.00, 237.6, 52.0)"></path></g></g></g></svg>