<?xml version="1.0" encoding="UTF-8" standalone="no"?><svg xmlns="http://www.w3.org/2000/svg" xmlns:xlink="http://www.w3.org/1999/xlink" clip-rule="evenodd" stroke-miterlimit="10" viewBox="0 0 1024 768"><desc>SVG generated by Keynote</desc><defs></defs><g transform="matrix(1.00, 0.00, -0.00, -1.00, 0.0, 768.0)"><path d="M 0.0 768.0 L 1024.0 768.0 L 1024.0 0.0 L 0.0 0.0 Z M 0.0 768.0 " fill="#000000"></path><text xml:space="preserve" font-family="Helvetica-Light,Helvetica" font-size="80.0" fill="#FEFFFF" transform="matrix(1.00, 0.00, -0.00, -1.00, 225.2, 401.4)">W</text><text xml:space="preserve" font-family="Helvetica-Light,Helvetica" font-size="80.0" fill="#FEFFFF" transform="matrix(1.00, 0.00, -0.00, -1.00, 296.4, 401.4)">i</text><text xml:space="preserve" font-family="Helvetica-Light,Helvetica" font-size="80.0" fill="#FEFFFF" transform="matrix(1.00, 0.00, -0.00, -1.00, 314.1, 401.4)">t</text><text xml:space="preserve" font-family="Helvetica-Light,Helvetica" font-size="80.0" fill="#FEFFFF" transform="matrix(1.00, 0.00, -0.00, -1.00, 336.4, 401.4)">h</text><text xml:space="preserve" font-family="Helvetica-Light,Helvetica" font-size="80.0" fill="#FEFFFF" transform="matrix(1.00, 0.00, -0.00, -1.00, 380.8, 401.4)"> </text><text xml:space="preserve" font-family="Helvetica-Light,Helvetica" font-size="80.0" fill="#FEFFFF" transform="matrix(1.00, 0.00, -0.00, -1.00, 403.1, 401.4)">a</text><text xml:space="preserve" font-family="Helvetica-Light,Helvetica" font-size="80.0" fill="#FEFFFF" transform="matrix(1.00, 0.00, -0.00, -1.00, 447.6, 401.4)"> </text><text xml:space="preserve" font-family="Helvetica-Light,Helvetica" font-size="80.0" fill="#FEFFFF" transform="matrix(1.00, 0.00, -0.00, -1.00, 469.8, 401.4)">C</text><text xml:space="preserve" font-family="Helvetica-Light,Helvetica" font-size="80.0" fill="#FEFFFF" transform="matrix(1.00, 0.00, -0.00, -1.00, 527.6, 401.4)">a</text><text xml:space="preserve" font-family="Helvetica-Light,Helvetica" font-size="80.0" fill="#FEFFFF" transform="matrix(1.00, 0.00, -0.00, -1.00, 572.0, 401.4)">p</text><text xml:space="preserve" font-family="Helvetica-Light,Helvetica" font-size="80.0" fill="#FEFFFF" transform="matrix(1.00, 0.00, -0.00, -1.00, 620.9, 401.4)">i</text><text xml:space="preserve" font-family="Helvetica-Light,Helvetica" font-size="80.0" fill="#FEFFFF" transform="matrix(1.00, 0.00, -0.00, -1.00, 638.7, 401.4)">t</text><text xml:space="preserve" font-family="Helvetica-Light,Helvetica" font-size="80.0" fill="#FEFFFF" transform="matrix(1.00, 0.00, -0.00, -1.00, 660.9, 401.4)">a</text><text xml:space="preserve" font-family="Helvetica-Light,Helvetica" font-size="80.0" fill="#FEFFFF" transform="matrix(1.00, 0.00, -0.00, -1.00, 705.4, 401.4)">l</text><text xml:space="preserve" font-family="Helvetica-Light,Helvetica" font-size="80.0" fill="#FEFFFF" transform="matrix(1.00, 0.00, -0.00, -1.00, 723.2, 401.4)"> </text><text xml:space="preserve" font-family="Helvetica-Light,Helvetica" font-size="80.0" fill="#FEFFFF" transform="matrix(1.00, 0.00, -0.00, -1.00, 745.4, 401.4)">A</text><text xml:space="preserve" font-family="Helvetica-Light,Helvetica" font-size="32.0" fill="#FEFFFF" transform="matrix(1.00, 0.00, -0.00, -1.00, 132.3, 337.4)">h</text><text xml:space="preserve" font-family="Helvetica-Light,Helvetica" font-size="32.0" fill="#FEFFFF" transform="matrix(1.00, 0.00, -0.00, -1.00, 150.1, 337.4)">t</text><text xml:space="preserve" font-family="Helvetica-Light,Helvetica" font-size="32.0" fill="#FEFFFF" transform="matrix(1.00, 0.00, -0.00, -1.00, 159.0, 337.4)">t</text><text xml:space="preserve" font-family="Helvetica-Light,Helvetica" font-size="32.0" fill="#FEFFFF" transform="matrix(1.00, 0.00, -0.00, -1.00, 167.9, 337.4)">p</text><text xml:space="preserve" font-family="Helvetica-Light,Helvetica" font-size="32.0" fill="#FEFFFF" transform="matrix(1.00, 0.00, -0.00, -1.00, 187.5, 337.4)">:</text><text xml:space="preserve" font-family="Helvetica-Light,Helvetica" font-size="32.0" fill="#FEFFFF" transform="matrix(1.00, 0.00, -0.00, -1.00, 196.4, 337.4)">/</text><text xml:space="preserve" font-family="Helvetica-Light,Helvetica" font-size="32.0" fill="#FEFFFF" transform="matrix(1.00, 0.00, -0.00, -1.00, 205.3, 337.4)">/</text><text xml:space="preserve" font-family="Helvetica-Light,Helvetica" font-size="32.0" fill="#FEFFFF" transform="matrix(1.00, 0.00, -0.00, -1.00, 214.2, 337.4)">p</text><text xml:space="preserve" font-family="Helvetica-Light,Helvetica" font-size="32.0" fill="#FEFFFF" transform="matrix(1.00, 0.00, -0.00, -1.00, 233.7, 337.4)">r</text><text xml:space="preserve" font-family="Helvetica-Light,Helvetica" font-size="32.0" fill="#FEFFFF" transform="matrix(1.00, 0.00, -0.00, -1.00, 244.4, 337.4)">a</text><text xml:space="preserve" font-family="Helvetica-Light,Helvetica" font-size="32.0" fill="#FEFFFF" transform="matrix(1.00, 0.00, -0.00, -1.00, 262.2, 337.4)">g</text><text xml:space="preserve" font-family="Helvetica-Light,Helvetica" font-size="32.0" fill="#FEFFFF" transform="matrix(1.00, 0.00, -0.00, -1.00, 281.7, 337.4)">d</text><text xml:space="preserve" font-family="Helvetica-Light,Helvetica" font-size="32.0" fill="#FEFFFF" transform="matrix(1.00, 0.00, -0.00, -1.00, 301.3, 337.4)">a</text><text xml:space="preserve" font-family="Helvetica-Light,Helvetica" font-size="32.0" fill="#FEFFFF" transform="matrix(1.00, 0.00, -0.00, -1.00, 319.1, 337.4)">v</text><text xml:space="preserve" font-family="Helvetica-Light,Helvetica" font-size="32.0" fill="#FEFFFF" transform="matrix(1.00, 0.00, -0.00, -1.00, 335.1, 337.4)">e</text><text xml:space="preserve" font-family="Helvetica-Light,Helvetica" font-size="32.0" fill="#FEFFFF" transform="matrix(1.00, 0.00, -0.00, -1.00, 352.8, 337.4)">.</text><text xml:space="preserve" font-family="Helvetica-Light,Helvetica" font-size="32.0" fill="#FEFFFF" transform="matrix(1.00, 0.00, -0.00, -1.00, 361.7, 337.4)">m</text><text xml:space="preserve" font-family="Helvetica-Light,Helvetica" font-size="32.0" fill="#FEFFFF" transform="matrix(1.00, 0.00, -0.00, -1.00, 388.4, 337.4)">e</text><text xml:space="preserve" font-family="Helvetica-Light,Helvetica" font-size="32.0" fill="#FEFFFF" transform="matrix(1.00, 0.00, -0.00, -1.00, 406.2, 337.4)">/</text><text xml:space="preserve" font-family="Helvetica-Light,Helvetica" font-size="32.0" fill="#FEFFFF" transform="matrix(1.00, 0.00, -0.00, -1.00, 415.1, 337.4)">b</text><text xml:space="preserve" font-family="Helvetica-Light,Helvetica" font-size="32.0" fill="#FEFFFF" transform="matrix(1.00, 0.00, -0.00, -1.00, 434.6, 337.4)">l</text><text xml:space="preserve" font-family="Helvetica-Light,Helvetica" font-size="32.0" fill="#FEFFFF" transform="matrix(1.00, 0.00, -0.00, -1.00, 441.7, 337.4)">o</text><text xml:space="preserve" font-family="Helvetica-Light,Helvetica" font-size="32.0" fill="#FEFFFF" transform="matrix(1.00, 0.00, -0.00, -1.00, 459.5, 337.4)">g</text><text xml:space="preserve" font-family="Helvetica-Light,Helvetica" font-size="32.0" fill="#FEFFFF" transform="matrix(1.00, 0.00, -0.00, -1.00, 479.1, 337.4)">/</text><text xml:space="preserve" font-family="Helvetica-Light,Helvetica" font-size="32.0" fill="#FEFFFF" transform="matrix(1.00, 0.00, -0.00, -1.00, 488.0, 337.4)">2</text><text xml:space="preserve" font-family="Helvetica-Light,Helvetica" font-size="32.0" fill="#FEFFFF" transform="matrix(1.00, 0.00, -0.00, -1.00, 505.8, 337.4)">0</text><text xml:space="preserve" font-family="Helvetica-Light,Helvetica" font-size="32.0" fill="#FEFFFF" transform="matrix(1.00, 0.00, -0.00, -1.00, 523.6, 337.4)">1</text><text xml:space="preserve" font-family="Helvetica-Light,Helvetica" font-size="32.0" fill="#FEFFFF" transform="matrix(1.00, 0.00, -0.00, -1.00, 541.4, 337.4)">4</text><text xml:space="preserve" font-family="Helvetica-Light,Helvetica" font-size="32.0" fill="#FEFFFF" transform="matrix(1.00, 0.00, -0.00, -1.00, 559.2, 337.4)">/</text><text xml:space="preserve" font-family="Helvetica-Light,Helvetica" font-size="32.0" fill="#FEFFFF" transform="matrix(1.00, 0.00, -0.00, -1.00, 568.0, 337.4)">0</text><text xml:space="preserve" font-family="Helvetica-Light,Helvetica" font-size="32.0" fill="#FEFFFF" transform="matrix(1.00, 0.00, -0.00, -1.00, 585.8, 337.4)">3</text><text xml:space="preserve" font-family="Helvetica-Light,Helvetica" font-size="32.0" fill="#FEFFFF" transform="matrix(1.00, 0.00, -0.00, -1.00, 603.6, 337.4)">/</text><text xml:space="preserve" font-family="Helvetica-Light,Helvetica" font-size="32.0" fill="#FEFFFF" transform="matrix(1.00, 0.00, -0.00, -1.00, 612.5, 337.4)">0</text><text xml:space="preserve" font-family="Helvetica-Light,Helvetica" font-size="32.0" fill="#FEFFFF" transform="matrix(1.00, 0.00, -0.00, -1.00, 630.3, 337.4)">4</text><text xml:space="preserve" font-family="Helvetica-Light,Helvetica" font-size="32.0" fill="#FEFFFF" transform="matrix(1.00, 0.00, -0.00, -1.00, 648.1, 337.4)">/</text><text xml:space="preserve" font-family="Helvetica-Light,Helvetica" font-size="32.0" fill="#FEFFFF" transform="matrix(1.00, 0.00, -0.00, -1.00, 657.0, 337.4)">t</text><text xml:space="preserve" font-family="Helvetica-Light,Helvetica" font-size="32.0" fill="#FEFFFF" transform="matrix(1.00, 0.00, -0.00, -1.00, 665.9, 337.4)">i</text><text xml:space="preserve" font-family="Helvetica-Light,Helvetica" font-size="32.0" fill="#FEFFFF" transform="matrix(1.00, 0.00, -0.00, -1.00, 673.0, 337.4)">m</text><text xml:space="preserve" font-family="Helvetica-Light,Helvetica" font-size="32.0" fill="#FEFFFF" transform="matrix(1.00, 0.00, -0.00, -1.00, 699.7, 337.4)">e</text><text xml:space="preserve" font-family="Helvetica-Light,Helvetica" font-size="32.0" fill="#FEFFFF" transform="matrix(1.00, 0.00, -0.00, -1.00, 717.5, 337.4)">-</text><text xml:space="preserve" font-family="Helvetica-Light,Helvetica" font-size="32.0" fill="#FEFFFF" transform="matrix(1.00, 0.00, -0.00, -1.00, 728.1, 337.4)">t</text><text xml:space="preserve" font-family="Helvetica-Light,Helvetica" font-size="32.0" fill="#FEFFFF" transform="matrix(1.00, 0.00, -0.00, -1.00, 737.0, 337.4)">o</text><text xml:space="preserve" font-family="Helvetica-Light,Helvetica" font-size="32.0" fill="#FEFFFF" transform="matrix(1.00, 0.00, -0.00, -1.00, 754.8, 337.4)">-</text><text xml:space="preserve" font-family="Helvetica-Light,Helvetica" font-size="32.0" fill="#FEFFFF" transform="matrix(1.00, 0.00, -0.00, -1.00, 765.5, 337.4)">k</text><text xml:space="preserve" font-family="Helvetica-Light,Helvetica" font-size="32.0" fill="#FEFFFF" transform="matrix(1.00, 0.00, -0.00, -1.00, 781.5, 337.4)">i</text><text xml:space="preserve" font-family="Helvetica-Light,Helvetica" font-size="32.0" fill="#FEFFFF" transform="matrix(1.00, 0.00, -0.00, -1.00, 788.6, 337.4)">l</text><text xml:space="preserve" font-family="Helvetica-Light,Helvetica" font-size="32.0" fill="#FEFFFF" transform="matrix(1.00, 0.00, -0.00, -1.00, 795.7, 337.4)">l</text><text xml:space="preserve" font-family="Helvetica-Light,Helvetica" font-size="32.0" fill="#FEFFFF" transform="matrix(1.00, 0.00, -0.00, -1.00, 802.8, 337.4)">-</text><text xml:space="preserve" font-family="Helvetica-Light,Helvetica" font-size="32.0" fill="#FEFFFF" transform="matrix(1.00, 0.00, -0.00, -1.00, 813.4, 337.4)">a</text><text xml:space="preserve" font-family="Helvetica-Light,Helvetica" font-size="32.0" fill="#FEFFFF" transform="matrix(1.00, 0.00, -0.00, -1.00, 831.2, 337.4)">g</text><text xml:space="preserve" font-family="Helvetica-Light,Helvetica" font-size="32.0" fill="#FEFFFF" transform="matrix(1.00, 0.00, -0.00, -1.00, 850.8, 337.4)">i</text><text xml:space="preserve" font-family="Helvetica-Light,Helvetica" font-size="32.0" fill="#FEFFFF" transform="matrix(1.00, 0.00, -0.00, -1.00, 857.9, 337.4)">l</text><text xml:space="preserve" font-family="Helvetica-Light,Helvetica" font-size="32.0" fill="#FEFFFF" transform="matrix(1.00, 0.00, -0.00, -1.00, 865.0, 337.4)">e</text><text xml:space="preserve" font-family="Helvetica-Light,Helvetica" font-size="32.0" fill="#FEFFFF" transform="matrix(1.00, 0.00, -0.00, -1.00, 882.8, 337.4)">/</text><g><clipPath id="clip0x6100016a49e0"><path d="M 131.3 333.2 L 891.7 333.2 L 891.7 336.8 L 131.3 336.8 Z M 131.3 333.2 "></path></clipPath><g clip-path="url(#clip0x6100016a49e0)"><path d="M 32.3 37.0 L 791.7 37.0 " fill="none" stroke="#FEFFFF" stroke-width="1.60" transform="matrix(1.00, 0.00, 0.00, -1.00, 100.0, 372.0)"></path></g></g></g></svg>